<?xml version="1.0" standalone="no"?>
<mlt LC_NUMERIC="C" version="7.32.0" title="Shotcut version 25.08.16" producer="main_bin">
  <profile description="PAL 4:3 DV or DVD" width="1280" height="720" progressive="1" sample_aspect_num="1" sample_aspect_den="1" display_aspect_num="16" display_aspect_den="9" frame_rate_num="60" frame_rate_den="1" colorspace="709"/>
  <playlist id="main_bin">
    <property name="xml_retain">1</property>
  </playlist>
  <producer id="black" in="00:00:00.000" out="00:24:10.083">
    <property name="length">00:24:10.100</property>
    <property name="eof">pause</property>
    <property name="resource">0</property>
    <property name="aspect_ratio">1</property>
    <property name="mlt_service">color</property>
    <property name="mlt_image_format">rgba</property>
    <property name="set.test_audio">0</property>
  </producer>
  <playlist id="background">
    <entry producer="black" in="00:00:00.000" out="00:24:10.083"/>
  </playlist>
  <chain id="chain0" out="00:03:28.883">
    <property name="length">00:03:28.900</property>
    <property name="eof">pause</property>
    <property name="resource">/home/jame/Videos/lab 2/2025-09-05 14-08-50.mp4</property>
    <property name="mlt_service">avformat-novalidate</property>
    <property name="meta.media.nb_streams">2</property>
    <property name="meta.media.0.stream.type">video</property>
    <property name="meta.media.0.stream.frame_rate">60</property>
    <property name="meta.media.0.stream.sample_aspect_ratio">0</property>
    <property name="meta.media.0.codec.width">1280</property>
    <property name="meta.media.0.codec.height">720</property>
    <property name="meta.media.0.codec.rotate">0</property>
    <property name="meta.media.0.codec.pix_fmt">yuv420p</property>
    <property name="meta.media.0.codec.sample_aspect_ratio">1</property>
    <property name="meta.media.0.codec.colorspace">709</property>
    <property name="meta.media.0.codec.color_trc">1</property>
    <property name="meta.media.0.codec.name">h264</property>
    <property name="meta.media.0.codec.long_name">H.264 / AVC / MPEG-4 AVC / MPEG-4 part 10</property>
    <property name="meta.media.0.codec.bit_rate">2499205</property>
    <property name="meta.attr.0.stream.handler_name.markup">VideoHandler</property>
    <property name="meta.attr.0.stream.vendor_id.markup">[0][0][0][0]</property>
    <property name="meta.media.1.stream.type">audio</property>
    <property name="meta.media.1.codec.sample_fmt">fltp</property>
    <property name="meta.media.1.codec.sample_rate">48000</property>
    <property name="meta.media.1.codec.channels">2</property>
    <property name="meta.media.1.codec.layout">stereo</property>
    <property name="meta.media.1.codec.name">aac</property>
    <property name="meta.media.1.codec.long_name">AAC (Advanced Audio Coding)</property>
    <property name="meta.media.1.codec.bit_rate">160000</property>
    <property name="meta.attr.1.stream.handler_name.markup">SoundHandler</property>
    <property name="meta.attr.1.stream.vendor_id.markup">[0][0][0][0]</property>
    <property name="meta.attr.major_brand.markup">isom</property>
    <property name="meta.attr.minor_version.markup">512</property>
    <property name="meta.attr.compatible_brands.markup">isomiso2avc1mp41</property>
    <property name="meta.attr.encoder.markup">Lavf61.7.100</property>
    <property name="seekable">1</property>
    <property name="meta.media.sample_aspect_num">1</property>
    <property name="meta.media.sample_aspect_den">1</property>
    <property name="format">3</property>
    <property name="audio_index">-1</property>
    <property name="video_index">0</property>
    <property name="creation_time">2025-09-05T07:12:19</property>
    <property name="vstream">0</property>
    <property name="meta.media.frame_rate_num">60</property>
    <property name="meta.media.frame_rate_den">1</property>
    <property name="meta.media.colorspace">709</property>
    <property name="meta.media.color_trc">1</property>
    <property name="meta.media.has_b_frames">2</property>
    <property name="meta.media.width">1280</property>
    <property name="meta.media.height">720</property>
    <property name="meta.media.aspect_ratio">1</property>
    <property name="meta.media.color_range">mpeg</property>
    <property name="astream">-1</property>
    <property name="shotcut:skipConvert">1</property>
    <property name="shotcut:hash">e1e7c035017c23425f055181bb4baa15</property>
    <property name="meta.media.top_field_first">0</property>
    <property name="meta.media.progressive">1</property>
    <property name="shotcut:caption">2025-09-05 14-08-50.mp4</property>
    <property name="shotcut:defaultAudioIndex">1</property>
    <property name="xml">was here</property>
  </chain>
  <chain id="chain1" out="00:03:28.883">
    <property name="length">00:03:28.900</property>
    <property name="eof">pause</property>
    <property name="resource">/home/jame/Videos/lab 2/2025-09-05 14-08-50.mp4</property>
    <property name="mlt_service">avformat-novalidate</property>
    <property name="meta.media.nb_streams">2</property>
    <property name="meta.media.0.stream.type">video</property>
    <property name="meta.media.0.stream.frame_rate">60</property>
    <property name="meta.media.0.stream.sample_aspect_ratio">0</property>
    <property name="meta.media.0.codec.width">1280</property>
    <property name="meta.media.0.codec.height">720</property>
    <property name="meta.media.0.codec.rotate">0</property>
    <property name="meta.media.0.codec.pix_fmt">yuv420p</property>
    <property name="meta.media.0.codec.sample_aspect_ratio">1</property>
    <property name="meta.media.0.codec.colorspace">709</property>
    <property name="meta.media.0.codec.color_trc">1</property>
    <property name="meta.media.0.codec.name">h264</property>
    <property name="meta.media.0.codec.long_name">H.264 / AVC / MPEG-4 AVC / MPEG-4 part 10</property>
    <property name="meta.media.0.codec.bit_rate">2499205</property>
    <property name="meta.attr.0.stream.handler_name.markup">VideoHandler</property>
    <property name="meta.attr.0.stream.vendor_id.markup">[0][0][0][0]</property>
    <property name="meta.media.1.stream.type">audio</property>
    <property name="meta.media.1.codec.sample_fmt">fltp</property>
    <property name="meta.media.1.codec.sample_rate">48000</property>
    <property name="meta.media.1.codec.channels">2</property>
    <property name="meta.media.1.codec.layout">stereo</property>
    <property name="meta.media.1.codec.name">aac</property>
    <property name="meta.media.1.codec.long_name">AAC (Advanced Audio Coding)</property>
    <property name="meta.media.1.codec.bit_rate">160000</property>
    <property name="meta.attr.1.stream.handler_name.markup">SoundHandler</property>
    <property name="meta.attr.1.stream.vendor_id.markup">[0][0][0][0]</property>
    <property name="meta.attr.major_brand.markup">isom</property>
    <property name="meta.attr.minor_version.markup">512</property>
    <property name="meta.attr.compatible_brands.markup">isomiso2avc1mp41</property>
    <property name="meta.attr.encoder.markup">Lavf61.7.100</property>
    <property name="seekable">1</property>
    <property name="meta.media.sample_aspect_num">1</property>
    <property name="meta.media.sample_aspect_den">1</property>
    <property name="format">3</property>
    <property name="audio_index">-1</property>
    <property name="video_index">0</property>
    <property name="creation_time">2025-09-05T07:12:19</property>
    <property name="vstream">0</property>
    <property name="meta.media.frame_rate_num">60</property>
    <property name="meta.media.frame_rate_den">1</property>
    <property name="meta.media.colorspace">709</property>
    <property name="meta.media.color_trc">1</property>
    <property name="meta.media.has_b_frames">2</property>
    <property name="meta.media.width">1280</property>
    <property name="meta.media.height">720</property>
    <property name="meta.media.aspect_ratio">1</property>
    <property name="meta.media.color_range">mpeg</property>
    <property name="astream">-1</property>
    <property name="shotcut:skipConvert">1</property>
    <property name="shotcut:hash">e1e7c035017c23425f055181bb4baa15</property>
    <property name="meta.media.top_field_first">0</property>
    <property name="meta.media.progressive">1</property>
    <property name="shotcut:caption">2025-09-05 14-08-50.mp4</property>
    <property name="shotcut:defaultAudioIndex">1</property>
    <property name="xml">was here</property>
  </chain>
  <chain id="chain2" out="00:03:31.950">
    <property name="length">00:03:31.967</property>
    <property name="eof">pause</property>
    <property name="resource">/home/jame/Videos/lab 2/2025-09-05 14-13-28.mp4</property>
    <property name="mlt_service">avformat-novalidate</property>
    <property name="meta.media.nb_streams">2</property>
    <property name="meta.media.0.stream.type">video</property>
    <property name="meta.media.0.stream.frame_rate">60</property>
    <property name="meta.media.0.stream.sample_aspect_ratio">0</property>
    <property name="meta.media.0.codec.width">1280</property>
    <property name="meta.media.0.codec.height">720</property>
    <property name="meta.media.0.codec.rotate">0</property>
    <property name="meta.media.0.codec.pix_fmt">yuv420p</property>
    <property name="meta.media.0.codec.sample_aspect_ratio">1</property>
    <property name="meta.media.0.codec.colorspace">709</property>
    <property name="meta.media.0.codec.color_trc">1</property>
    <property name="meta.media.0.codec.name">h264</property>
    <property name="meta.media.0.codec.long_name">H.264 / AVC / MPEG-4 AVC / MPEG-4 part 10</property>
    <property name="meta.media.0.codec.bit_rate">2499285</property>
    <property name="meta.attr.0.stream.handler_name.markup">VideoHandler</property>
    <property name="meta.attr.0.stream.vendor_id.markup">[0][0][0][0]</property>
    <property name="meta.media.1.stream.type">audio</property>
    <property name="meta.media.1.codec.sample_fmt">fltp</property>
    <property name="meta.media.1.codec.sample_rate">48000</property>
    <property name="meta.media.1.codec.channels">2</property>
    <property name="meta.media.1.codec.layout">stereo</property>
    <property name="meta.media.1.codec.name">aac</property>
    <property name="meta.media.1.codec.long_name">AAC (Advanced Audio Coding)</property>
    <property name="meta.media.1.codec.bit_rate">160000</property>
    <property name="meta.attr.1.stream.handler_name.markup">SoundHandler</property>
    <property name="meta.attr.1.stream.vendor_id.markup">[0][0][0][0]</property>
    <property name="meta.attr.major_brand.markup">isom</property>
    <property name="meta.attr.minor_version.markup">512</property>
    <property name="meta.attr.compatible_brands.markup">isomiso2avc1mp41</property>
    <property name="meta.attr.encoder.markup">Lavf61.7.100</property>
    <property name="seekable">1</property>
    <property name="meta.media.sample_aspect_num">1</property>
    <property name="meta.media.sample_aspect_den">1</property>
    <property name="format">3</property>
    <property name="audio_index">1</property>
    <property name="video_index">0</property>
    <property name="creation_time">2025-09-05T07:17:01</property>
    <property name="vstream">0</property>
    <property name="meta.media.frame_rate_num">60</property>
    <property name="meta.media.frame_rate_den">1</property>
    <property name="meta.media.colorspace">709</property>
    <property name="meta.media.color_trc">1</property>
    <property name="meta.media.has_b_frames">2</property>
    <property name="meta.media.width">1280</property>
    <property name="meta.media.height">720</property>
    <property name="meta.media.aspect_ratio">1</property>
    <property name="meta.media.color_range">mpeg</property>
    <property name="astream">0</property>
    <property name="shotcut:skipConvert">1</property>
    <property name="shotcut:hash">ee4240cd4f63d148215c7abeccccb2b4</property>
    <property name="meta.media.top_field_first">0</property>
    <property name="meta.media.progressive">1</property>
    <property name="shotcut:caption">2025-09-05 14-13-28.mp4</property>
    <property name="xml">was here</property>
    <filter id="filter0" in="00:00:00.083" out="00:03:29.133">
      <property name="window">75</property>
      <property name="max_gain">20dB</property>
      <property name="level">2</property>
      <property name="mlt_service">volume</property>
      <property name="shotcut:filter">audioGain</property>
    </filter>
  </chain>
  <chain id="chain3" out="00:07:31.433">
    <property name="length">00:07:31.450</property>
    <property name="eof">pause</property>
    <property name="resource">/home/jame/Videos/lab 2/2025-09-05 14-18-33.mp4</property>
    <property name="mlt_service">avformat-novalidate</property>
    <property name="meta.media.nb_streams">2</property>
    <property name="meta.media.0.stream.type">video</property>
    <property name="meta.media.0.stream.frame_rate">60</property>
    <property name="meta.media.0.stream.sample_aspect_ratio">0</property>
    <property name="meta.media.0.codec.width">1280</property>
    <property name="meta.media.0.codec.height">720</property>
    <property name="meta.media.0.codec.rotate">0</property>
    <property name="meta.media.0.codec.pix_fmt">yuv420p</property>
    <property name="meta.media.0.codec.sample_aspect_ratio">1</property>
    <property name="meta.media.0.codec.colorspace">709</property>
    <property name="meta.media.0.codec.color_trc">1</property>
    <property name="meta.media.0.codec.name">h264</property>
    <property name="meta.media.0.codec.long_name">H.264 / AVC / MPEG-4 AVC / MPEG-4 part 10</property>
    <property name="meta.media.0.codec.bit_rate">2499920</property>
    <property name="meta.attr.0.stream.handler_name.markup">VideoHandler</property>
    <property name="meta.attr.0.stream.vendor_id.markup">[0][0][0][0]</property>
    <property name="meta.media.1.stream.type">audio</property>
    <property name="meta.media.1.codec.sample_fmt">fltp</property>
    <property name="meta.media.1.codec.sample_rate">48000</property>
    <property name="meta.media.1.codec.channels">2</property>
    <property name="meta.media.1.codec.layout">stereo</property>
    <property name="meta.media.1.codec.name">aac</property>
    <property name="meta.media.1.codec.long_name">AAC (Advanced Audio Coding)</property>
    <property name="meta.media.1.codec.bit_rate">160000</property>
    <property name="meta.attr.1.stream.handler_name.markup">SoundHandler</property>
    <property name="meta.attr.1.stream.vendor_id.markup">[0][0][0][0]</property>
    <property name="meta.attr.major_brand.markup">isom</property>
    <property name="meta.attr.minor_version.markup">512</property>
    <property name="meta.attr.compatible_brands.markup">isomiso2avc1mp41</property>
    <property name="meta.attr.encoder.markup">Lavf61.7.100</property>
    <property name="seekable">1</property>
    <property name="meta.media.sample_aspect_num">1</property>
    <property name="meta.media.sample_aspect_den">1</property>
    <property name="format">3</property>
    <property name="audio_index">1</property>
    <property name="video_index">0</property>
    <property name="creation_time">2025-09-05T07:26:05</property>
    <property name="vstream">0</property>
    <property name="meta.media.frame_rate_num">60</property>
    <property name="meta.media.frame_rate_den">1</property>
    <property name="meta.media.colorspace">709</property>
    <property name="meta.media.color_trc">1</property>
    <property name="meta.media.has_b_frames">2</property>
    <property name="meta.media.width">1280</property>
    <property name="meta.media.height">720</property>
    <property name="meta.media.aspect_ratio">1</property>
    <property name="meta.media.color_range">mpeg</property>
    <property name="astream">0</property>
    <property name="shotcut:skipConvert">1</property>
    <property name="shotcut:hash">bd890b517aa4c7b0dae380f8236f6d81</property>
    <property name="meta.media.top_field_first">0</property>
    <property name="meta.media.progressive">1</property>
    <property name="shotcut:caption">2025-09-05 14-18-33.mp4</property>
    <property name="xml">was here</property>
  </chain>
  <chain id="chain4" out="00:07:31.433">
    <property name="length">00:07:31.450</property>
    <property name="eof">pause</property>
    <property name="resource">/home/jame/Videos/lab 2/2025-09-05 14-18-33.mp4</property>
    <property name="mlt_service">avformat-novalidate</property>
    <property name="meta.media.nb_streams">2</property>
    <property name="meta.media.0.stream.type">video</property>
    <property name="meta.media.0.stream.frame_rate">60</property>
    <property name="meta.media.0.stream.sample_aspect_ratio">0</property>
    <property name="meta.media.0.codec.width">1280</property>
    <property name="meta.media.0.codec.height">720</property>
    <property name="meta.media.0.codec.rotate">0</property>
    <property name="meta.media.0.codec.pix_fmt">yuv420p</property>
    <property name="meta.media.0.codec.sample_aspect_ratio">1</property>
    <property name="meta.media.0.codec.colorspace">709</property>
    <property name="meta.media.0.codec.color_trc">1</property>
    <property name="meta.media.0.codec.name">h264</property>
    <property name="meta.media.0.codec.long_name">H.264 / AVC / MPEG-4 AVC / MPEG-4 part 10</property>
    <property name="meta.media.0.codec.bit_rate">2499920</property>
    <property name="meta.attr.0.stream.handler_name.markup">VideoHandler</property>
    <property name="meta.attr.0.stream.vendor_id.markup">[0][0][0][0]</property>
    <property name="meta.media.1.stream.type">audio</property>
    <property name="meta.media.1.codec.sample_fmt">fltp</property>
    <property name="meta.media.1.codec.sample_rate">48000</property>
    <property name="meta.media.1.codec.channels">2</property>
    <property name="meta.media.1.codec.layout">stereo</property>
    <property name="meta.media.1.codec.name">aac</property>
    <property name="meta.media.1.codec.long_name">AAC (Advanced Audio Coding)</property>
    <property name="meta.media.1.codec.bit_rate">160000</property>
    <property name="meta.attr.1.stream.handler_name.markup">SoundHandler</property>
    <property name="meta.attr.1.stream.vendor_id.markup">[0][0][0][0]</property>
    <property name="meta.attr.major_brand.markup">isom</property>
    <property name="meta.attr.minor_version.markup">512</property>
    <property name="meta.attr.compatible_brands.markup">isomiso2avc1mp41</property>
    <property name="meta.attr.encoder.markup">Lavf61.7.100</property>
    <property name="seekable">1</property>
    <property name="meta.media.sample_aspect_num">1</property>
    <property name="meta.media.sample_aspect_den">1</property>
    <property name="format">3</property>
    <property name="audio_index">1</property>
    <property name="video_index">0</property>
    <property name="creation_time">2025-09-05T07:26:05</property>
    <property name="vstream">0</property>
    <property name="meta.media.frame_rate_num">60</property>
    <property name="meta.media.frame_rate_den">1</property>
    <property name="meta.media.colorspace">709</property>
    <property name="meta.media.color_trc">1</property>
    <property name="meta.media.has_b_frames">2</property>
    <property name="meta.media.width">1280</property>
    <property name="meta.media.height">720</property>
    <property name="meta.media.aspect_ratio">1</property>
    <property name="meta.media.color_range">mpeg</property>
    <property name="astream">0</property>
    <property name="shotcut:skipConvert">1</property>
    <property name="shotcut:hash">bd890b517aa4c7b0dae380f8236f6d81</property>
    <property name="meta.media.top_field_first">0</property>
    <property name="meta.media.progressive">1</property>
    <property name="shotcut:caption">2025-09-05 14-18-33.mp4</property>
    <property name="xml">was here</property>
  </chain>
  <chain id="chain5" out="00:13:08.167">
    <property name="length">00:13:08.183</property>
    <property name="eof">pause</property>
    <property name="resource">/home/jame/Videos/lab 2/2025-09-05 14-40-19.mp4</property>
    <property name="mlt_service">avformat-novalidate</property>
    <property name="meta.media.nb_streams">2</property>
    <property name="meta.media.0.stream.type">video</property>
    <property name="meta.media.0.stream.frame_rate">60</property>
    <property name="meta.media.0.stream.sample_aspect_ratio">0</property>
    <property name="meta.media.0.codec.width">1280</property>
    <property name="meta.media.0.codec.height">720</property>
    <property name="meta.media.0.codec.rotate">0</property>
    <property name="meta.media.0.codec.pix_fmt">yuv420p</property>
    <property name="meta.media.0.codec.sample_aspect_ratio">1</property>
    <property name="meta.media.0.codec.colorspace">709</property>
    <property name="meta.media.0.codec.color_trc">1</property>
    <property name="meta.media.0.codec.name">h264</property>
    <property name="meta.media.0.codec.long_name">H.264 / AVC / MPEG-4 AVC / MPEG-4 part 10</property>
    <property name="meta.media.0.codec.bit_rate">2500086</property>
    <property name="meta.attr.0.stream.handler_name.markup">VideoHandler</property>
    <property name="meta.attr.0.stream.vendor_id.markup">[0][0][0][0]</property>
    <property name="meta.media.1.stream.type">audio</property>
    <property name="meta.media.1.codec.sample_fmt">fltp</property>
    <property name="meta.media.1.codec.sample_rate">48000</property>
    <property name="meta.media.1.codec.channels">2</property>
    <property name="meta.media.1.codec.layout">stereo</property>
    <property name="meta.media.1.codec.name">aac</property>
    <property name="meta.media.1.codec.long_name">AAC (Advanced Audio Coding)</property>
    <property name="meta.media.1.codec.bit_rate">160000</property>
    <property name="meta.attr.1.stream.handler_name.markup">SoundHandler</property>
    <property name="meta.attr.1.stream.vendor_id.markup">[0][0][0][0]</property>
    <property name="meta.attr.major_brand.markup">isom</property>
    <property name="meta.attr.minor_version.markup">512</property>
    <property name="meta.attr.compatible_brands.markup">isomiso2avc1mp41</property>
    <property name="meta.attr.encoder.markup">Lavf61.7.100</property>
    <property name="seekable">1</property>
    <property name="meta.media.sample_aspect_num">1</property>
    <property name="meta.media.sample_aspect_den">1</property>
    <property name="format">3</property>
    <property name="audio_index">1</property>
    <property name="video_index">0</property>
    <property name="creation_time">2025-09-05T07:53:28</property>
    <property name="vstream">0</property>
    <property name="meta.media.frame_rate_num">60</property>
    <property name="meta.media.frame_rate_den">1</property>
    <property name="meta.media.colorspace">709</property>
    <property name="meta.media.color_trc">1</property>
    <property name="meta.media.has_b_frames">2</property>
    <property name="meta.media.width">1280</property>
    <property name="meta.media.height">720</property>
    <property name="meta.media.aspect_ratio">1</property>
    <property name="meta.media.color_range">mpeg</property>
    <property name="astream">0</property>
    <property name="shotcut:skipConvert">1</property>
    <property name="shotcut:hash">b9a15f63669377272b7891d225f09735</property>
    <property name="meta.media.top_field_first">0</property>
    <property name="meta.media.progressive">1</property>
    <property name="shotcut:caption">2025-09-05 14-40-19.mp4</property>
    <property name="xml">was here</property>
  </chain>
  <chain id="chain6" out="00:13:08.167">
    <property name="length">00:13:08.183</property>
    <property name="eof">pause</property>
    <property name="resource">/home/jame/Videos/lab 2/2025-09-05 14-40-19.mp4</property>
    <property name="mlt_service">avformat-novalidate</property>
    <property name="meta.media.nb_streams">2</property>
    <property name="meta.media.0.stream.type">video</property>
    <property name="meta.media.0.stream.frame_rate">60</property>
    <property name="meta.media.0.stream.sample_aspect_ratio">0</property>
    <property name="meta.media.0.codec.width">1280</property>
    <property name="meta.media.0.codec.height">720</property>
    <property name="meta.media.0.codec.rotate">0</property>
    <property name="meta.media.0.codec.pix_fmt">yuv420p</property>
    <property name="meta.media.0.codec.sample_aspect_ratio">1</property>
    <property name="meta.media.0.codec.colorspace">709</property>
    <property name="meta.media.0.codec.color_trc">1</property>
    <property name="meta.media.0.codec.name">h264</property>
    <property name="meta.media.0.codec.long_name">H.264 / AVC / MPEG-4 AVC / MPEG-4 part 10</property>
    <property name="meta.media.0.codec.bit_rate">2500086</property>
    <property name="meta.attr.0.stream.handler_name.markup">VideoHandler</property>
    <property name="meta.attr.0.stream.vendor_id.markup">[0][0][0][0]</property>
    <property name="meta.media.1.stream.type">audio</property>
    <property name="meta.media.1.codec.sample_fmt">fltp</property>
    <property name="meta.media.1.codec.sample_rate">48000</property>
    <property name="meta.media.1.codec.channels">2</property>
    <property name="meta.media.1.codec.layout">stereo</property>
    <property name="meta.media.1.codec.name">aac</property>
    <property name="meta.media.1.codec.long_name">AAC (Advanced Audio Coding)</property>
    <property name="meta.media.1.codec.bit_rate">160000</property>
    <property name="meta.attr.1.stream.handler_name.markup">SoundHandler</property>
    <property name="meta.attr.1.stream.vendor_id.markup">[0][0][0][0]</property>
    <property name="meta.attr.major_brand.markup">isom</property>
    <property name="meta.attr.minor_version.markup">512</property>
    <property name="meta.attr.compatible_brands.markup">isomiso2avc1mp41</property>
    <property name="meta.attr.encoder.markup">Lavf61.7.100</property>
    <property name="seekable">1</property>
    <property name="meta.media.sample_aspect_num">1</property>
    <property name="meta.media.sample_aspect_den">1</property>
    <property name="format">3</property>
    <property name="audio_index">1</property>
    <property name="video_index">0</property>
    <property name="creation_time">2025-09-05T07:53:28</property>
    <property name="vstream">0</property>
    <property name="meta.media.frame_rate_num">60</property>
    <property name="meta.media.frame_rate_den">1</property>
    <property name="meta.media.colorspace">709</property>
    <property name="meta.media.color_trc">1</property>
    <property name="meta.media.has_b_frames">2</property>
    <property name="meta.media.width">1280</property>
    <property name="meta.media.height">720</property>
    <property name="meta.media.aspect_ratio">1</property>
    <property name="meta.media.color_range">mpeg</property>
    <property name="astream">0</property>
    <property name="shotcut:skipConvert">1</property>
    <property name="shotcut:hash">b9a15f63669377272b7891d225f09735</property>
    <property name="meta.media.top_field_first">0</property>
    <property name="meta.media.progressive">1</property>
    <property name="shotcut:caption">2025-09-05 14-40-19.mp4</property>
    <property name="xml">was here</property>
  </chain>
  <chain id="chain7" out="00:13:08.167">
    <property name="length">00:13:08.183</property>
    <property name="eof">pause</property>
    <property name="resource">/home/jame/Videos/lab 2/2025-09-05 14-40-19.mp4</property>
    <property name="mlt_service">avformat-novalidate</property>
    <property name="meta.media.nb_streams">2</property>
    <property name="meta.media.0.stream.type">video</property>
    <property name="meta.media.0.stream.frame_rate">60</property>
    <property name="meta.media.0.stream.sample_aspect_ratio">0</property>
    <property name="meta.media.0.codec.width">1280</property>
    <property name="meta.media.0.codec.height">720</property>
    <property name="meta.media.0.codec.rotate">0</property>
    <property name="meta.media.0.codec.pix_fmt">yuv420p</property>
    <property name="meta.media.0.codec.sample_aspect_ratio">1</property>
    <property name="meta.media.0.codec.colorspace">709</property>
    <property name="meta.media.0.codec.color_trc">1</property>
    <property name="meta.media.0.codec.name">h264</property>
    <property name="meta.media.0.codec.long_name">H.264 / AVC / MPEG-4 AVC / MPEG-4 part 10</property>
    <property name="meta.media.0.codec.bit_rate">2500086</property>
    <property name="meta.attr.0.stream.handler_name.markup">VideoHandler</property>
    <property name="meta.attr.0.stream.vendor_id.markup">[0][0][0][0]</property>
    <property name="meta.media.1.stream.type">audio</property>
    <property name="meta.media.1.codec.sample_fmt">fltp</property>
    <property name="meta.media.1.codec.sample_rate">48000</property>
    <property name="meta.media.1.codec.channels">2</property>
    <property name="meta.media.1.codec.layout">stereo</property>
    <property name="meta.media.1.codec.name">aac</property>
    <property name="meta.media.1.codec.long_name">AAC (Advanced Audio Coding)</property>
    <property name="meta.media.1.codec.bit_rate">160000</property>
    <property name="meta.attr.1.stream.handler_name.markup">SoundHandler</property>
    <property name="meta.attr.1.stream.vendor_id.markup">[0][0][0][0]</property>
    <property name="meta.attr.major_brand.markup">isom</property>
    <property name="meta.attr.minor_version.markup">512</property>
    <property name="meta.attr.compatible_brands.markup">isomiso2avc1mp41</property>
    <property name="meta.attr.encoder.markup">Lavf61.7.100</property>
    <property name="seekable">1</property>
    <property name="meta.media.sample_aspect_num">1</property>
    <property name="meta.media.sample_aspect_den">1</property>
    <property name="format">3</property>
    <property name="audio_index">1</property>
    <property name="video_index">0</property>
    <property name="creation_time">2025-09-05T07:53:28</property>
    <property name="vstream">0</property>
    <property name="meta.media.frame_rate_num">60</property>
    <property name="meta.media.frame_rate_den">1</property>
    <property name="meta.media.colorspace">709</property>
    <property name="meta.media.color_trc">1</property>
    <property name="meta.media.has_b_frames">2</property>
    <property name="meta.media.width">1280</property>
    <property name="meta.media.height">720</property>
    <property name="meta.media.aspect_ratio">1</property>
    <property name="meta.media.color_range">mpeg</property>
    <property name="astream">0</property>
    <property name="shotcut:skipConvert">1</property>
    <property name="shotcut:hash">b9a15f63669377272b7891d225f09735</property>
    <property name="meta.media.top_field_first">0</property>
    <property name="meta.media.progressive">1</property>
    <property name="shotcut:caption">2025-09-05 14-40-19.mp4</property>
    <property name="xml">was here</property>
    <filter id="filter1" in="00:03:39.267" out="00:04:23.733">
      <property name="window">75</property>
      <property name="max_gain">20dB</property>
      <property name="level">10</property>
      <property name="mlt_service">volume</property>
      <property name="shotcut:filter">audioGain</property>
    </filter>
  </chain>
  <chain id="chain8" out="00:13:08.167">
    <property name="length">00:13:08.183</property>
    <property name="eof">pause</property>
    <property name="resource">/home/jame/Videos/lab 2/2025-09-05 14-40-19.mp4</property>
    <property name="mlt_service">avformat-novalidate</property>
    <property name="meta.media.nb_streams">2</property>
    <property name="meta.media.0.stream.type">video</property>
    <property name="meta.media.0.stream.frame_rate">60</property>
    <property name="meta.media.0.stream.sample_aspect_ratio">0</property>
    <property name="meta.media.0.codec.width">1280</property>
    <property name="meta.media.0.codec.height">720</property>
    <property name="meta.media.0.codec.rotate">0</property>
    <property name="meta.media.0.codec.pix_fmt">yuv420p</property>
    <property name="meta.media.0.codec.sample_aspect_ratio">1</property>
    <property name="meta.media.0.codec.colorspace">709</property>
    <property name="meta.media.0.codec.color_trc">1</property>
    <property name="meta.media.0.codec.name">h264</property>
    <property name="meta.media.0.codec.long_name">H.264 / AVC / MPEG-4 AVC / MPEG-4 part 10</property>
    <property name="meta.media.0.codec.bit_rate">2500086</property>
    <property name="meta.attr.0.stream.handler_name.markup">VideoHandler</property>
    <property name="meta.attr.0.stream.vendor_id.markup">[0][0][0][0]</property>
    <property name="meta.media.1.stream.type">audio</property>
    <property name="meta.media.1.codec.sample_fmt">fltp</property>
    <property name="meta.media.1.codec.sample_rate">48000</property>
    <property name="meta.media.1.codec.channels">2</property>
    <property name="meta.media.1.codec.layout">stereo</property>
    <property name="meta.media.1.codec.name">aac</property>
    <property name="meta.media.1.codec.long_name">AAC (Advanced Audio Coding)</property>
    <property name="meta.media.1.codec.bit_rate">160000</property>
    <property name="meta.attr.1.stream.handler_name.markup">SoundHandler</property>
    <property name="meta.attr.1.stream.vendor_id.markup">[0][0][0][0]</property>
    <property name="meta.attr.major_brand.markup">isom</property>
    <property name="meta.attr.minor_version.markup">512</property>
    <property name="meta.attr.compatible_brands.markup">isomiso2avc1mp41</property>
    <property name="meta.attr.encoder.markup">Lavf61.7.100</property>
    <property name="seekable">1</property>
    <property name="meta.media.sample_aspect_num">1</property>
    <property name="meta.media.sample_aspect_den">1</property>
    <property name="format">3</property>
    <property name="audio_index">1</property>
    <property name="video_index">0</property>
    <property name="creation_time">2025-09-05T07:53:28</property>
    <property name="vstream">0</property>
    <property name="meta.media.frame_rate_num">60</property>
    <property name="meta.media.frame_rate_den">1</property>
    <property name="meta.media.colorspace">709</property>
    <property name="meta.media.color_trc">1</property>
    <property name="meta.media.has_b_frames">2</property>
    <property name="meta.media.width">1280</property>
    <property name="meta.media.height">720</property>
    <property name="meta.media.aspect_ratio">1</property>
    <property name="meta.media.color_range">mpeg</property>
    <property name="astream">0</property>
    <property name="shotcut:skipConvert">1</property>
    <property name="shotcut:hash">b9a15f63669377272b7891d225f09735</property>
    <property name="meta.media.top_field_first">0</property>
    <property name="meta.media.progressive">1</property>
    <property name="shotcut:caption">2025-09-05 14-40-19.mp4</property>
    <property name="xml">was here</property>
    <filter id="filter2" in="00:04:32.450" out="00:08:05.917">
      <property name="window">75</property>
      <property name="max_gain">20dB</property>
      <property name="level">10</property>
      <property name="mlt_service">volume</property>
      <property name="shotcut:filter">audioGain</property>
    </filter>
  </chain>
  <chain id="chain9" out="00:13:08.167">
    <property name="length">00:13:08.183</property>
    <property name="eof">pause</property>
    <property name="resource">/home/jame/Videos/lab 2/2025-09-05 14-40-19.mp4</property>
    <property name="mlt_service">avformat-novalidate</property>
    <property name="meta.media.nb_streams">2</property>
    <property name="meta.media.0.stream.type">video</property>
    <property name="meta.media.0.stream.frame_rate">60</property>
    <property name="meta.media.0.stream.sample_aspect_ratio">0</property>
    <property name="meta.media.0.codec.width">1280</property>
    <property name="meta.media.0.codec.height">720</property>
    <property name="meta.media.0.codec.rotate">0</property>
    <property name="meta.media.0.codec.pix_fmt">yuv420p</property>
    <property name="meta.media.0.codec.sample_aspect_ratio">1</property>
    <property name="meta.media.0.codec.colorspace">709</property>
    <property name="meta.media.0.codec.color_trc">1</property>
    <property name="meta.media.0.codec.name">h264</property>
    <property name="meta.media.0.codec.long_name">H.264 / AVC / MPEG-4 AVC / MPEG-4 part 10</property>
    <property name="meta.media.0.codec.bit_rate">2500086</property>
    <property name="meta.attr.0.stream.handler_name.markup">VideoHandler</property>
    <property name="meta.attr.0.stream.vendor_id.markup">[0][0][0][0]</property>
    <property name="meta.media.1.stream.type">audio</property>
    <property name="meta.media.1.codec.sample_fmt">fltp</property>
    <property name="meta.media.1.codec.sample_rate">48000</property>
    <property name="meta.media.1.codec.channels">2</property>
    <property name="meta.media.1.codec.layout">stereo</property>
    <property name="meta.media.1.codec.name">aac</property>
    <property name="meta.media.1.codec.long_name">AAC (Advanced Audio Coding)</property>
    <property name="meta.media.1.codec.bit_rate">160000</property>
    <property name="meta.attr.1.stream.handler_name.markup">SoundHandler</property>
    <property name="meta.attr.1.stream.vendor_id.markup">[0][0][0][0]</property>
    <property name="meta.attr.major_brand.markup">isom</property>
    <property name="meta.attr.minor_version.markup">512</property>
    <property name="meta.attr.compatible_brands.markup">isomiso2avc1mp41</property>
    <property name="meta.attr.encoder.markup">Lavf61.7.100</property>
    <property name="seekable">1</property>
    <property name="meta.media.sample_aspect_num">1</property>
    <property name="meta.media.sample_aspect_den">1</property>
    <property name="format">3</property>
    <property name="audio_index">1</property>
    <property name="video_index">0</property>
    <property name="creation_time">2025-09-05T07:53:28</property>
    <property name="vstream">0</property>
    <property name="meta.media.frame_rate_num">60</property>
    <property name="meta.media.frame_rate_den">1</property>
    <property name="meta.media.colorspace">709</property>
    <property name="meta.media.color_trc">1</property>
    <property name="meta.media.has_b_frames">2</property>
    <property name="meta.media.width">1280</property>
    <property name="meta.media.height">720</property>
    <property name="meta.media.aspect_ratio">1</property>
    <property name="meta.media.color_range">mpeg</property>
    <property name="astream">0</property>
    <property name="shotcut:skipConvert">1</property>
    <property name="shotcut:hash">b9a15f63669377272b7891d225f09735</property>
    <property name="meta.media.top_field_first">0</property>
    <property name="meta.media.progressive">1</property>
    <property name="shotcut:caption">2025-09-05 14-40-19.mp4</property>
    <property name="xml">was here</property>
    <filter id="filter3" in="00:08:38.417" out="00:10:25.017">
      <property name="window">75</property>
      <property name="max_gain">20dB</property>
      <property name="level">10</property>
      <property name="mlt_service">volume</property>
      <property name="shotcut:filter">audioGain</property>
    </filter>
  </chain>
  <chain id="chain10" out="00:13:08.167">
    <property name="length">00:13:08.183</property>
    <property name="eof">pause</property>
    <property name="resource">/home/jame/Videos/lab 2/2025-09-05 14-40-19.mp4</property>
    <property name="mlt_service">avformat-novalidate</property>
    <property name="meta.media.nb_streams">2</property>
    <property name="meta.media.0.stream.type">video</property>
    <property name="meta.media.0.stream.frame_rate">60</property>
    <property name="meta.media.0.stream.sample_aspect_ratio">0</property>
    <property name="meta.media.0.codec.width">1280</property>
    <property name="meta.media.0.codec.height">720</property>
    <property name="meta.media.0.codec.rotate">0</property>
    <property name="meta.media.0.codec.pix_fmt">yuv420p</property>
    <property name="meta.media.0.codec.sample_aspect_ratio">1</property>
    <property name="meta.media.0.codec.colorspace">709</property>
    <property name="meta.media.0.codec.color_trc">1</property>
    <property name="meta.media.0.codec.name">h264</property>
    <property name="meta.media.0.codec.long_name">H.264 / AVC / MPEG-4 AVC / MPEG-4 part 10</property>
    <property name="meta.media.0.codec.bit_rate">2500086</property>
    <property name="meta.attr.0.stream.handler_name.markup">VideoHandler</property>
    <property name="meta.attr.0.stream.vendor_id.markup">[0][0][0][0]</property>
    <property name="meta.media.1.stream.type">audio</property>
    <property name="meta.media.1.codec.sample_fmt">fltp</property>
    <property name="meta.media.1.codec.sample_rate">48000</property>
    <property name="meta.media.1.codec.channels">2</property>
    <property name="meta.media.1.codec.layout">stereo</property>
    <property name="meta.media.1.codec.name">aac</property>
    <property name="meta.media.1.codec.long_name">AAC (Advanced Audio Coding)</property>
    <property name="meta.media.1.codec.bit_rate">160000</property>
    <property name="meta.attr.1.stream.handler_name.markup">SoundHandler</property>
    <property name="meta.attr.1.stream.vendor_id.markup">[0][0][0][0]</property>
    <property name="meta.attr.major_brand.markup">isom</property>
    <property name="meta.attr.minor_version.markup">512</property>
    <property name="meta.attr.compatible_brands.markup">isomiso2avc1mp41</property>
    <property name="meta.attr.encoder.markup">Lavf61.7.100</property>
    <property name="seekable">1</property>
    <property name="meta.media.sample_aspect_num">1</property>
    <property name="meta.media.sample_aspect_den">1</property>
    <property name="format">3</property>
    <property name="audio_index">1</property>
    <property name="video_index">0</property>
    <property name="creation_time">2025-09-05T07:53:28</property>
    <property name="vstream">0</property>
    <property name="meta.media.frame_rate_num">60</property>
    <property name="meta.media.frame_rate_den">1</property>
    <property name="meta.media.colorspace">709</property>
    <property name="meta.media.color_trc">1</property>
    <property name="meta.media.has_b_frames">2</property>
    <property name="meta.media.width">1280</property>
    <property name="meta.media.height">720</property>
    <property name="meta.media.aspect_ratio">1</property>
    <property name="meta.media.color_range">mpeg</property>
    <property name="astream">0</property>
    <property name="shotcut:skipConvert">1</property>
    <property name="shotcut:hash">b9a15f63669377272b7891d225f09735</property>
    <property name="meta.media.top_field_first">0</property>
    <property name="meta.media.progressive">1</property>
    <property name="shotcut:caption">2025-09-05 14-40-19.mp4</property>
    <property name="xml">was here</property>
    <filter id="filter4" in="00:11:11.617" out="00:12:13.983">
      <property name="window">75</property>
      <property name="max_gain">20dB</property>
      <property name="level">10</property>
      <property name="mlt_service">volume</property>
      <property name="shotcut:filter">audioGain</property>
    </filter>
  </chain>
  <chain id="chain11" out="00:04:33.250">
    <property name="length">00:04:33.267</property>
    <property name="eof">pause</property>
    <property name="resource">/home/jame/Videos/lab 2/2025-09-05 14-53-32.mp4</property>
    <property name="mlt_service">avformat-novalidate</property>
    <property name="meta.media.nb_streams">2</property>
    <property name="meta.media.0.stream.type">video</property>
    <property name="meta.media.0.stream.frame_rate">60</property>
    <property name="meta.media.0.stream.sample_aspect_ratio">0</property>
    <property name="meta.media.0.codec.width">1280</property>
    <property name="meta.media.0.codec.height">720</property>
    <property name="meta.media.0.codec.rotate">0</property>
    <property name="meta.media.0.codec.pix_fmt">yuv420p</property>
    <property name="meta.media.0.codec.sample_aspect_ratio">1</property>
    <property name="meta.media.0.codec.colorspace">709</property>
    <property name="meta.media.0.codec.color_trc">1</property>
    <property name="meta.media.0.codec.name">h264</property>
    <property name="meta.media.0.codec.long_name">H.264 / AVC / MPEG-4 AVC / MPEG-4 part 10</property>
    <property name="meta.media.0.codec.bit_rate">2500179</property>
    <property name="meta.attr.0.stream.handler_name.markup">VideoHandler</property>
    <property name="meta.attr.0.stream.vendor_id.markup">[0][0][0][0]</property>
    <property name="meta.media.1.stream.type">audio</property>
    <property name="meta.media.1.codec.sample_fmt">fltp</property>
    <property name="meta.media.1.codec.sample_rate">48000</property>
    <property name="meta.media.1.codec.channels">2</property>
    <property name="meta.media.1.codec.layout">stereo</property>
    <property name="meta.media.1.codec.name">aac</property>
    <property name="meta.media.1.codec.long_name">AAC (Advanced Audio Coding)</property>
    <property name="meta.media.1.codec.bit_rate">160000</property>
    <property name="meta.attr.1.stream.handler_name.markup">SoundHandler</property>
    <property name="meta.attr.1.stream.vendor_id.markup">[0][0][0][0]</property>
    <property name="meta.attr.major_brand.markup">isom</property>
    <property name="meta.attr.minor_version.markup">512</property>
    <property name="meta.attr.compatible_brands.markup">isomiso2avc1mp41</property>
    <property name="meta.attr.encoder.markup">Lavf61.7.100</property>
    <property name="seekable">1</property>
    <property name="meta.media.sample_aspect_num">1</property>
    <property name="meta.media.sample_aspect_den">1</property>
    <property name="format">3</property>
    <property name="audio_index">1</property>
    <property name="video_index">0</property>
    <property name="creation_time">2025-09-05T07:58:06</property>
    <property name="vstream">0</property>
    <property name="meta.media.frame_rate_num">60</property>
    <property name="meta.media.frame_rate_den">1</property>
    <property name="meta.media.colorspace">709</property>
    <property name="meta.media.color_trc">1</property>
    <property name="meta.media.has_b_frames">2</property>
    <property name="meta.media.width">1280</property>
    <property name="meta.media.height">720</property>
    <property name="meta.media.aspect_ratio">1</property>
    <property name="meta.media.color_range">mpeg</property>
    <property name="astream">0</property>
    <property name="shotcut:skipConvert">1</property>
    <property name="shotcut:hash">93b4e1e690016495c4a73545bafc5445</property>
    <property name="meta.media.top_field_first">0</property>
    <property name="meta.media.progressive">1</property>
    <property name="shotcut:caption">2025-09-05 14-53-32.mp4</property>
    <property name="xml">was here</property>
  </chain>
  <chain id="chain12" out="00:04:33.250">
    <property name="length">00:04:33.267</property>
    <property name="eof">pause</property>
    <property name="resource">/home/jame/Videos/lab 2/2025-09-05 14-53-32.mp4</property>
    <property name="mlt_service">avformat-novalidate</property>
    <property name="meta.media.nb_streams">2</property>
    <property name="meta.media.0.stream.type">video</property>
    <property name="meta.media.0.stream.frame_rate">60</property>
    <property name="meta.media.0.stream.sample_aspect_ratio">0</property>
    <property name="meta.media.0.codec.width">1280</property>
    <property name="meta.media.0.codec.height">720</property>
    <property name="meta.media.0.codec.rotate">0</property>
    <property name="meta.media.0.codec.pix_fmt">yuv420p</property>
    <property name="meta.media.0.codec.sample_aspect_ratio">1</property>
    <property name="meta.media.0.codec.colorspace">709</property>
    <property name="meta.media.0.codec.color_trc">1</property>
    <property name="meta.media.0.codec.name">h264</property>
    <property name="meta.media.0.codec.long_name">H.264 / AVC / MPEG-4 AVC / MPEG-4 part 10</property>
    <property name="meta.media.0.codec.bit_rate">2500179</property>
    <property name="meta.attr.0.stream.handler_name.markup">VideoHandler</property>
    <property name="meta.attr.0.stream.vendor_id.markup">[0][0][0][0]</property>
    <property name="meta.media.1.stream.type">audio</property>
    <property name="meta.media.1.codec.sample_fmt">fltp</property>
    <property name="meta.media.1.codec.sample_rate">48000</property>
    <property name="meta.media.1.codec.channels">2</property>
    <property name="meta.media.1.codec.layout">stereo</property>
    <property name="meta.media.1.codec.name">aac</property>
    <property name="meta.media.1.codec.long_name">AAC (Advanced Audio Coding)</property>
    <property name="meta.media.1.codec.bit_rate">160000</property>
    <property name="meta.attr.1.stream.handler_name.markup">SoundHandler</property>
    <property name="meta.attr.1.stream.vendor_id.markup">[0][0][0][0]</property>
    <property name="meta.attr.major_brand.markup">isom</property>
    <property name="meta.attr.minor_version.markup">512</property>
    <property name="meta.attr.compatible_brands.markup">isomiso2avc1mp41</property>
    <property name="meta.attr.encoder.markup">Lavf61.7.100</property>
    <property name="seekable">1</property>
    <property name="meta.media.sample_aspect_num">1</property>
    <property name="meta.media.sample_aspect_den">1</property>
    <property name="format">3</property>
    <property name="audio_index">1</property>
    <property name="video_index">0</property>
    <property name="creation_time">2025-09-05T07:58:06</property>
    <property name="vstream">0</property>
    <property name="meta.media.frame_rate_num">60</property>
    <property name="meta.media.frame_rate_den">1</property>
    <property name="meta.media.colorspace">709</property>
    <property name="meta.media.color_trc">1</property>
    <property name="meta.media.has_b_frames">2</property>
    <property name="meta.media.width">1280</property>
    <property name="meta.media.height">720</property>
    <property name="meta.media.aspect_ratio">1</property>
    <property name="meta.media.color_range">mpeg</property>
    <property name="astream">0</property>
    <property name="shotcut:skipConvert">1</property>
    <property name="shotcut:hash">93b4e1e690016495c4a73545bafc5445</property>
    <property name="meta.media.top_field_first">0</property>
    <property name="meta.media.progressive">1</property>
    <property name="shotcut:caption">2025-09-05 14-53-32.mp4</property>
    <property name="xml">was here</property>
  </chain>
  <chain id="chain13" out="00:01:40.583">
    <property name="length">00:01:40.600</property>
    <property name="eof">pause</property>
    <property name="resource">/home/jame/Videos/lab 2/2025-09-05 14-59-05.mp4</property>
    <property name="mlt_service">avformat-novalidate</property>
    <property name="meta.media.nb_streams">2</property>
    <property name="meta.media.0.stream.type">video</property>
    <property name="meta.media.0.stream.frame_rate">60</property>
    <property name="meta.media.0.stream.sample_aspect_ratio">0</property>
    <property name="meta.media.0.codec.width">1280</property>
    <property name="meta.media.0.codec.height">720</property>
    <property name="meta.media.0.codec.rotate">0</property>
    <property name="meta.media.0.codec.pix_fmt">yuv420p</property>
    <property name="meta.media.0.codec.sample_aspect_ratio">1</property>
    <property name="meta.media.0.codec.colorspace">709</property>
    <property name="meta.media.0.codec.color_trc">1</property>
    <property name="meta.media.0.codec.name">h264</property>
    <property name="meta.media.0.codec.long_name">H.264 / AVC / MPEG-4 AVC / MPEG-4 part 10</property>
    <property name="meta.media.0.codec.bit_rate">2497963</property>
    <property name="meta.attr.0.stream.handler_name.markup">VideoHandler</property>
    <property name="meta.attr.0.stream.vendor_id.markup">[0][0][0][0]</property>
    <property name="meta.media.1.stream.type">audio</property>
    <property name="meta.media.1.codec.sample_fmt">fltp</property>
    <property name="meta.media.1.codec.sample_rate">48000</property>
    <property name="meta.media.1.codec.channels">2</property>
    <property name="meta.media.1.codec.layout">stereo</property>
    <property name="meta.media.1.codec.name">aac</property>
    <property name="meta.media.1.codec.long_name">AAC (Advanced Audio Coding)</property>
    <property name="meta.media.1.codec.bit_rate">160000</property>
    <property name="meta.attr.1.stream.handler_name.markup">SoundHandler</property>
    <property name="meta.attr.1.stream.vendor_id.markup">[0][0][0][0]</property>
    <property name="meta.attr.major_brand.markup">isom</property>
    <property name="meta.attr.minor_version.markup">512</property>
    <property name="meta.attr.compatible_brands.markup">isomiso2avc1mp41</property>
    <property name="meta.attr.encoder.markup">Lavf61.7.100</property>
    <property name="seekable">1</property>
    <property name="meta.media.sample_aspect_num">1</property>
    <property name="meta.media.sample_aspect_den">1</property>
    <property name="format">3</property>
    <property name="audio_index">1</property>
    <property name="video_index">0</property>
    <property name="creation_time">2025-09-05T08:00:50</property>
    <property name="vstream">0</property>
    <property name="meta.media.frame_rate_num">60</property>
    <property name="meta.media.frame_rate_den">1</property>
    <property name="meta.media.colorspace">709</property>
    <property name="meta.media.color_trc">1</property>
    <property name="meta.media.has_b_frames">2</property>
    <property name="meta.media.width">1280</property>
    <property name="meta.media.height">720</property>
    <property name="meta.media.aspect_ratio">1</property>
    <property name="meta.media.color_range">mpeg</property>
    <property name="astream">0</property>
    <property name="shotcut:skipConvert">1</property>
    <property name="shotcut:hash">1f568e27cfe7620b1ad251af2e879990</property>
    <property name="meta.media.top_field_first">0</property>
    <property name="meta.media.progressive">1</property>
    <property name="shotcut:caption">2025-09-05 14-59-05.mp4</property>
    <property name="xml">was here</property>
  </chain>
  <chain id="chain14" out="00:01:40.583">
    <property name="length">00:01:40.600</property>
    <property name="eof">pause</property>
    <property name="resource">/home/jame/Videos/lab 2/2025-09-05 14-59-05.mp4</property>
    <property name="mlt_service">avformat-novalidate</property>
    <property name="meta.media.nb_streams">2</property>
    <property name="meta.media.0.stream.type">video</property>
    <property name="meta.media.0.stream.frame_rate">60</property>
    <property name="meta.media.0.stream.sample_aspect_ratio">0</property>
    <property name="meta.media.0.codec.width">1280</property>
    <property name="meta.media.0.codec.height">720</property>
    <property name="meta.media.0.codec.rotate">0</property>
    <property name="meta.media.0.codec.pix_fmt">yuv420p</property>
    <property name="meta.media.0.codec.sample_aspect_ratio">1</property>
    <property name="meta.media.0.codec.colorspace">709</property>
    <property name="meta.media.0.codec.color_trc">1</property>
    <property name="meta.media.0.codec.name">h264</property>
    <property name="meta.media.0.codec.long_name">H.264 / AVC / MPEG-4 AVC / MPEG-4 part 10</property>
    <property name="meta.media.0.codec.bit_rate">2497963</property>
    <property name="meta.attr.0.stream.handler_name.markup">VideoHandler</property>
    <property name="meta.attr.0.stream.vendor_id.markup">[0][0][0][0]</property>
    <property name="meta.media.1.stream.type">audio</property>
    <property name="meta.media.1.codec.sample_fmt">fltp</property>
    <property name="meta.media.1.codec.sample_rate">48000</property>
    <property name="meta.media.1.codec.channels">2</property>
    <property name="meta.media.1.codec.layout">stereo</property>
    <property name="meta.media.1.codec.name">aac</property>
    <property name="meta.media.1.codec.long_name">AAC (Advanced Audio Coding)</property>
    <property name="meta.media.1.codec.bit_rate">160000</property>
    <property name="meta.attr.1.stream.handler_name.markup">SoundHandler</property>
    <property name="meta.attr.1.stream.vendor_id.markup">[0][0][0][0]</property>
    <property name="meta.attr.major_brand.markup">isom</property>
    <property name="meta.attr.minor_version.markup">512</property>
    <property name="meta.attr.compatible_brands.markup">isomiso2avc1mp41</property>
    <property name="meta.attr.encoder.markup">Lavf61.7.100</property>
    <property name="seekable">1</property>
    <property name="meta.media.sample_aspect_num">1</property>
    <property name="meta.media.sample_aspect_den">1</property>
    <property name="format">3</property>
    <property name="audio_index">1</property>
    <property name="video_index">0</property>
    <property name="creation_time">2025-09-05T08:00:50</property>
    <property name="vstream">0</property>
    <property name="meta.media.frame_rate_num">60</property>
    <property name="meta.media.frame_rate_den">1</property>
    <property name="meta.media.colorspace">709</property>
    <property name="meta.media.color_trc">1</property>
    <property name="meta.media.has_b_frames">2</property>
    <property name="meta.media.width">1280</property>
    <property name="meta.media.height">720</property>
    <property name="meta.media.aspect_ratio">1</property>
    <property name="meta.media.color_range">mpeg</property>
    <property name="astream">0</property>
    <property name="shotcut:skipConvert">1</property>
    <property name="shotcut:hash">1f568e27cfe7620b1ad251af2e879990</property>
    <property name="meta.media.top_field_first">0</property>
    <property name="meta.media.progressive">1</property>
    <property name="shotcut:caption">2025-09-05 14-59-05.mp4</property>
    <property name="xml">was here</property>
  </chain>
  <chain id="chain15" out="00:01:40.583">
    <property name="length">00:01:40.600</property>
    <property name="eof">pause</property>
    <property name="resource">/home/jame/Videos/lab 2/2025-09-05 14-59-05.mp4</property>
    <property name="mlt_service">avformat-novalidate</property>
    <property name="meta.media.nb_streams">2</property>
    <property name="meta.media.0.stream.type">video</property>
    <property name="meta.media.0.stream.frame_rate">60</property>
    <property name="meta.media.0.stream.sample_aspect_ratio">0</property>
    <property name="meta.media.0.codec.width">1280</property>
    <property name="meta.media.0.codec.height">720</property>
    <property name="meta.media.0.codec.rotate">0</property>
    <property name="meta.media.0.codec.pix_fmt">yuv420p</property>
    <property name="meta.media.0.codec.sample_aspect_ratio">1</property>
    <property name="meta.media.0.codec.colorspace">709</property>
    <property name="meta.media.0.codec.color_trc">1</property>
    <property name="meta.media.0.codec.name">h264</property>
    <property name="meta.media.0.codec.long_name">H.264 / AVC / MPEG-4 AVC / MPEG-4 part 10</property>
    <property name="meta.media.0.codec.bit_rate">2497963</property>
    <property name="meta.attr.0.stream.handler_name.markup">VideoHandler</property>
    <property name="meta.attr.0.stream.vendor_id.markup">[0][0][0][0]</property>
    <property name="meta.media.1.stream.type">audio</property>
    <property name="meta.media.1.codec.sample_fmt">fltp</property>
    <property name="meta.media.1.codec.sample_rate">48000</property>
    <property name="meta.media.1.codec.channels">2</property>
    <property name="meta.media.1.codec.layout">stereo</property>
    <property name="meta.media.1.codec.name">aac</property>
    <property name="meta.media.1.codec.long_name">AAC (Advanced Audio Coding)</property>
    <property name="meta.media.1.codec.bit_rate">160000</property>
    <property name="meta.attr.1.stream.handler_name.markup">SoundHandler</property>
    <property name="meta.attr.1.stream.vendor_id.markup">[0][0][0][0]</property>
    <property name="meta.attr.major_brand.markup">isom</property>
    <property name="meta.attr.minor_version.markup">512</property>
    <property name="meta.attr.compatible_brands.markup">isomiso2avc1mp41</property>
    <property name="meta.attr.encoder.markup">Lavf61.7.100</property>
    <property name="seekable">1</property>
    <property name="meta.media.sample_aspect_num">1</property>
    <property name="meta.media.sample_aspect_den">1</property>
    <property name="format">3</property>
    <property name="audio_index">1</property>
    <property name="video_index">0</property>
    <property name="creation_time">2025-09-05T08:00:50</property>
    <property name="vstream">0</property>
    <property name="meta.media.frame_rate_num">60</property>
    <property name="meta.media.frame_rate_den">1</property>
    <property name="meta.media.colorspace">709</property>
    <property name="meta.media.color_trc">1</property>
    <property name="meta.media.has_b_frames">2</property>
    <property name="meta.media.width">1280</property>
    <property name="meta.media.height">720</property>
    <property name="meta.media.aspect_ratio">1</property>
    <property name="meta.media.color_range">mpeg</property>
    <property name="astream">0</property>
    <property name="shotcut:skipConvert">1</property>
    <property name="shotcut:hash">1f568e27cfe7620b1ad251af2e879990</property>
    <property name="meta.media.top_field_first">0</property>
    <property name="meta.media.progressive">1</property>
    <property name="shotcut:caption">2025-09-05 14-59-05.mp4</property>
    <property name="xml">was here</property>
  </chain>
  <chain id="chain16" out="00:01:40.583">
    <property name="length">00:01:40.600</property>
    <property name="eof">pause</property>
    <property name="resource">/home/jame/Videos/lab 2/2025-09-05 14-59-05.mp4</property>
    <property name="mlt_service">avformat-novalidate</property>
    <property name="meta.media.nb_streams">2</property>
    <property name="meta.media.0.stream.type">video</property>
    <property name="meta.media.0.stream.frame_rate">60</property>
    <property name="meta.media.0.stream.sample_aspect_ratio">0</property>
    <property name="meta.media.0.codec.width">1280</property>
    <property name="meta.media.0.codec.height">720</property>
    <property name="meta.media.0.codec.rotate">0</property>
    <property name="meta.media.0.codec.pix_fmt">yuv420p</property>
    <property name="meta.media.0.codec.sample_aspect_ratio">1</property>
    <property name="meta.media.0.codec.colorspace">709</property>
    <property name="meta.media.0.codec.color_trc">1</property>
    <property name="meta.media.0.codec.name">h264</property>
    <property name="meta.media.0.codec.long_name">H.264 / AVC / MPEG-4 AVC / MPEG-4 part 10</property>
    <property name="meta.media.0.codec.bit_rate">2497963</property>
    <property name="meta.attr.0.stream.handler_name.markup">VideoHandler</property>
    <property name="meta.attr.0.stream.vendor_id.markup">[0][0][0][0]</property>
    <property name="meta.media.1.stream.type">audio</property>
    <property name="meta.media.1.codec.sample_fmt">fltp</property>
    <property name="meta.media.1.codec.sample_rate">48000</property>
    <property name="meta.media.1.codec.channels">2</property>
    <property name="meta.media.1.codec.layout">stereo</property>
    <property name="meta.media.1.codec.name">aac</property>
    <property name="meta.media.1.codec.long_name">AAC (Advanced Audio Coding)</property>
    <property name="meta.media.1.codec.bit_rate">160000</property>
    <property name="meta.attr.1.stream.handler_name.markup">SoundHandler</property>
    <property name="meta.attr.1.stream.vendor_id.markup">[0][0][0][0]</property>
    <property name="meta.attr.major_brand.markup">isom</property>
    <property name="meta.attr.minor_version.markup">512</property>
    <property name="meta.attr.compatible_brands.markup">isomiso2avc1mp41</property>
    <property name="meta.attr.encoder.markup">Lavf61.7.100</property>
    <property name="seekable">1</property>
    <property name="meta.media.sample_aspect_num">1</property>
    <property name="meta.media.sample_aspect_den">1</property>
    <property name="format">3</property>
    <property name="audio_index">1</property>
    <property name="video_index">0</property>
    <property name="creation_time">2025-09-05T08:00:50</property>
    <property name="vstream">0</property>
    <property name="meta.media.frame_rate_num">60</property>
    <property name="meta.media.frame_rate_den">1</property>
    <property name="meta.media.colorspace">709</property>
    <property name="meta.media.color_trc">1</property>
    <property name="meta.media.has_b_frames">2</property>
    <property name="meta.media.width">1280</property>
    <property name="meta.media.height">720</property>
    <property name="meta.media.aspect_ratio">1</property>
    <property name="meta.media.color_range">mpeg</property>
    <property name="astream">0</property>
    <property name="shotcut:skipConvert">1</property>
    <property name="shotcut:hash">1f568e27cfe7620b1ad251af2e879990</property>
    <property name="meta.media.top_field_first">0</property>
    <property name="meta.media.progressive">1</property>
    <property name="shotcut:caption">2025-09-05 14-59-05.mp4</property>
    <property name="xml">was here</property>
    <filter id="filter5" in="00:01:35.683" out="00:01:39.000">
      <property name="window">75</property>
      <property name="max_gain">20dB</property>
      <property name="level">10</property>
      <property name="mlt_service">volume</property>
      <property name="shotcut:filter">audioGain</property>
    </filter>
  </chain>
  <chain id="chain17" out="00:01:40.583">
    <property name="length">00:01:40.600</property>
    <property name="eof">pause</property>
    <property name="resource">/home/jame/Videos/lab 2/2025-09-05 14-59-05.mp4</property>
    <property name="mlt_service">avformat-novalidate</property>
    <property name="meta.media.nb_streams">2</property>
    <property name="meta.media.0.stream.type">video</property>
    <property name="meta.media.0.stream.frame_rate">60</property>
    <property name="meta.media.0.stream.sample_aspect_ratio">0</property>
    <property name="meta.media.0.codec.width">1280</property>
    <property name="meta.media.0.codec.height">720</property>
    <property name="meta.media.0.codec.rotate">0</property>
    <property name="meta.media.0.codec.pix_fmt">yuv420p</property>
    <property name="meta.media.0.codec.sample_aspect_ratio">1</property>
    <property name="meta.media.0.codec.colorspace">709</property>
    <property name="meta.media.0.codec.color_trc">1</property>
    <property name="meta.media.0.codec.name">h264</property>
    <property name="meta.media.0.codec.long_name">H.264 / AVC / MPEG-4 AVC / MPEG-4 part 10</property>
    <property name="meta.media.0.codec.bit_rate">2497963</property>
    <property name="meta.attr.0.stream.handler_name.markup">VideoHandler</property>
    <property name="meta.attr.0.stream.vendor_id.markup">[0][0][0][0]</property>
    <property name="meta.media.1.stream.type">audio</property>
    <property name="meta.media.1.codec.sample_fmt">fltp</property>
    <property name="meta.media.1.codec.sample_rate">48000</property>
    <property name="meta.media.1.codec.channels">2</property>
    <property name="meta.media.1.codec.layout">stereo</property>
    <property name="meta.media.1.codec.name">aac</property>
    <property name="meta.media.1.codec.long_name">AAC (Advanced Audio Coding)</property>
    <property name="meta.media.1.codec.bit_rate">160000</property>
    <property name="meta.attr.1.stream.handler_name.markup">SoundHandler</property>
    <property name="meta.attr.1.stream.vendor_id.markup">[0][0][0][0]</property>
    <property name="meta.attr.major_brand.markup">isom</property>
    <property name="meta.attr.minor_version.markup">512</property>
    <property name="meta.attr.compatible_brands.markup">isomiso2avc1mp41</property>
    <property name="meta.attr.encoder.markup">Lavf61.7.100</property>
    <property name="seekable">1</property>
    <property name="meta.media.sample_aspect_num">1</property>
    <property name="meta.media.sample_aspect_den">1</property>
    <property name="format">3</property>
    <property name="audio_index">1</property>
    <property name="video_index">0</property>
    <property name="creation_time">2025-09-05T08:00:50</property>
    <property name="vstream">0</property>
    <property name="meta.media.frame_rate_num">60</property>
    <property name="meta.media.frame_rate_den">1</property>
    <property name="meta.media.colorspace">709</property>
    <property name="meta.media.color_trc">1</property>
    <property name="meta.media.has_b_frames">2</property>
    <property name="meta.media.width">1280</property>
    <property name="meta.media.height">720</property>
    <property name="meta.media.aspect_ratio">1</property>
    <property name="meta.media.color_range">mpeg</property>
    <property name="astream">0</property>
    <property name="shotcut:skipConvert">1</property>
    <property name="shotcut:hash">1f568e27cfe7620b1ad251af2e879990</property>
    <property name="meta.media.top_field_first">0</property>
    <property name="meta.media.progressive">1</property>
    <property name="shotcut:caption">2025-09-05 14-59-05.mp4</property>
    <property name="xml">was here</property>
  </chain>
  <chain id="chain18" out="00:01:40.583">
    <property name="length">00:01:40.600</property>
    <property name="eof">pause</property>
    <property name="resource">/home/jame/Videos/lab 2/2025-09-05 14-59-05.mp4</property>
    <property name="mlt_service">avformat-novalidate</property>
    <property name="meta.media.nb_streams">2</property>
    <property name="meta.media.0.stream.type">video</property>
    <property name="meta.media.0.stream.frame_rate">60</property>
    <property name="meta.media.0.stream.sample_aspect_ratio">0</property>
    <property name="meta.media.0.codec.width">1280</property>
    <property name="meta.media.0.codec.height">720</property>
    <property name="meta.media.0.codec.rotate">0</property>
    <property name="meta.media.0.codec.pix_fmt">yuv420p</property>
    <property name="meta.media.0.codec.sample_aspect_ratio">1</property>
    <property name="meta.media.0.codec.colorspace">709</property>
    <property name="meta.media.0.codec.color_trc">1</property>
    <property name="meta.media.0.codec.name">h264</property>
    <property name="meta.media.0.codec.long_name">H.264 / AVC / MPEG-4 AVC / MPEG-4 part 10</property>
    <property name="meta.media.0.codec.bit_rate">2497963</property>
    <property name="meta.attr.0.stream.handler_name.markup">VideoHandler</property>
    <property name="meta.attr.0.stream.vendor_id.markup">[0][0][0][0]</property>
    <property name="meta.media.1.stream.type">audio</property>
    <property name="meta.media.1.codec.sample_fmt">fltp</property>
    <property name="meta.media.1.codec.sample_rate">48000</property>
    <property name="meta.media.1.codec.channels">2</property>
    <property name="meta.media.1.codec.layout">stereo</property>
    <property name="meta.media.1.codec.name">aac</property>
    <property name="meta.media.1.codec.long_name">AAC (Advanced Audio Coding)</property>
    <property name="meta.media.1.codec.bit_rate">160000</property>
    <property name="meta.attr.1.stream.handler_name.markup">SoundHandler</property>
    <property name="meta.attr.1.stream.vendor_id.markup">[0][0][0][0]</property>
    <property name="meta.attr.major_brand.markup">isom</property>
    <property name="meta.attr.minor_version.markup">512</property>
    <property name="meta.attr.compatible_brands.markup">isomiso2avc1mp41</property>
    <property name="meta.attr.encoder.markup">Lavf61.7.100</property>
    <property name="seekable">1</property>
    <property name="meta.media.sample_aspect_num">1</property>
    <property name="meta.media.sample_aspect_den">1</property>
    <property name="format">3</property>
    <property name="audio_index">1</property>
    <property name="video_index">0</property>
    <property name="creation_time">2025-09-05T08:00:50</property>
    <property name="vstream">0</property>
    <property name="meta.media.frame_rate_num">60</property>
    <property name="meta.media.frame_rate_den">1</property>
    <property name="meta.media.colorspace">709</property>
    <property name="meta.media.color_trc">1</property>
    <property name="meta.media.has_b_frames">2</property>
    <property name="meta.media.width">1280</property>
    <property name="meta.media.height">720</property>
    <property name="meta.media.aspect_ratio">1</property>
    <property name="meta.media.color_range">mpeg</property>
    <property name="astream">0</property>
    <property name="shotcut:skipConvert">1</property>
    <property name="shotcut:hash">1f568e27cfe7620b1ad251af2e879990</property>
    <property name="meta.media.top_field_first">0</property>
    <property name="meta.media.progressive">1</property>
    <property name="shotcut:caption">2025-09-05 14-59-05.mp4</property>
    <property name="xml">was here</property>
  </chain>
  <playlist id="playlist0">
    <property name="shotcut:video">1</property>
    <property name="shotcut:name">V1</property>
    <blank length="00:00:16.550"/>
    <entry producer="chain0" in="00:00:04.000" out="00:01:44.417"/>
    <entry producer="chain1" in="00:01:54.733" out="00:02:56.950"/>
    <entry producer="chain2" in="00:00:03.017" out="00:03:29.133"/>
    <entry producer="chain3" in="00:00:03.617" out="00:01:54.567"/>
    <entry producer="chain4" in="00:06:14.483" out="00:07:27.133"/>
    <entry producer="chain5" in="00:00:03.017" out="00:01:28.733"/>
    <entry producer="chain6" in="00:01:59.450" out="00:03:21.750"/>
    <entry producer="chain7" in="00:03:39.267" out="00:04:23.733"/>
    <entry producer="chain8" in="00:04:32.450" out="00:08:05.917"/>
    <entry producer="chain9" in="00:08:38.417" out="00:10:25.017"/>
    <entry producer="chain10" in="00:11:11.617" out="00:12:13.983"/>
    <entry producer="chain11" in="00:00:52.800" out="00:01:49.467"/>
    <entry producer="chain12" in="00:02:00.333" out="00:04:21.850"/>
    <entry producer="chain13" in="00:00:03.883" out="00:00:42.733"/>
    <entry producer="chain14" in="00:00:57.433" out="00:01:35.667"/>
    <entry producer="chain15" in="00:01:35.683" out="00:01:39.000"/>
    <entry producer="chain16" in="00:01:35.683" out="00:01:39.000"/>
    <entry producer="chain17" in="00:01:35.683" out="00:01:39.000"/>
    <entry producer="chain18" in="00:01:35.683" out="00:01:36.433"/>
  </playlist>
  <chain id="chain19" out="00:11:39.233">
    <property name="length">00:11:39.250</property>
    <property name="eof">pause</property>
    <property name="resource">/home/jame/Music/lab 02/Street 608 4.m4a</property>
    <property name="mlt_service">avformat-novalidate</property>
    <property name="meta.media.nb_streams">1</property>
    <property name="meta.media.0.stream.type">audio</property>
    <property name="meta.media.0.codec.sample_fmt">fltp</property>
    <property name="meta.media.0.codec.sample_rate">48000</property>
    <property name="meta.media.0.codec.channels">1</property>
    <property name="meta.media.0.codec.layout">mono</property>
    <property name="meta.media.0.codec.name">aac</property>
    <property name="meta.media.0.codec.long_name">AAC (Advanced Audio Coding)</property>
    <property name="meta.media.0.codec.bit_rate">62733</property>
    <property name="meta.attr.0.stream.creation_time.markup">2025-09-05T10:01:38.000000Z</property>
    <property name="meta.attr.0.stream.handler_name.markup">Core Media Audio</property>
    <property name="meta.attr.0.stream.vendor_id.markup">[0][0][0][0]</property>
    <property name="meta.attr.major_brand.markup">M4A </property>
    <property name="meta.attr.minor_version.markup">0</property>
    <property name="meta.attr.compatible_brands.markup">M4A isommp42</property>
    <property name="meta.attr.creation_time.markup">2025-09-05T10:01:38.000000Z</property>
    <property name="meta.attr.title.markup">Street 608 4</property>
    <property name="meta.attr.voice-memo-uuid.markup">CDC49799-1D05-4E95-8BFD-9BDED6C69D68</property>
    <property name="meta.attr.encoder.markup">com.apple.VoiceMemos (iPhone (null))</property>
    <property name="seekable">1</property>
    <property name="audio_index">0</property>
    <property name="video_index">-1</property>
    <property name="creation_time">2025-09-05T10:01:38</property>
    <property name="astream">0</property>
    <property name="shotcut:skipConvert">1</property>
    <property name="shotcut:hash">186bdc6eae5db056fa37c8c2a8563919</property>
    <property name="shotcut:caption">Street 608 4.m4a</property>
    <property name="xml">was here</property>
  </chain>
  <chain id="chain20" out="00:11:39.233">
    <property name="length">00:11:39.250</property>
    <property name="eof">pause</property>
    <property name="resource">/home/jame/Music/lab 02/Street 608 4.m4a</property>
    <property name="mlt_service">avformat-novalidate</property>
    <property name="meta.media.nb_streams">1</property>
    <property name="meta.media.0.stream.type">audio</property>
    <property name="meta.media.0.codec.sample_fmt">fltp</property>
    <property name="meta.media.0.codec.sample_rate">48000</property>
    <property name="meta.media.0.codec.channels">1</property>
    <property name="meta.media.0.codec.layout">mono</property>
    <property name="meta.media.0.codec.name">aac</property>
    <property name="meta.media.0.codec.long_name">AAC (Advanced Audio Coding)</property>
    <property name="meta.media.0.codec.bit_rate">62733</property>
    <property name="meta.attr.0.stream.creation_time.markup">2025-09-05T10:01:38.000000Z</property>
    <property name="meta.attr.0.stream.handler_name.markup">Core Media Audio</property>
    <property name="meta.attr.0.stream.vendor_id.markup">[0][0][0][0]</property>
    <property name="meta.attr.major_brand.markup">M4A </property>
    <property name="meta.attr.minor_version.markup">0</property>
    <property name="meta.attr.compatible_brands.markup">M4A isommp42</property>
    <property name="meta.attr.creation_time.markup">2025-09-05T10:01:38.000000Z</property>
    <property name="meta.attr.title.markup">Street 608 4</property>
    <property name="meta.attr.voice-memo-uuid.markup">CDC49799-1D05-4E95-8BFD-9BDED6C69D68</property>
    <property name="meta.attr.encoder.markup">com.apple.VoiceMemos (iPhone (null))</property>
    <property name="seekable">1</property>
    <property name="audio_index">0</property>
    <property name="video_index">-1</property>
    <property name="creation_time">2025-09-05T10:01:38</property>
    <property name="astream">0</property>
    <property name="shotcut:skipConvert">1</property>
    <property name="shotcut:hash">186bdc6eae5db056fa37c8c2a8563919</property>
    <property name="shotcut:caption">Street 608 4.m4a</property>
    <property name="xml">was here</property>
  </chain>
  <chain id="chain21" out="00:11:39.233">
    <property name="length">00:11:39.250</property>
    <property name="eof">pause</property>
    <property name="resource">/home/jame/Music/lab 02/Street 608 4.m4a</property>
    <property name="mlt_service">avformat-novalidate</property>
    <property name="meta.media.nb_streams">1</property>
    <property name="meta.media.0.stream.type">audio</property>
    <property name="meta.media.0.codec.sample_fmt">fltp</property>
    <property name="meta.media.0.codec.sample_rate">48000</property>
    <property name="meta.media.0.codec.channels">1</property>
    <property name="meta.media.0.codec.layout">mono</property>
    <property name="meta.media.0.codec.name">aac</property>
    <property name="meta.media.0.codec.long_name">AAC (Advanced Audio Coding)</property>
    <property name="meta.media.0.codec.bit_rate">62733</property>
    <property name="meta.attr.0.stream.creation_time.markup">2025-09-05T10:01:38.000000Z</property>
    <property name="meta.attr.0.stream.handler_name.markup">Core Media Audio</property>
    <property name="meta.attr.0.stream.vendor_id.markup">[0][0][0][0]</property>
    <property name="meta.attr.major_brand.markup">M4A </property>
    <property name="meta.attr.minor_version.markup">0</property>
    <property name="meta.attr.compatible_brands.markup">M4A isommp42</property>
    <property name="meta.attr.creation_time.markup">2025-09-05T10:01:38.000000Z</property>
    <property name="meta.attr.title.markup">Street 608 4</property>
    <property name="meta.attr.voice-memo-uuid.markup">CDC49799-1D05-4E95-8BFD-9BDED6C69D68</property>
    <property name="meta.attr.encoder.markup">com.apple.VoiceMemos (iPhone (null))</property>
    <property name="seekable">1</property>
    <property name="audio_index">0</property>
    <property name="video_index">-1</property>
    <property name="creation_time">2025-09-05T10:01:38</property>
    <property name="astream">0</property>
    <property name="shotcut:skipConvert">1</property>
    <property name="shotcut:hash">186bdc6eae5db056fa37c8c2a8563919</property>
    <property name="shotcut:caption">Street 608 4.m4a</property>
    <property name="xml">was here</property>
  </chain>
  <chain id="chain22" out="00:11:39.233">
    <property name="length">00:11:39.250</property>
    <property name="eof">pause</property>
    <property name="resource">/home/jame/Music/lab 02/Street 608 4.m4a</property>
    <property name="mlt_service">avformat-novalidate</property>
    <property name="meta.media.nb_streams">1</property>
    <property name="meta.media.0.stream.type">audio</property>
    <property name="meta.media.0.codec.sample_fmt">fltp</property>
    <property name="meta.media.0.codec.sample_rate">48000</property>
    <property name="meta.media.0.codec.channels">1</property>
    <property name="meta.media.0.codec.layout">mono</property>
    <property name="meta.media.0.codec.name">aac</property>
    <property name="meta.media.0.codec.long_name">AAC (Advanced Audio Coding)</property>
    <property name="meta.media.0.codec.bit_rate">62733</property>
    <property name="meta.attr.0.stream.creation_time.markup">2025-09-05T10:01:38.000000Z</property>
    <property name="meta.attr.0.stream.handler_name.markup">Core Media Audio</property>
    <property name="meta.attr.0.stream.vendor_id.markup">[0][0][0][0]</property>
    <property name="meta.attr.major_brand.markup">M4A </property>
    <property name="meta.attr.minor_version.markup">0</property>
    <property name="meta.attr.compatible_brands.markup">M4A isommp42</property>
    <property name="meta.attr.creation_time.markup">2025-09-05T10:01:38.000000Z</property>
    <property name="meta.attr.title.markup">Street 608 4</property>
    <property name="meta.attr.voice-memo-uuid.markup">CDC49799-1D05-4E95-8BFD-9BDED6C69D68</property>
    <property name="meta.attr.encoder.markup">com.apple.VoiceMemos (iPhone (null))</property>
    <property name="seekable">1</property>
    <property name="audio_index">0</property>
    <property name="video_index">-1</property>
    <property name="creation_time">2025-09-05T10:01:38</property>
    <property name="astream">0</property>
    <property name="shotcut:skipConvert">1</property>
    <property name="shotcut:hash">186bdc6eae5db056fa37c8c2a8563919</property>
    <property name="shotcut:caption">Street 608 4.m4a</property>
    <property name="xml">was here</property>
  </chain>
  <chain id="chain23" out="00:11:39.233">
    <property name="length">00:11:39.250</property>
    <property name="eof">pause</property>
    <property name="resource">/home/jame/Music/lab 02/Street 608 4.m4a</property>
    <property name="mlt_service">avformat-novalidate</property>
    <property name="meta.media.nb_streams">1</property>
    <property name="meta.media.0.stream.type">audio</property>
    <property name="meta.media.0.codec.sample_fmt">fltp</property>
    <property name="meta.media.0.codec.sample_rate">48000</property>
    <property name="meta.media.0.codec.channels">1</property>
    <property name="meta.media.0.codec.layout">mono</property>
    <property name="meta.media.0.codec.name">aac</property>
    <property name="meta.media.0.codec.long_name">AAC (Advanced Audio Coding)</property>
    <property name="meta.media.0.codec.bit_rate">62733</property>
    <property name="meta.attr.0.stream.creation_time.markup">2025-09-05T10:01:38.000000Z</property>
    <property name="meta.attr.0.stream.handler_name.markup">Core Media Audio</property>
    <property name="meta.attr.0.stream.vendor_id.markup">[0][0][0][0]</property>
    <property name="meta.attr.major_brand.markup">M4A </property>
    <property name="meta.attr.minor_version.markup">0</property>
    <property name="meta.attr.compatible_brands.markup">M4A isommp42</property>
    <property name="meta.attr.creation_time.markup">2025-09-05T10:01:38.000000Z</property>
    <property name="meta.attr.title.markup">Street 608 4</property>
    <property name="meta.attr.voice-memo-uuid.markup">CDC49799-1D05-4E95-8BFD-9BDED6C69D68</property>
    <property name="meta.attr.encoder.markup">com.apple.VoiceMemos (iPhone (null))</property>
    <property name="seekable">1</property>
    <property name="audio_index">0</property>
    <property name="video_index">-1</property>
    <property name="creation_time">2025-09-05T10:01:38</property>
    <property name="astream">0</property>
    <property name="shotcut:skipConvert">1</property>
    <property name="shotcut:hash">186bdc6eae5db056fa37c8c2a8563919</property>
    <property name="shotcut:caption">Street 608 4.m4a</property>
    <property name="xml">was here</property>
  </chain>
  <chain id="chain24" out="00:11:39.233">
    <property name="length">00:11:39.250</property>
    <property name="eof">pause</property>
    <property name="resource">/home/jame/Music/lab 02/Street 608 4.m4a</property>
    <property name="mlt_service">avformat-novalidate</property>
    <property name="meta.media.nb_streams">1</property>
    <property name="meta.media.0.stream.type">audio</property>
    <property name="meta.media.0.codec.sample_fmt">fltp</property>
    <property name="meta.media.0.codec.sample_rate">48000</property>
    <property name="meta.media.0.codec.channels">1</property>
    <property name="meta.media.0.codec.layout">mono</property>
    <property name="meta.media.0.codec.name">aac</property>
    <property name="meta.media.0.codec.long_name">AAC (Advanced Audio Coding)</property>
    <property name="meta.media.0.codec.bit_rate">62733</property>
    <property name="meta.attr.0.stream.creation_time.markup">2025-09-05T10:01:38.000000Z</property>
    <property name="meta.attr.0.stream.handler_name.markup">Core Media Audio</property>
    <property name="meta.attr.0.stream.vendor_id.markup">[0][0][0][0]</property>
    <property name="meta.attr.major_brand.markup">M4A </property>
    <property name="meta.attr.minor_version.markup">0</property>
    <property name="meta.attr.compatible_brands.markup">M4A isommp42</property>
    <property name="meta.attr.creation_time.markup">2025-09-05T10:01:38.000000Z</property>
    <property name="meta.attr.title.markup">Street 608 4</property>
    <property name="meta.attr.voice-memo-uuid.markup">CDC49799-1D05-4E95-8BFD-9BDED6C69D68</property>
    <property name="meta.attr.encoder.markup">com.apple.VoiceMemos (iPhone (null))</property>
    <property name="seekable">1</property>
    <property name="audio_index">0</property>
    <property name="video_index">-1</property>
    <property name="creation_time">2025-09-05T10:01:38</property>
    <property name="astream">0</property>
    <property name="shotcut:skipConvert">1</property>
    <property name="shotcut:hash">186bdc6eae5db056fa37c8c2a8563919</property>
    <property name="shotcut:caption">Street 608 4.m4a</property>
    <property name="xml">was here</property>
  </chain>
  <chain id="chain25" out="00:11:39.233">
    <property name="length">00:11:39.250</property>
    <property name="eof">pause</property>
    <property name="resource">/home/jame/Music/lab 02/Street 608 4.m4a</property>
    <property name="mlt_service">avformat-novalidate</property>
    <property name="meta.media.nb_streams">1</property>
    <property name="meta.media.0.stream.type">audio</property>
    <property name="meta.media.0.codec.sample_fmt">fltp</property>
    <property name="meta.media.0.codec.sample_rate">48000</property>
    <property name="meta.media.0.codec.channels">1</property>
    <property name="meta.media.0.codec.layout">mono</property>
    <property name="meta.media.0.codec.name">aac</property>
    <property name="meta.media.0.codec.long_name">AAC (Advanced Audio Coding)</property>
    <property name="meta.media.0.codec.bit_rate">62733</property>
    <property name="meta.attr.0.stream.creation_time.markup">2025-09-05T10:01:38.000000Z</property>
    <property name="meta.attr.0.stream.handler_name.markup">Core Media Audio</property>
    <property name="meta.attr.0.stream.vendor_id.markup">[0][0][0][0]</property>
    <property name="meta.attr.major_brand.markup">M4A </property>
    <property name="meta.attr.minor_version.markup">0</property>
    <property name="meta.attr.compatible_brands.markup">M4A isommp42</property>
    <property name="meta.attr.creation_time.markup">2025-09-05T10:01:38.000000Z</property>
    <property name="meta.attr.title.markup">Street 608 4</property>
    <property name="meta.attr.voice-memo-uuid.markup">CDC49799-1D05-4E95-8BFD-9BDED6C69D68</property>
    <property name="meta.attr.encoder.markup">com.apple.VoiceMemos (iPhone (null))</property>
    <property name="seekable">1</property>
    <property name="audio_index">0</property>
    <property name="video_index">-1</property>
    <property name="creation_time">2025-09-05T10:01:38</property>
    <property name="astream">0</property>
    <property name="shotcut:skipConvert">1</property>
    <property name="shotcut:hash">186bdc6eae5db056fa37c8c2a8563919</property>
    <property name="shotcut:caption">Street 608 4.m4a</property>
    <property name="xml">was here</property>
  </chain>
  <chain id="chain26" out="00:11:39.233">
    <property name="length">00:11:39.250</property>
    <property name="eof">pause</property>
    <property name="resource">/home/jame/Music/lab 02/Street 608 4.m4a</property>
    <property name="mlt_service">avformat-novalidate</property>
    <property name="meta.media.nb_streams">1</property>
    <property name="meta.media.0.stream.type">audio</property>
    <property name="meta.media.0.codec.sample_fmt">fltp</property>
    <property name="meta.media.0.codec.sample_rate">48000</property>
    <property name="meta.media.0.codec.channels">1</property>
    <property name="meta.media.0.codec.layout">mono</property>
    <property name="meta.media.0.codec.name">aac</property>
    <property name="meta.media.0.codec.long_name">AAC (Advanced Audio Coding)</property>
    <property name="meta.media.0.codec.bit_rate">62733</property>
    <property name="meta.attr.0.stream.creation_time.markup">2025-09-05T10:01:38.000000Z</property>
    <property name="meta.attr.0.stream.handler_name.markup">Core Media Audio</property>
    <property name="meta.attr.0.stream.vendor_id.markup">[0][0][0][0]</property>
    <property name="meta.attr.major_brand.markup">M4A </property>
    <property name="meta.attr.minor_version.markup">0</property>
    <property name="meta.attr.compatible_brands.markup">M4A isommp42</property>
    <property name="meta.attr.creation_time.markup">2025-09-05T10:01:38.000000Z</property>
    <property name="meta.attr.title.markup">Street 608 4</property>
    <property name="meta.attr.voice-memo-uuid.markup">CDC49799-1D05-4E95-8BFD-9BDED6C69D68</property>
    <property name="meta.attr.encoder.markup">com.apple.VoiceMemos (iPhone (null))</property>
    <property name="seekable">1</property>
    <property name="audio_index">0</property>
    <property name="video_index">-1</property>
    <property name="creation_time">2025-09-05T10:01:38</property>
    <property name="astream">0</property>
    <property name="shotcut:skipConvert">1</property>
    <property name="shotcut:hash">186bdc6eae5db056fa37c8c2a8563919</property>
    <property name="shotcut:caption">Street 608 4.m4a</property>
    <property name="xml">was here</property>
  </chain>
  <chain id="chain27" out="00:11:39.233">
    <property name="length">00:11:39.250</property>
    <property name="eof">pause</property>
    <property name="resource">/home/jame/Music/lab 02/Street 608 4.m4a</property>
    <property name="mlt_service">avformat-novalidate</property>
    <property name="meta.media.nb_streams">1</property>
    <property name="meta.media.0.stream.type">audio</property>
    <property name="meta.media.0.codec.sample_fmt">fltp</property>
    <property name="meta.media.0.codec.sample_rate">48000</property>
    <property name="meta.media.0.codec.channels">1</property>
    <property name="meta.media.0.codec.layout">mono</property>
    <property name="meta.media.0.codec.name">aac</property>
    <property name="meta.media.0.codec.long_name">AAC (Advanced Audio Coding)</property>
    <property name="meta.media.0.codec.bit_rate">62733</property>
    <property name="meta.attr.0.stream.creation_time.markup">2025-09-05T10:01:38.000000Z</property>
    <property name="meta.attr.0.stream.handler_name.markup">Core Media Audio</property>
    <property name="meta.attr.0.stream.vendor_id.markup">[0][0][0][0]</property>
    <property name="meta.attr.major_brand.markup">M4A </property>
    <property name="meta.attr.minor_version.markup">0</property>
    <property name="meta.attr.compatible_brands.markup">M4A isommp42</property>
    <property name="meta.attr.creation_time.markup">2025-09-05T10:01:38.000000Z</property>
    <property name="meta.attr.title.markup">Street 608 4</property>
    <property name="meta.attr.voice-memo-uuid.markup">CDC49799-1D05-4E95-8BFD-9BDED6C69D68</property>
    <property name="meta.attr.encoder.markup">com.apple.VoiceMemos (iPhone (null))</property>
    <property name="seekable">1</property>
    <property name="audio_index">0</property>
    <property name="video_index">-1</property>
    <property name="creation_time">2025-09-05T10:01:38</property>
    <property name="astream">0</property>
    <property name="shotcut:skipConvert">1</property>
    <property name="shotcut:hash">186bdc6eae5db056fa37c8c2a8563919</property>
    <property name="shotcut:caption">Street 608 4.m4a</property>
    <property name="xml">was here</property>
  </chain>
  <chain id="chain28" out="00:11:39.233">
    <property name="length">00:11:39.250</property>
    <property name="eof">pause</property>
    <property name="resource">/home/jame/Music/lab 02/Street 608 4.m4a</property>
    <property name="mlt_service">avformat-novalidate</property>
    <property name="meta.media.nb_streams">1</property>
    <property name="meta.media.0.stream.type">audio</property>
    <property name="meta.media.0.codec.sample_fmt">fltp</property>
    <property name="meta.media.0.codec.sample_rate">48000</property>
    <property name="meta.media.0.codec.channels">1</property>
    <property name="meta.media.0.codec.layout">mono</property>
    <property name="meta.media.0.codec.name">aac</property>
    <property name="meta.media.0.codec.long_name">AAC (Advanced Audio Coding)</property>
    <property name="meta.media.0.codec.bit_rate">62733</property>
    <property name="meta.attr.0.stream.creation_time.markup">2025-09-05T10:01:38.000000Z</property>
    <property name="meta.attr.0.stream.handler_name.markup">Core Media Audio</property>
    <property name="meta.attr.0.stream.vendor_id.markup">[0][0][0][0]</property>
    <property name="meta.attr.major_brand.markup">M4A </property>
    <property name="meta.attr.minor_version.markup">0</property>
    <property name="meta.attr.compatible_brands.markup">M4A isommp42</property>
    <property name="meta.attr.creation_time.markup">2025-09-05T10:01:38.000000Z</property>
    <property name="meta.attr.title.markup">Street 608 4</property>
    <property name="meta.attr.voice-memo-uuid.markup">CDC49799-1D05-4E95-8BFD-9BDED6C69D68</property>
    <property name="meta.attr.encoder.markup">com.apple.VoiceMemos (iPhone (null))</property>
    <property name="seekable">1</property>
    <property name="audio_index">0</property>
    <property name="video_index">-1</property>
    <property name="creation_time">2025-09-05T10:01:38</property>
    <property name="astream">0</property>
    <property name="shotcut:skipConvert">1</property>
    <property name="shotcut:hash">186bdc6eae5db056fa37c8c2a8563919</property>
    <property name="shotcut:caption">Street 608 4.m4a</property>
    <property name="xml">was here</property>
  </chain>
  <chain id="chain29" out="00:11:39.233">
    <property name="length">00:11:39.250</property>
    <property name="eof">pause</property>
    <property name="resource">/home/jame/Music/lab 02/Street 608 4.m4a</property>
    <property name="mlt_service">avformat-novalidate</property>
    <property name="meta.media.nb_streams">1</property>
    <property name="meta.media.0.stream.type">audio</property>
    <property name="meta.media.0.codec.sample_fmt">fltp</property>
    <property name="meta.media.0.codec.sample_rate">48000</property>
    <property name="meta.media.0.codec.channels">1</property>
    <property name="meta.media.0.codec.layout">mono</property>
    <property name="meta.media.0.codec.name">aac</property>
    <property name="meta.media.0.codec.long_name">AAC (Advanced Audio Coding)</property>
    <property name="meta.media.0.codec.bit_rate">62733</property>
    <property name="meta.attr.0.stream.creation_time.markup">2025-09-05T10:01:38.000000Z</property>
    <property name="meta.attr.0.stream.handler_name.markup">Core Media Audio</property>
    <property name="meta.attr.0.stream.vendor_id.markup">[0][0][0][0]</property>
    <property name="meta.attr.major_brand.markup">M4A </property>
    <property name="meta.attr.minor_version.markup">0</property>
    <property name="meta.attr.compatible_brands.markup">M4A isommp42</property>
    <property name="meta.attr.creation_time.markup">2025-09-05T10:01:38.000000Z</property>
    <property name="meta.attr.title.markup">Street 608 4</property>
    <property name="meta.attr.voice-memo-uuid.markup">CDC49799-1D05-4E95-8BFD-9BDED6C69D68</property>
    <property name="meta.attr.encoder.markup">com.apple.VoiceMemos (iPhone (null))</property>
    <property name="seekable">1</property>
    <property name="audio_index">0</property>
    <property name="video_index">-1</property>
    <property name="creation_time">2025-09-05T10:01:38</property>
    <property name="astream">0</property>
    <property name="shotcut:skipConvert">1</property>
    <property name="shotcut:hash">186bdc6eae5db056fa37c8c2a8563919</property>
    <property name="shotcut:caption">Street 608 4.m4a</property>
    <property name="xml">was here</property>
  </chain>
  <chain id="chain30" out="00:11:39.233">
    <property name="length">00:11:39.250</property>
    <property name="eof">pause</property>
    <property name="resource">/home/jame/Music/lab 02/Street 608 4.m4a</property>
    <property name="mlt_service">avformat-novalidate</property>
    <property name="meta.media.nb_streams">1</property>
    <property name="meta.media.0.stream.type">audio</property>
    <property name="meta.media.0.codec.sample_fmt">fltp</property>
    <property name="meta.media.0.codec.sample_rate">48000</property>
    <property name="meta.media.0.codec.channels">1</property>
    <property name="meta.media.0.codec.layout">mono</property>
    <property name="meta.media.0.codec.name">aac</property>
    <property name="meta.media.0.codec.long_name">AAC (Advanced Audio Coding)</property>
    <property name="meta.media.0.codec.bit_rate">62733</property>
    <property name="meta.attr.0.stream.creation_time.markup">2025-09-05T10:01:38.000000Z</property>
    <property name="meta.attr.0.stream.handler_name.markup">Core Media Audio</property>
    <property name="meta.attr.0.stream.vendor_id.markup">[0][0][0][0]</property>
    <property name="meta.attr.major_brand.markup">M4A </property>
    <property name="meta.attr.minor_version.markup">0</property>
    <property name="meta.attr.compatible_brands.markup">M4A isommp42</property>
    <property name="meta.attr.creation_time.markup">2025-09-05T10:01:38.000000Z</property>
    <property name="meta.attr.title.markup">Street 608 4</property>
    <property name="meta.attr.voice-memo-uuid.markup">CDC49799-1D05-4E95-8BFD-9BDED6C69D68</property>
    <property name="meta.attr.encoder.markup">com.apple.VoiceMemos (iPhone (null))</property>
    <property name="seekable">1</property>
    <property name="audio_index">0</property>
    <property name="video_index">-1</property>
    <property name="creation_time">2025-09-05T10:01:38</property>
    <property name="astream">0</property>
    <property name="shotcut:skipConvert">1</property>
    <property name="shotcut:hash">186bdc6eae5db056fa37c8c2a8563919</property>
    <property name="shotcut:caption">Street 608 4.m4a</property>
    <property name="xml">was here</property>
  </chain>
  <chain id="chain31" out="00:11:39.233">
    <property name="length">00:11:39.250</property>
    <property name="eof">pause</property>
    <property name="resource">/home/jame/Music/lab 02/Street 608 4.m4a</property>
    <property name="mlt_service">avformat-novalidate</property>
    <property name="meta.media.nb_streams">1</property>
    <property name="meta.media.0.stream.type">audio</property>
    <property name="meta.media.0.codec.sample_fmt">fltp</property>
    <property name="meta.media.0.codec.sample_rate">48000</property>
    <property name="meta.media.0.codec.channels">1</property>
    <property name="meta.media.0.codec.layout">mono</property>
    <property name="meta.media.0.codec.name">aac</property>
    <property name="meta.media.0.codec.long_name">AAC (Advanced Audio Coding)</property>
    <property name="meta.media.0.codec.bit_rate">62733</property>
    <property name="meta.attr.0.stream.creation_time.markup">2025-09-05T10:01:38.000000Z</property>
    <property name="meta.attr.0.stream.handler_name.markup">Core Media Audio</property>
    <property name="meta.attr.0.stream.vendor_id.markup">[0][0][0][0]</property>
    <property name="meta.attr.major_brand.markup">M4A </property>
    <property name="meta.attr.minor_version.markup">0</property>
    <property name="meta.attr.compatible_brands.markup">M4A isommp42</property>
    <property name="meta.attr.creation_time.markup">2025-09-05T10:01:38.000000Z</property>
    <property name="meta.attr.title.markup">Street 608 4</property>
    <property name="meta.attr.voice-memo-uuid.markup">CDC49799-1D05-4E95-8BFD-9BDED6C69D68</property>
    <property name="meta.attr.encoder.markup">com.apple.VoiceMemos (iPhone (null))</property>
    <property name="seekable">1</property>
    <property name="audio_index">0</property>
    <property name="video_index">-1</property>
    <property name="creation_time">2025-09-05T10:01:38</property>
    <property name="astream">0</property>
    <property name="shotcut:skipConvert">1</property>
    <property name="shotcut:hash">186bdc6eae5db056fa37c8c2a8563919</property>
    <property name="shotcut:caption">Street 608 4.m4a</property>
    <property name="xml">was here</property>
  </chain>
  <chain id="chain32" out="00:11:39.233">
    <property name="length">00:11:39.250</property>
    <property name="eof">pause</property>
    <property name="resource">/home/jame/Music/lab 02/Street 608 4.m4a</property>
    <property name="mlt_service">avformat-novalidate</property>
    <property name="meta.media.nb_streams">1</property>
    <property name="meta.media.0.stream.type">audio</property>
    <property name="meta.media.0.codec.sample_fmt">fltp</property>
    <property name="meta.media.0.codec.sample_rate">48000</property>
    <property name="meta.media.0.codec.channels">1</property>
    <property name="meta.media.0.codec.layout">mono</property>
    <property name="meta.media.0.codec.name">aac</property>
    <property name="meta.media.0.codec.long_name">AAC (Advanced Audio Coding)</property>
    <property name="meta.media.0.codec.bit_rate">62733</property>
    <property name="meta.attr.0.stream.creation_time.markup">2025-09-05T10:01:38.000000Z</property>
    <property name="meta.attr.0.stream.handler_name.markup">Core Media Audio</property>
    <property name="meta.attr.0.stream.vendor_id.markup">[0][0][0][0]</property>
    <property name="meta.attr.major_brand.markup">M4A </property>
    <property name="meta.attr.minor_version.markup">0</property>
    <property name="meta.attr.compatible_brands.markup">M4A isommp42</property>
    <property name="meta.attr.creation_time.markup">2025-09-05T10:01:38.000000Z</property>
    <property name="meta.attr.title.markup">Street 608 4</property>
    <property name="meta.attr.voice-memo-uuid.markup">CDC49799-1D05-4E95-8BFD-9BDED6C69D68</property>
    <property name="meta.attr.encoder.markup">com.apple.VoiceMemos (iPhone (null))</property>
    <property name="seekable">1</property>
    <property name="audio_index">0</property>
    <property name="video_index">-1</property>
    <property name="creation_time">2025-09-05T10:01:38</property>
    <property name="astream">0</property>
    <property name="shotcut:skipConvert">1</property>
    <property name="shotcut:hash">186bdc6eae5db056fa37c8c2a8563919</property>
    <property name="shotcut:caption">Street 608 4.m4a</property>
    <property name="xml">was here</property>
  </chain>
  <chain id="chain33" out="00:11:39.233">
    <property name="length">00:11:39.250</property>
    <property name="eof">pause</property>
    <property name="resource">/home/jame/Music/lab 02/Street 608 4.m4a</property>
    <property name="mlt_service">avformat-novalidate</property>
    <property name="meta.media.nb_streams">1</property>
    <property name="meta.media.0.stream.type">audio</property>
    <property name="meta.media.0.codec.sample_fmt">fltp</property>
    <property name="meta.media.0.codec.sample_rate">48000</property>
    <property name="meta.media.0.codec.channels">1</property>
    <property name="meta.media.0.codec.layout">mono</property>
    <property name="meta.media.0.codec.name">aac</property>
    <property name="meta.media.0.codec.long_name">AAC (Advanced Audio Coding)</property>
    <property name="meta.media.0.codec.bit_rate">62733</property>
    <property name="meta.attr.0.stream.creation_time.markup">2025-09-05T10:01:38.000000Z</property>
    <property name="meta.attr.0.stream.handler_name.markup">Core Media Audio</property>
    <property name="meta.attr.0.stream.vendor_id.markup">[0][0][0][0]</property>
    <property name="meta.attr.major_brand.markup">M4A </property>
    <property name="meta.attr.minor_version.markup">0</property>
    <property name="meta.attr.compatible_brands.markup">M4A isommp42</property>
    <property name="meta.attr.creation_time.markup">2025-09-05T10:01:38.000000Z</property>
    <property name="meta.attr.title.markup">Street 608 4</property>
    <property name="meta.attr.voice-memo-uuid.markup">CDC49799-1D05-4E95-8BFD-9BDED6C69D68</property>
    <property name="meta.attr.encoder.markup">com.apple.VoiceMemos (iPhone (null))</property>
    <property name="seekable">1</property>
    <property name="audio_index">0</property>
    <property name="video_index">-1</property>
    <property name="creation_time">2025-09-05T10:01:38</property>
    <property name="astream">0</property>
    <property name="shotcut:skipConvert">1</property>
    <property name="shotcut:hash">186bdc6eae5db056fa37c8c2a8563919</property>
    <property name="shotcut:caption">Street 608 4.m4a</property>
    <property name="xml">was here</property>
  </chain>
  <chain id="chain34" out="00:11:39.233">
    <property name="length">00:11:39.250</property>
    <property name="eof">pause</property>
    <property name="resource">/home/jame/Music/lab 02/Street 608 4.m4a</property>
    <property name="mlt_service">avformat-novalidate</property>
    <property name="meta.media.nb_streams">1</property>
    <property name="meta.media.0.stream.type">audio</property>
    <property name="meta.media.0.codec.sample_fmt">fltp</property>
    <property name="meta.media.0.codec.sample_rate">48000</property>
    <property name="meta.media.0.codec.channels">1</property>
    <property name="meta.media.0.codec.layout">mono</property>
    <property name="meta.media.0.codec.name">aac</property>
    <property name="meta.media.0.codec.long_name">AAC (Advanced Audio Coding)</property>
    <property name="meta.media.0.codec.bit_rate">62733</property>
    <property name="meta.attr.0.stream.creation_time.markup">2025-09-05T10:01:38.000000Z</property>
    <property name="meta.attr.0.stream.handler_name.markup">Core Media Audio</property>
    <property name="meta.attr.0.stream.vendor_id.markup">[0][0][0][0]</property>
    <property name="meta.attr.major_brand.markup">M4A </property>
    <property name="meta.attr.minor_version.markup">0</property>
    <property name="meta.attr.compatible_brands.markup">M4A isommp42</property>
    <property name="meta.attr.creation_time.markup">2025-09-05T10:01:38.000000Z</property>
    <property name="meta.attr.title.markup">Street 608 4</property>
    <property name="meta.attr.voice-memo-uuid.markup">CDC49799-1D05-4E95-8BFD-9BDED6C69D68</property>
    <property name="meta.attr.encoder.markup">com.apple.VoiceMemos (iPhone (null))</property>
    <property name="seekable">1</property>
    <property name="audio_index">0</property>
    <property name="video_index">-1</property>
    <property name="creation_time">2025-09-05T10:01:38</property>
    <property name="astream">0</property>
    <property name="shotcut:skipConvert">1</property>
    <property name="shotcut:hash">186bdc6eae5db056fa37c8c2a8563919</property>
    <property name="shotcut:caption">Street 608 4.m4a</property>
    <property name="xml">was here</property>
  </chain>
  <chain id="chain35" out="00:11:39.233">
    <property name="length">00:11:39.250</property>
    <property name="eof">pause</property>
    <property name="resource">/home/jame/Music/lab 02/Street 608 4.m4a</property>
    <property name="mlt_service">avformat-novalidate</property>
    <property name="meta.media.nb_streams">1</property>
    <property name="meta.media.0.stream.type">audio</property>
    <property name="meta.media.0.codec.sample_fmt">fltp</property>
    <property name="meta.media.0.codec.sample_rate">48000</property>
    <property name="meta.media.0.codec.channels">1</property>
    <property name="meta.media.0.codec.layout">mono</property>
    <property name="meta.media.0.codec.name">aac</property>
    <property name="meta.media.0.codec.long_name">AAC (Advanced Audio Coding)</property>
    <property name="meta.media.0.codec.bit_rate">62733</property>
    <property name="meta.attr.0.stream.creation_time.markup">2025-09-05T10:01:38.000000Z</property>
    <property name="meta.attr.0.stream.handler_name.markup">Core Media Audio</property>
    <property name="meta.attr.0.stream.vendor_id.markup">[0][0][0][0]</property>
    <property name="meta.attr.major_brand.markup">M4A </property>
    <property name="meta.attr.minor_version.markup">0</property>
    <property name="meta.attr.compatible_brands.markup">M4A isommp42</property>
    <property name="meta.attr.creation_time.markup">2025-09-05T10:01:38.000000Z</property>
    <property name="meta.attr.title.markup">Street 608 4</property>
    <property name="meta.attr.voice-memo-uuid.markup">CDC49799-1D05-4E95-8BFD-9BDED6C69D68</property>
    <property name="meta.attr.encoder.markup">com.apple.VoiceMemos (iPhone (null))</property>
    <property name="seekable">1</property>
    <property name="audio_index">0</property>
    <property name="video_index">-1</property>
    <property name="creation_time">2025-09-05T10:01:38</property>
    <property name="astream">0</property>
    <property name="shotcut:skipConvert">1</property>
    <property name="shotcut:hash">186bdc6eae5db056fa37c8c2a8563919</property>
    <property name="shotcut:caption">Street 608 4.m4a</property>
    <property name="xml">was here</property>
  </chain>
  <chain id="chain36" out="00:11:39.233">
    <property name="length">00:11:39.250</property>
    <property name="eof">pause</property>
    <property name="resource">/home/jame/Music/lab 02/Street 608 4.m4a</property>
    <property name="mlt_service">avformat-novalidate</property>
    <property name="meta.media.nb_streams">1</property>
    <property name="meta.media.0.stream.type">audio</property>
    <property name="meta.media.0.codec.sample_fmt">fltp</property>
    <property name="meta.media.0.codec.sample_rate">48000</property>
    <property name="meta.media.0.codec.channels">1</property>
    <property name="meta.media.0.codec.layout">mono</property>
    <property name="meta.media.0.codec.name">aac</property>
    <property name="meta.media.0.codec.long_name">AAC (Advanced Audio Coding)</property>
    <property name="meta.media.0.codec.bit_rate">62733</property>
    <property name="meta.attr.0.stream.creation_time.markup">2025-09-05T10:01:38.000000Z</property>
    <property name="meta.attr.0.stream.handler_name.markup">Core Media Audio</property>
    <property name="meta.attr.0.stream.vendor_id.markup">[0][0][0][0]</property>
    <property name="meta.attr.major_brand.markup">M4A </property>
    <property name="meta.attr.minor_version.markup">0</property>
    <property name="meta.attr.compatible_brands.markup">M4A isommp42</property>
    <property name="meta.attr.creation_time.markup">2025-09-05T10:01:38.000000Z</property>
    <property name="meta.attr.title.markup">Street 608 4</property>
    <property name="meta.attr.voice-memo-uuid.markup">CDC49799-1D05-4E95-8BFD-9BDED6C69D68</property>
    <property name="meta.attr.encoder.markup">com.apple.VoiceMemos (iPhone (null))</property>
    <property name="seekable">1</property>
    <property name="audio_index">0</property>
    <property name="video_index">-1</property>
    <property name="creation_time">2025-09-05T10:01:38</property>
    <property name="astream">0</property>
    <property name="shotcut:skipConvert">1</property>
    <property name="shotcut:hash">186bdc6eae5db056fa37c8c2a8563919</property>
    <property name="shotcut:caption">Street 608 4.m4a</property>
    <property name="xml">was here</property>
  </chain>
  <chain id="chain37" out="00:11:39.233">
    <property name="length">00:11:39.250</property>
    <property name="eof">pause</property>
    <property name="resource">/home/jame/Music/lab 02/Street 608 4.m4a</property>
    <property name="mlt_service">avformat-novalidate</property>
    <property name="meta.media.nb_streams">1</property>
    <property name="meta.media.0.stream.type">audio</property>
    <property name="meta.media.0.codec.sample_fmt">fltp</property>
    <property name="meta.media.0.codec.sample_rate">48000</property>
    <property name="meta.media.0.codec.channels">1</property>
    <property name="meta.media.0.codec.layout">mono</property>
    <property name="meta.media.0.codec.name">aac</property>
    <property name="meta.media.0.codec.long_name">AAC (Advanced Audio Coding)</property>
    <property name="meta.media.0.codec.bit_rate">62733</property>
    <property name="meta.attr.0.stream.creation_time.markup">2025-09-05T10:01:38.000000Z</property>
    <property name="meta.attr.0.stream.handler_name.markup">Core Media Audio</property>
    <property name="meta.attr.0.stream.vendor_id.markup">[0][0][0][0]</property>
    <property name="meta.attr.major_brand.markup">M4A </property>
    <property name="meta.attr.minor_version.markup">0</property>
    <property name="meta.attr.compatible_brands.markup">M4A isommp42</property>
    <property name="meta.attr.creation_time.markup">2025-09-05T10:01:38.000000Z</property>
    <property name="meta.attr.title.markup">Street 608 4</property>
    <property name="meta.attr.voice-memo-uuid.markup">CDC49799-1D05-4E95-8BFD-9BDED6C69D68</property>
    <property name="meta.attr.encoder.markup">com.apple.VoiceMemos (iPhone (null))</property>
    <property name="seekable">1</property>
    <property name="audio_index">0</property>
    <property name="video_index">-1</property>
    <property name="creation_time">2025-09-05T10:01:38</property>
    <property name="astream">0</property>
    <property name="shotcut:skipConvert">1</property>
    <property name="shotcut:hash">186bdc6eae5db056fa37c8c2a8563919</property>
    <property name="shotcut:caption">Street 608 4.m4a</property>
    <property name="xml">was here</property>
  </chain>
  <chain id="chain38" out="00:11:39.233">
    <property name="length">00:11:39.250</property>
    <property name="eof">pause</property>
    <property name="resource">/home/jame/Music/lab 02/Street 608 4.m4a</property>
    <property name="mlt_service">avformat-novalidate</property>
    <property name="meta.media.nb_streams">1</property>
    <property name="meta.media.0.stream.type">audio</property>
    <property name="meta.media.0.codec.sample_fmt">fltp</property>
    <property name="meta.media.0.codec.sample_rate">48000</property>
    <property name="meta.media.0.codec.channels">1</property>
    <property name="meta.media.0.codec.layout">mono</property>
    <property name="meta.media.0.codec.name">aac</property>
    <property name="meta.media.0.codec.long_name">AAC (Advanced Audio Coding)</property>
    <property name="meta.media.0.codec.bit_rate">62733</property>
    <property name="meta.attr.0.stream.creation_time.markup">2025-09-05T10:01:38.000000Z</property>
    <property name="meta.attr.0.stream.handler_name.markup">Core Media Audio</property>
    <property name="meta.attr.0.stream.vendor_id.markup">[0][0][0][0]</property>
    <property name="meta.attr.major_brand.markup">M4A </property>
    <property name="meta.attr.minor_version.markup">0</property>
    <property name="meta.attr.compatible_brands.markup">M4A isommp42</property>
    <property name="meta.attr.creation_time.markup">2025-09-05T10:01:38.000000Z</property>
    <property name="meta.attr.title.markup">Street 608 4</property>
    <property name="meta.attr.voice-memo-uuid.markup">CDC49799-1D05-4E95-8BFD-9BDED6C69D68</property>
    <property name="meta.attr.encoder.markup">com.apple.VoiceMemos (iPhone (null))</property>
    <property name="seekable">1</property>
    <property name="audio_index">0</property>
    <property name="video_index">-1</property>
    <property name="creation_time">2025-09-05T10:01:38</property>
    <property name="astream">0</property>
    <property name="shotcut:skipConvert">1</property>
    <property name="shotcut:hash">186bdc6eae5db056fa37c8c2a8563919</property>
    <property name="shotcut:caption">Street 608 4.m4a</property>
    <property name="xml">was here</property>
  </chain>
  <chain id="chain39" out="00:11:39.233">
    <property name="length">00:11:39.250</property>
    <property name="eof">pause</property>
    <property name="resource">/home/jame/Music/lab 02/Street 608 4.m4a</property>
    <property name="mlt_service">avformat-novalidate</property>
    <property name="meta.media.nb_streams">1</property>
    <property name="meta.media.0.stream.type">audio</property>
    <property name="meta.media.0.codec.sample_fmt">fltp</property>
    <property name="meta.media.0.codec.sample_rate">48000</property>
    <property name="meta.media.0.codec.channels">1</property>
    <property name="meta.media.0.codec.layout">mono</property>
    <property name="meta.media.0.codec.name">aac</property>
    <property name="meta.media.0.codec.long_name">AAC (Advanced Audio Coding)</property>
    <property name="meta.media.0.codec.bit_rate">62733</property>
    <property name="meta.attr.0.stream.creation_time.markup">2025-09-05T10:01:38.000000Z</property>
    <property name="meta.attr.0.stream.handler_name.markup">Core Media Audio</property>
    <property name="meta.attr.0.stream.vendor_id.markup">[0][0][0][0]</property>
    <property name="meta.attr.major_brand.markup">M4A </property>
    <property name="meta.attr.minor_version.markup">0</property>
    <property name="meta.attr.compatible_brands.markup">M4A isommp42</property>
    <property name="meta.attr.creation_time.markup">2025-09-05T10:01:38.000000Z</property>
    <property name="meta.attr.title.markup">Street 608 4</property>
    <property name="meta.attr.voice-memo-uuid.markup">CDC49799-1D05-4E95-8BFD-9BDED6C69D68</property>
    <property name="meta.attr.encoder.markup">com.apple.VoiceMemos (iPhone (null))</property>
    <property name="seekable">1</property>
    <property name="audio_index">0</property>
    <property name="video_index">-1</property>
    <property name="creation_time">2025-09-05T10:01:38</property>
    <property name="astream">0</property>
    <property name="shotcut:skipConvert">1</property>
    <property name="shotcut:hash">186bdc6eae5db056fa37c8c2a8563919</property>
    <property name="shotcut:caption">Street 608 4.m4a</property>
    <property name="xml">was here</property>
  </chain>
  <chain id="chain40" out="00:11:39.233">
    <property name="length">00:11:39.250</property>
    <property name="eof">pause</property>
    <property name="resource">/home/jame/Music/lab 02/Street 608 4.m4a</property>
    <property name="mlt_service">avformat-novalidate</property>
    <property name="meta.media.nb_streams">1</property>
    <property name="meta.media.0.stream.type">audio</property>
    <property name="meta.media.0.codec.sample_fmt">fltp</property>
    <property name="meta.media.0.codec.sample_rate">48000</property>
    <property name="meta.media.0.codec.channels">1</property>
    <property name="meta.media.0.codec.layout">mono</property>
    <property name="meta.media.0.codec.name">aac</property>
    <property name="meta.media.0.codec.long_name">AAC (Advanced Audio Coding)</property>
    <property name="meta.media.0.codec.bit_rate">62733</property>
    <property name="meta.attr.0.stream.creation_time.markup">2025-09-05T10:01:38.000000Z</property>
    <property name="meta.attr.0.stream.handler_name.markup">Core Media Audio</property>
    <property name="meta.attr.0.stream.vendor_id.markup">[0][0][0][0]</property>
    <property name="meta.attr.major_brand.markup">M4A </property>
    <property name="meta.attr.minor_version.markup">0</property>
    <property name="meta.attr.compatible_brands.markup">M4A isommp42</property>
    <property name="meta.attr.creation_time.markup">2025-09-05T10:01:38.000000Z</property>
    <property name="meta.attr.title.markup">Street 608 4</property>
    <property name="meta.attr.voice-memo-uuid.markup">CDC49799-1D05-4E95-8BFD-9BDED6C69D68</property>
    <property name="meta.attr.encoder.markup">com.apple.VoiceMemos (iPhone (null))</property>
    <property name="seekable">1</property>
    <property name="audio_index">0</property>
    <property name="video_index">-1</property>
    <property name="creation_time">2025-09-05T10:01:38</property>
    <property name="astream">0</property>
    <property name="shotcut:skipConvert">1</property>
    <property name="shotcut:hash">186bdc6eae5db056fa37c8c2a8563919</property>
    <property name="shotcut:caption">Street 608 4.m4a</property>
    <property name="xml">was here</property>
  </chain>
  <chain id="chain41" out="00:08:26.883">
    <property name="length">00:08:26.900</property>
    <property name="eof">pause</property>
    <property name="resource">/home/jame/Music/lab 02/Street 608 5.m4a</property>
    <property name="mlt_service">avformat-novalidate</property>
    <property name="meta.media.nb_streams">1</property>
    <property name="meta.media.0.stream.type">audio</property>
    <property name="meta.media.0.codec.sample_fmt">fltp</property>
    <property name="meta.media.0.codec.sample_rate">48000</property>
    <property name="meta.media.0.codec.channels">1</property>
    <property name="meta.media.0.codec.layout">mono</property>
    <property name="meta.media.0.codec.name">aac</property>
    <property name="meta.media.0.codec.long_name">AAC (Advanced Audio Coding)</property>
    <property name="meta.media.0.codec.bit_rate">62726</property>
    <property name="meta.attr.0.stream.creation_time.markup">2025-09-05T10:23:46.000000Z</property>
    <property name="meta.attr.0.stream.handler_name.markup">Core Media Audio</property>
    <property name="meta.attr.0.stream.vendor_id.markup">[0][0][0][0]</property>
    <property name="meta.attr.major_brand.markup">M4A </property>
    <property name="meta.attr.minor_version.markup">0</property>
    <property name="meta.attr.compatible_brands.markup">M4A isommp42</property>
    <property name="meta.attr.creation_time.markup">2025-09-05T10:23:46.000000Z</property>
    <property name="meta.attr.title.markup">Street 608 5</property>
    <property name="meta.attr.voice-memo-uuid.markup">E5404E6B-24DE-423E-818D-CCD59FCAF2CE</property>
    <property name="meta.attr.encoder.markup">com.apple.VoiceMemos (iPhone (null))</property>
    <property name="seekable">1</property>
    <property name="audio_index">0</property>
    <property name="video_index">-1</property>
    <property name="creation_time">2025-09-05T10:23:46</property>
    <property name="astream">0</property>
    <property name="shotcut:skipConvert">1</property>
    <property name="shotcut:hash">3e41a0a0e36eb0853b350cec23616297</property>
    <property name="shotcut:caption">Street 608 5.m4a</property>
    <property name="xml">was here</property>
  </chain>
  <chain id="chain42" out="00:08:26.883">
    <property name="length">00:08:26.900</property>
    <property name="eof">pause</property>
    <property name="resource">/home/jame/Music/lab 02/Street 608 5.m4a</property>
    <property name="mlt_service">avformat-novalidate</property>
    <property name="meta.media.nb_streams">1</property>
    <property name="meta.media.0.stream.type">audio</property>
    <property name="meta.media.0.codec.sample_fmt">fltp</property>
    <property name="meta.media.0.codec.sample_rate">48000</property>
    <property name="meta.media.0.codec.channels">1</property>
    <property name="meta.media.0.codec.layout">mono</property>
    <property name="meta.media.0.codec.name">aac</property>
    <property name="meta.media.0.codec.long_name">AAC (Advanced Audio Coding)</property>
    <property name="meta.media.0.codec.bit_rate">62726</property>
    <property name="meta.attr.0.stream.creation_time.markup">2025-09-05T10:23:46.000000Z</property>
    <property name="meta.attr.0.stream.handler_name.markup">Core Media Audio</property>
    <property name="meta.attr.0.stream.vendor_id.markup">[0][0][0][0]</property>
    <property name="meta.attr.major_brand.markup">M4A </property>
    <property name="meta.attr.minor_version.markup">0</property>
    <property name="meta.attr.compatible_brands.markup">M4A isommp42</property>
    <property name="meta.attr.creation_time.markup">2025-09-05T10:23:46.000000Z</property>
    <property name="meta.attr.title.markup">Street 608 5</property>
    <property name="meta.attr.voice-memo-uuid.markup">E5404E6B-24DE-423E-818D-CCD59FCAF2CE</property>
    <property name="meta.attr.encoder.markup">com.apple.VoiceMemos (iPhone (null))</property>
    <property name="seekable">1</property>
    <property name="audio_index">0</property>
    <property name="video_index">-1</property>
    <property name="creation_time">2025-09-05T10:23:46</property>
    <property name="astream">0</property>
    <property name="shotcut:skipConvert">1</property>
    <property name="shotcut:hash">3e41a0a0e36eb0853b350cec23616297</property>
    <property name="shotcut:caption">Street 608 5.m4a</property>
    <property name="xml">was here</property>
  </chain>
  <chain id="chain43" out="00:08:26.883">
    <property name="length">00:08:26.900</property>
    <property name="eof">pause</property>
    <property name="resource">/home/jame/Music/lab 02/Street 608 5.m4a</property>
    <property name="mlt_service">avformat-novalidate</property>
    <property name="meta.media.nb_streams">1</property>
    <property name="meta.media.0.stream.type">audio</property>
    <property name="meta.media.0.codec.sample_fmt">fltp</property>
    <property name="meta.media.0.codec.sample_rate">48000</property>
    <property name="meta.media.0.codec.channels">1</property>
    <property name="meta.media.0.codec.layout">mono</property>
    <property name="meta.media.0.codec.name">aac</property>
    <property name="meta.media.0.codec.long_name">AAC (Advanced Audio Coding)</property>
    <property name="meta.media.0.codec.bit_rate">62726</property>
    <property name="meta.attr.0.stream.creation_time.markup">2025-09-05T10:23:46.000000Z</property>
    <property name="meta.attr.0.stream.handler_name.markup">Core Media Audio</property>
    <property name="meta.attr.0.stream.vendor_id.markup">[0][0][0][0]</property>
    <property name="meta.attr.major_brand.markup">M4A </property>
    <property name="meta.attr.minor_version.markup">0</property>
    <property name="meta.attr.compatible_brands.markup">M4A isommp42</property>
    <property name="meta.attr.creation_time.markup">2025-09-05T10:23:46.000000Z</property>
    <property name="meta.attr.title.markup">Street 608 5</property>
    <property name="meta.attr.voice-memo-uuid.markup">E5404E6B-24DE-423E-818D-CCD59FCAF2CE</property>
    <property name="meta.attr.encoder.markup">com.apple.VoiceMemos (iPhone (null))</property>
    <property name="seekable">1</property>
    <property name="audio_index">0</property>
    <property name="video_index">-1</property>
    <property name="creation_time">2025-09-05T10:23:46</property>
    <property name="astream">0</property>
    <property name="shotcut:skipConvert">1</property>
    <property name="shotcut:hash">3e41a0a0e36eb0853b350cec23616297</property>
    <property name="shotcut:caption">Street 608 5.m4a</property>
    <property name="xml">was here</property>
  </chain>
  <chain id="chain44" out="00:08:26.883">
    <property name="length">00:08:26.900</property>
    <property name="eof">pause</property>
    <property name="resource">/home/jame/Music/lab 02/Street 608 5.m4a</property>
    <property name="mlt_service">avformat-novalidate</property>
    <property name="meta.media.nb_streams">1</property>
    <property name="meta.media.0.stream.type">audio</property>
    <property name="meta.media.0.codec.sample_fmt">fltp</property>
    <property name="meta.media.0.codec.sample_rate">48000</property>
    <property name="meta.media.0.codec.channels">1</property>
    <property name="meta.media.0.codec.layout">mono</property>
    <property name="meta.media.0.codec.name">aac</property>
    <property name="meta.media.0.codec.long_name">AAC (Advanced Audio Coding)</property>
    <property name="meta.media.0.codec.bit_rate">62726</property>
    <property name="meta.attr.0.stream.creation_time.markup">2025-09-05T10:23:46.000000Z</property>
    <property name="meta.attr.0.stream.handler_name.markup">Core Media Audio</property>
    <property name="meta.attr.0.stream.vendor_id.markup">[0][0][0][0]</property>
    <property name="meta.attr.major_brand.markup">M4A </property>
    <property name="meta.attr.minor_version.markup">0</property>
    <property name="meta.attr.compatible_brands.markup">M4A isommp42</property>
    <property name="meta.attr.creation_time.markup">2025-09-05T10:23:46.000000Z</property>
    <property name="meta.attr.title.markup">Street 608 5</property>
    <property name="meta.attr.voice-memo-uuid.markup">E5404E6B-24DE-423E-818D-CCD59FCAF2CE</property>
    <property name="meta.attr.encoder.markup">com.apple.VoiceMemos (iPhone (null))</property>
    <property name="seekable">1</property>
    <property name="audio_index">0</property>
    <property name="video_index">-1</property>
    <property name="creation_time">2025-09-05T10:23:46</property>
    <property name="astream">0</property>
    <property name="shotcut:skipConvert">1</property>
    <property name="shotcut:hash">3e41a0a0e36eb0853b350cec23616297</property>
    <property name="shotcut:caption">Street 608 5.m4a</property>
    <property name="xml">was here</property>
  </chain>
  <chain id="chain45" out="00:08:26.883">
    <property name="length">00:08:26.900</property>
    <property name="eof">pause</property>
    <property name="resource">/home/jame/Music/lab 02/Street 608 5.m4a</property>
    <property name="mlt_service">avformat-novalidate</property>
    <property name="meta.media.nb_streams">1</property>
    <property name="meta.media.0.stream.type">audio</property>
    <property name="meta.media.0.codec.sample_fmt">fltp</property>
    <property name="meta.media.0.codec.sample_rate">48000</property>
    <property name="meta.media.0.codec.channels">1</property>
    <property name="meta.media.0.codec.layout">mono</property>
    <property name="meta.media.0.codec.name">aac</property>
    <property name="meta.media.0.codec.long_name">AAC (Advanced Audio Coding)</property>
    <property name="meta.media.0.codec.bit_rate">62726</property>
    <property name="meta.attr.0.stream.creation_time.markup">2025-09-05T10:23:46.000000Z</property>
    <property name="meta.attr.0.stream.handler_name.markup">Core Media Audio</property>
    <property name="meta.attr.0.stream.vendor_id.markup">[0][0][0][0]</property>
    <property name="meta.attr.major_brand.markup">M4A </property>
    <property name="meta.attr.minor_version.markup">0</property>
    <property name="meta.attr.compatible_brands.markup">M4A isommp42</property>
    <property name="meta.attr.creation_time.markup">2025-09-05T10:23:46.000000Z</property>
    <property name="meta.attr.title.markup">Street 608 5</property>
    <property name="meta.attr.voice-memo-uuid.markup">E5404E6B-24DE-423E-818D-CCD59FCAF2CE</property>
    <property name="meta.attr.encoder.markup">com.apple.VoiceMemos (iPhone (null))</property>
    <property name="seekable">1</property>
    <property name="audio_index">0</property>
    <property name="video_index">-1</property>
    <property name="creation_time">2025-09-05T10:23:46</property>
    <property name="astream">0</property>
    <property name="shotcut:skipConvert">1</property>
    <property name="shotcut:hash">3e41a0a0e36eb0853b350cec23616297</property>
    <property name="shotcut:caption">Street 608 5.m4a</property>
    <property name="xml">was here</property>
  </chain>
  <chain id="chain46" out="00:08:26.883">
    <property name="length">00:08:26.900</property>
    <property name="eof">pause</property>
    <property name="resource">/home/jame/Music/lab 02/Street 608 5.m4a</property>
    <property name="mlt_service">avformat-novalidate</property>
    <property name="meta.media.nb_streams">1</property>
    <property name="meta.media.0.stream.type">audio</property>
    <property name="meta.media.0.codec.sample_fmt">fltp</property>
    <property name="meta.media.0.codec.sample_rate">48000</property>
    <property name="meta.media.0.codec.channels">1</property>
    <property name="meta.media.0.codec.layout">mono</property>
    <property name="meta.media.0.codec.name">aac</property>
    <property name="meta.media.0.codec.long_name">AAC (Advanced Audio Coding)</property>
    <property name="meta.media.0.codec.bit_rate">62726</property>
    <property name="meta.attr.0.stream.creation_time.markup">2025-09-05T10:23:46.000000Z</property>
    <property name="meta.attr.0.stream.handler_name.markup">Core Media Audio</property>
    <property name="meta.attr.0.stream.vendor_id.markup">[0][0][0][0]</property>
    <property name="meta.attr.major_brand.markup">M4A </property>
    <property name="meta.attr.minor_version.markup">0</property>
    <property name="meta.attr.compatible_brands.markup">M4A isommp42</property>
    <property name="meta.attr.creation_time.markup">2025-09-05T10:23:46.000000Z</property>
    <property name="meta.attr.title.markup">Street 608 5</property>
    <property name="meta.attr.voice-memo-uuid.markup">E5404E6B-24DE-423E-818D-CCD59FCAF2CE</property>
    <property name="meta.attr.encoder.markup">com.apple.VoiceMemos (iPhone (null))</property>
    <property name="seekable">1</property>
    <property name="audio_index">0</property>
    <property name="video_index">-1</property>
    <property name="creation_time">2025-09-05T10:23:46</property>
    <property name="astream">0</property>
    <property name="shotcut:skipConvert">1</property>
    <property name="shotcut:hash">3e41a0a0e36eb0853b350cec23616297</property>
    <property name="shotcut:caption">Street 608 5.m4a</property>
    <property name="xml">was here</property>
  </chain>
  <chain id="chain47" out="00:08:26.883">
    <property name="length">00:08:26.900</property>
    <property name="eof">pause</property>
    <property name="resource">/home/jame/Music/lab 02/Street 608 5.m4a</property>
    <property name="mlt_service">avformat-novalidate</property>
    <property name="meta.media.nb_streams">1</property>
    <property name="meta.media.0.stream.type">audio</property>
    <property name="meta.media.0.codec.sample_fmt">fltp</property>
    <property name="meta.media.0.codec.sample_rate">48000</property>
    <property name="meta.media.0.codec.channels">1</property>
    <property name="meta.media.0.codec.layout">mono</property>
    <property name="meta.media.0.codec.name">aac</property>
    <property name="meta.media.0.codec.long_name">AAC (Advanced Audio Coding)</property>
    <property name="meta.media.0.codec.bit_rate">62726</property>
    <property name="meta.attr.0.stream.creation_time.markup">2025-09-05T10:23:46.000000Z</property>
    <property name="meta.attr.0.stream.handler_name.markup">Core Media Audio</property>
    <property name="meta.attr.0.stream.vendor_id.markup">[0][0][0][0]</property>
    <property name="meta.attr.major_brand.markup">M4A </property>
    <property name="meta.attr.minor_version.markup">0</property>
    <property name="meta.attr.compatible_brands.markup">M4A isommp42</property>
    <property name="meta.attr.creation_time.markup">2025-09-05T10:23:46.000000Z</property>
    <property name="meta.attr.title.markup">Street 608 5</property>
    <property name="meta.attr.voice-memo-uuid.markup">E5404E6B-24DE-423E-818D-CCD59FCAF2CE</property>
    <property name="meta.attr.encoder.markup">com.apple.VoiceMemos (iPhone (null))</property>
    <property name="seekable">1</property>
    <property name="audio_index">0</property>
    <property name="video_index">-1</property>
    <property name="creation_time">2025-09-05T10:23:46</property>
    <property name="astream">0</property>
    <property name="shotcut:skipConvert">1</property>
    <property name="shotcut:hash">3e41a0a0e36eb0853b350cec23616297</property>
    <property name="shotcut:caption">Street 608 5.m4a</property>
    <property name="xml">was here</property>
  </chain>
  <chain id="chain48" out="00:08:26.883">
    <property name="length">00:08:26.900</property>
    <property name="eof">pause</property>
    <property name="resource">/home/jame/Music/lab 02/Street 608 5.m4a</property>
    <property name="mlt_service">avformat-novalidate</property>
    <property name="meta.media.nb_streams">1</property>
    <property name="meta.media.0.stream.type">audio</property>
    <property name="meta.media.0.codec.sample_fmt">fltp</property>
    <property name="meta.media.0.codec.sample_rate">48000</property>
    <property name="meta.media.0.codec.channels">1</property>
    <property name="meta.media.0.codec.layout">mono</property>
    <property name="meta.media.0.codec.name">aac</property>
    <property name="meta.media.0.codec.long_name">AAC (Advanced Audio Coding)</property>
    <property name="meta.media.0.codec.bit_rate">62726</property>
    <property name="meta.attr.0.stream.creation_time.markup">2025-09-05T10:23:46.000000Z</property>
    <property name="meta.attr.0.stream.handler_name.markup">Core Media Audio</property>
    <property name="meta.attr.0.stream.vendor_id.markup">[0][0][0][0]</property>
    <property name="meta.attr.major_brand.markup">M4A </property>
    <property name="meta.attr.minor_version.markup">0</property>
    <property name="meta.attr.compatible_brands.markup">M4A isommp42</property>
    <property name="meta.attr.creation_time.markup">2025-09-05T10:23:46.000000Z</property>
    <property name="meta.attr.title.markup">Street 608 5</property>
    <property name="meta.attr.voice-memo-uuid.markup">E5404E6B-24DE-423E-818D-CCD59FCAF2CE</property>
    <property name="meta.attr.encoder.markup">com.apple.VoiceMemos (iPhone (null))</property>
    <property name="seekable">1</property>
    <property name="audio_index">0</property>
    <property name="video_index">-1</property>
    <property name="creation_time">2025-09-05T10:23:46</property>
    <property name="astream">0</property>
    <property name="shotcut:skipConvert">1</property>
    <property name="shotcut:hash">3e41a0a0e36eb0853b350cec23616297</property>
    <property name="shotcut:caption">Street 608 5.m4a</property>
    <property name="xml">was here</property>
  </chain>
  <chain id="chain49" out="00:08:26.883">
    <property name="length">00:08:26.900</property>
    <property name="eof">pause</property>
    <property name="resource">/home/jame/Music/lab 02/Street 608 5.m4a</property>
    <property name="mlt_service">avformat-novalidate</property>
    <property name="meta.media.nb_streams">1</property>
    <property name="meta.media.0.stream.type">audio</property>
    <property name="meta.media.0.codec.sample_fmt">fltp</property>
    <property name="meta.media.0.codec.sample_rate">48000</property>
    <property name="meta.media.0.codec.channels">1</property>
    <property name="meta.media.0.codec.layout">mono</property>
    <property name="meta.media.0.codec.name">aac</property>
    <property name="meta.media.0.codec.long_name">AAC (Advanced Audio Coding)</property>
    <property name="meta.media.0.codec.bit_rate">62726</property>
    <property name="meta.attr.0.stream.creation_time.markup">2025-09-05T10:23:46.000000Z</property>
    <property name="meta.attr.0.stream.handler_name.markup">Core Media Audio</property>
    <property name="meta.attr.0.stream.vendor_id.markup">[0][0][0][0]</property>
    <property name="meta.attr.major_brand.markup">M4A </property>
    <property name="meta.attr.minor_version.markup">0</property>
    <property name="meta.attr.compatible_brands.markup">M4A isommp42</property>
    <property name="meta.attr.creation_time.markup">2025-09-05T10:23:46.000000Z</property>
    <property name="meta.attr.title.markup">Street 608 5</property>
    <property name="meta.attr.voice-memo-uuid.markup">E5404E6B-24DE-423E-818D-CCD59FCAF2CE</property>
    <property name="meta.attr.encoder.markup">com.apple.VoiceMemos (iPhone (null))</property>
    <property name="seekable">1</property>
    <property name="audio_index">0</property>
    <property name="video_index">-1</property>
    <property name="creation_time">2025-09-05T10:23:46</property>
    <property name="astream">0</property>
    <property name="shotcut:skipConvert">1</property>
    <property name="shotcut:hash">3e41a0a0e36eb0853b350cec23616297</property>
    <property name="shotcut:caption">Street 608 5.m4a</property>
    <property name="xml">was here</property>
  </chain>
  <chain id="chain50" out="00:08:26.883">
    <property name="length">00:08:26.900</property>
    <property name="eof">pause</property>
    <property name="resource">/home/jame/Music/lab 02/Street 608 5.m4a</property>
    <property name="mlt_service">avformat-novalidate</property>
    <property name="meta.media.nb_streams">1</property>
    <property name="meta.media.0.stream.type">audio</property>
    <property name="meta.media.0.codec.sample_fmt">fltp</property>
    <property name="meta.media.0.codec.sample_rate">48000</property>
    <property name="meta.media.0.codec.channels">1</property>
    <property name="meta.media.0.codec.layout">mono</property>
    <property name="meta.media.0.codec.name">aac</property>
    <property name="meta.media.0.codec.long_name">AAC (Advanced Audio Coding)</property>
    <property name="meta.media.0.codec.bit_rate">62726</property>
    <property name="meta.attr.0.stream.creation_time.markup">2025-09-05T10:23:46.000000Z</property>
    <property name="meta.attr.0.stream.handler_name.markup">Core Media Audio</property>
    <property name="meta.attr.0.stream.vendor_id.markup">[0][0][0][0]</property>
    <property name="meta.attr.major_brand.markup">M4A </property>
    <property name="meta.attr.minor_version.markup">0</property>
    <property name="meta.attr.compatible_brands.markup">M4A isommp42</property>
    <property name="meta.attr.creation_time.markup">2025-09-05T10:23:46.000000Z</property>
    <property name="meta.attr.title.markup">Street 608 5</property>
    <property name="meta.attr.voice-memo-uuid.markup">E5404E6B-24DE-423E-818D-CCD59FCAF2CE</property>
    <property name="meta.attr.encoder.markup">com.apple.VoiceMemos (iPhone (null))</property>
    <property name="seekable">1</property>
    <property name="audio_index">0</property>
    <property name="video_index">-1</property>
    <property name="creation_time">2025-09-05T10:23:46</property>
    <property name="astream">0</property>
    <property name="shotcut:skipConvert">1</property>
    <property name="shotcut:hash">3e41a0a0e36eb0853b350cec23616297</property>
    <property name="shotcut:caption">Street 608 5.m4a</property>
    <property name="xml">was here</property>
  </chain>
  <chain id="chain51" out="00:08:26.883">
    <property name="length">00:08:26.900</property>
    <property name="eof">pause</property>
    <property name="resource">/home/jame/Music/lab 02/Street 608 5.m4a</property>
    <property name="mlt_service">avformat-novalidate</property>
    <property name="meta.media.nb_streams">1</property>
    <property name="meta.media.0.stream.type">audio</property>
    <property name="meta.media.0.codec.sample_fmt">fltp</property>
    <property name="meta.media.0.codec.sample_rate">48000</property>
    <property name="meta.media.0.codec.channels">1</property>
    <property name="meta.media.0.codec.layout">mono</property>
    <property name="meta.media.0.codec.name">aac</property>
    <property name="meta.media.0.codec.long_name">AAC (Advanced Audio Coding)</property>
    <property name="meta.media.0.codec.bit_rate">62726</property>
    <property name="meta.attr.0.stream.creation_time.markup">2025-09-05T10:23:46.000000Z</property>
    <property name="meta.attr.0.stream.handler_name.markup">Core Media Audio</property>
    <property name="meta.attr.0.stream.vendor_id.markup">[0][0][0][0]</property>
    <property name="meta.attr.major_brand.markup">M4A </property>
    <property name="meta.attr.minor_version.markup">0</property>
    <property name="meta.attr.compatible_brands.markup">M4A isommp42</property>
    <property name="meta.attr.creation_time.markup">2025-09-05T10:23:46.000000Z</property>
    <property name="meta.attr.title.markup">Street 608 5</property>
    <property name="meta.attr.voice-memo-uuid.markup">E5404E6B-24DE-423E-818D-CCD59FCAF2CE</property>
    <property name="meta.attr.encoder.markup">com.apple.VoiceMemos (iPhone (null))</property>
    <property name="seekable">1</property>
    <property name="audio_index">0</property>
    <property name="video_index">-1</property>
    <property name="creation_time">2025-09-05T10:23:46</property>
    <property name="astream">0</property>
    <property name="shotcut:skipConvert">1</property>
    <property name="shotcut:hash">3e41a0a0e36eb0853b350cec23616297</property>
    <property name="shotcut:caption">Street 608 5.m4a</property>
    <property name="xml">was here</property>
  </chain>
  <chain id="chain52" out="00:08:26.883">
    <property name="length">00:08:26.900</property>
    <property name="eof">pause</property>
    <property name="resource">/home/jame/Music/lab 02/Street 608 5.m4a</property>
    <property name="mlt_service">avformat-novalidate</property>
    <property name="meta.media.nb_streams">1</property>
    <property name="meta.media.0.stream.type">audio</property>
    <property name="meta.media.0.codec.sample_fmt">fltp</property>
    <property name="meta.media.0.codec.sample_rate">48000</property>
    <property name="meta.media.0.codec.channels">1</property>
    <property name="meta.media.0.codec.layout">mono</property>
    <property name="meta.media.0.codec.name">aac</property>
    <property name="meta.media.0.codec.long_name">AAC (Advanced Audio Coding)</property>
    <property name="meta.media.0.codec.bit_rate">62726</property>
    <property name="meta.attr.0.stream.creation_time.markup">2025-09-05T10:23:46.000000Z</property>
    <property name="meta.attr.0.stream.handler_name.markup">Core Media Audio</property>
    <property name="meta.attr.0.stream.vendor_id.markup">[0][0][0][0]</property>
    <property name="meta.attr.major_brand.markup">M4A </property>
    <property name="meta.attr.minor_version.markup">0</property>
    <property name="meta.attr.compatible_brands.markup">M4A isommp42</property>
    <property name="meta.attr.creation_time.markup">2025-09-05T10:23:46.000000Z</property>
    <property name="meta.attr.title.markup">Street 608 5</property>
    <property name="meta.attr.voice-memo-uuid.markup">E5404E6B-24DE-423E-818D-CCD59FCAF2CE</property>
    <property name="meta.attr.encoder.markup">com.apple.VoiceMemos (iPhone (null))</property>
    <property name="seekable">1</property>
    <property name="audio_index">0</property>
    <property name="video_index">-1</property>
    <property name="creation_time">2025-09-05T10:23:46</property>
    <property name="astream">0</property>
    <property name="shotcut:skipConvert">1</property>
    <property name="shotcut:hash">3e41a0a0e36eb0853b350cec23616297</property>
    <property name="shotcut:caption">Street 608 5.m4a</property>
    <property name="xml">was here</property>
  </chain>
  <chain id="chain53" out="00:08:26.883">
    <property name="length">00:08:26.900</property>
    <property name="eof">pause</property>
    <property name="resource">/home/jame/Music/lab 02/Street 608 5.m4a</property>
    <property name="mlt_service">avformat-novalidate</property>
    <property name="meta.media.nb_streams">1</property>
    <property name="meta.media.0.stream.type">audio</property>
    <property name="meta.media.0.codec.sample_fmt">fltp</property>
    <property name="meta.media.0.codec.sample_rate">48000</property>
    <property name="meta.media.0.codec.channels">1</property>
    <property name="meta.media.0.codec.layout">mono</property>
    <property name="meta.media.0.codec.name">aac</property>
    <property name="meta.media.0.codec.long_name">AAC (Advanced Audio Coding)</property>
    <property name="meta.media.0.codec.bit_rate">62726</property>
    <property name="meta.attr.0.stream.creation_time.markup">2025-09-05T10:23:46.000000Z</property>
    <property name="meta.attr.0.stream.handler_name.markup">Core Media Audio</property>
    <property name="meta.attr.0.stream.vendor_id.markup">[0][0][0][0]</property>
    <property name="meta.attr.major_brand.markup">M4A </property>
    <property name="meta.attr.minor_version.markup">0</property>
    <property name="meta.attr.compatible_brands.markup">M4A isommp42</property>
    <property name="meta.attr.creation_time.markup">2025-09-05T10:23:46.000000Z</property>
    <property name="meta.attr.title.markup">Street 608 5</property>
    <property name="meta.attr.voice-memo-uuid.markup">E5404E6B-24DE-423E-818D-CCD59FCAF2CE</property>
    <property name="meta.attr.encoder.markup">com.apple.VoiceMemos (iPhone (null))</property>
    <property name="seekable">1</property>
    <property name="audio_index">0</property>
    <property name="video_index">-1</property>
    <property name="creation_time">2025-09-05T10:23:46</property>
    <property name="astream">0</property>
    <property name="shotcut:skipConvert">1</property>
    <property name="shotcut:hash">3e41a0a0e36eb0853b350cec23616297</property>
    <property name="shotcut:caption">Street 608 5.m4a</property>
    <property name="xml">was here</property>
  </chain>
  <chain id="chain54" out="00:08:26.883">
    <property name="length">00:08:26.900</property>
    <property name="eof">pause</property>
    <property name="resource">/home/jame/Music/lab 02/Street 608 5.m4a</property>
    <property name="mlt_service">avformat-novalidate</property>
    <property name="meta.media.nb_streams">1</property>
    <property name="meta.media.0.stream.type">audio</property>
    <property name="meta.media.0.codec.sample_fmt">fltp</property>
    <property name="meta.media.0.codec.sample_rate">48000</property>
    <property name="meta.media.0.codec.channels">1</property>
    <property name="meta.media.0.codec.layout">mono</property>
    <property name="meta.media.0.codec.name">aac</property>
    <property name="meta.media.0.codec.long_name">AAC (Advanced Audio Coding)</property>
    <property name="meta.media.0.codec.bit_rate">62726</property>
    <property name="meta.attr.0.stream.creation_time.markup">2025-09-05T10:23:46.000000Z</property>
    <property name="meta.attr.0.stream.handler_name.markup">Core Media Audio</property>
    <property name="meta.attr.0.stream.vendor_id.markup">[0][0][0][0]</property>
    <property name="meta.attr.major_brand.markup">M4A </property>
    <property name="meta.attr.minor_version.markup">0</property>
    <property name="meta.attr.compatible_brands.markup">M4A isommp42</property>
    <property name="meta.attr.creation_time.markup">2025-09-05T10:23:46.000000Z</property>
    <property name="meta.attr.title.markup">Street 608 5</property>
    <property name="meta.attr.voice-memo-uuid.markup">E5404E6B-24DE-423E-818D-CCD59FCAF2CE</property>
    <property name="meta.attr.encoder.markup">com.apple.VoiceMemos (iPhone (null))</property>
    <property name="seekable">1</property>
    <property name="audio_index">0</property>
    <property name="video_index">-1</property>
    <property name="creation_time">2025-09-05T10:23:46</property>
    <property name="astream">0</property>
    <property name="shotcut:skipConvert">1</property>
    <property name="shotcut:hash">3e41a0a0e36eb0853b350cec23616297</property>
    <property name="shotcut:caption">Street 608 5.m4a</property>
    <property name="xml">was here</property>
  </chain>
  <chain id="chain55" out="00:08:26.883">
    <property name="length">00:08:26.900</property>
    <property name="eof">pause</property>
    <property name="resource">/home/jame/Music/lab 02/Street 608 5.m4a</property>
    <property name="mlt_service">avformat-novalidate</property>
    <property name="meta.media.nb_streams">1</property>
    <property name="meta.media.0.stream.type">audio</property>
    <property name="meta.media.0.codec.sample_fmt">fltp</property>
    <property name="meta.media.0.codec.sample_rate">48000</property>
    <property name="meta.media.0.codec.channels">1</property>
    <property name="meta.media.0.codec.layout">mono</property>
    <property name="meta.media.0.codec.name">aac</property>
    <property name="meta.media.0.codec.long_name">AAC (Advanced Audio Coding)</property>
    <property name="meta.media.0.codec.bit_rate">62726</property>
    <property name="meta.attr.0.stream.creation_time.markup">2025-09-05T10:23:46.000000Z</property>
    <property name="meta.attr.0.stream.handler_name.markup">Core Media Audio</property>
    <property name="meta.attr.0.stream.vendor_id.markup">[0][0][0][0]</property>
    <property name="meta.attr.major_brand.markup">M4A </property>
    <property name="meta.attr.minor_version.markup">0</property>
    <property name="meta.attr.compatible_brands.markup">M4A isommp42</property>
    <property name="meta.attr.creation_time.markup">2025-09-05T10:23:46.000000Z</property>
    <property name="meta.attr.title.markup">Street 608 5</property>
    <property name="meta.attr.voice-memo-uuid.markup">E5404E6B-24DE-423E-818D-CCD59FCAF2CE</property>
    <property name="meta.attr.encoder.markup">com.apple.VoiceMemos (iPhone (null))</property>
    <property name="seekable">1</property>
    <property name="audio_index">0</property>
    <property name="video_index">-1</property>
    <property name="creation_time">2025-09-05T10:23:46</property>
    <property name="astream">0</property>
    <property name="shotcut:skipConvert">1</property>
    <property name="shotcut:hash">3e41a0a0e36eb0853b350cec23616297</property>
    <property name="shotcut:caption">Street 608 5.m4a</property>
    <property name="xml">was here</property>
  </chain>
  <chain id="chain56" out="00:08:26.883">
    <property name="length">00:08:26.900</property>
    <property name="eof">pause</property>
    <property name="resource">/home/jame/Music/lab 02/Street 608 5.m4a</property>
    <property name="mlt_service">avformat-novalidate</property>
    <property name="meta.media.nb_streams">1</property>
    <property name="meta.media.0.stream.type">audio</property>
    <property name="meta.media.0.codec.sample_fmt">fltp</property>
    <property name="meta.media.0.codec.sample_rate">48000</property>
    <property name="meta.media.0.codec.channels">1</property>
    <property name="meta.media.0.codec.layout">mono</property>
    <property name="meta.media.0.codec.name">aac</property>
    <property name="meta.media.0.codec.long_name">AAC (Advanced Audio Coding)</property>
    <property name="meta.media.0.codec.bit_rate">62726</property>
    <property name="meta.attr.0.stream.creation_time.markup">2025-09-05T10:23:46.000000Z</property>
    <property name="meta.attr.0.stream.handler_name.markup">Core Media Audio</property>
    <property name="meta.attr.0.stream.vendor_id.markup">[0][0][0][0]</property>
    <property name="meta.attr.major_brand.markup">M4A </property>
    <property name="meta.attr.minor_version.markup">0</property>
    <property name="meta.attr.compatible_brands.markup">M4A isommp42</property>
    <property name="meta.attr.creation_time.markup">2025-09-05T10:23:46.000000Z</property>
    <property name="meta.attr.title.markup">Street 608 5</property>
    <property name="meta.attr.voice-memo-uuid.markup">E5404E6B-24DE-423E-818D-CCD59FCAF2CE</property>
    <property name="meta.attr.encoder.markup">com.apple.VoiceMemos (iPhone (null))</property>
    <property name="seekable">1</property>
    <property name="audio_index">0</property>
    <property name="video_index">-1</property>
    <property name="creation_time">2025-09-05T10:23:46</property>
    <property name="astream">0</property>
    <property name="shotcut:skipConvert">1</property>
    <property name="shotcut:hash">3e41a0a0e36eb0853b350cec23616297</property>
    <property name="shotcut:caption">Street 608 5.m4a</property>
    <property name="xml">was here</property>
  </chain>
  <chain id="chain57" out="00:08:26.883">
    <property name="length">00:08:26.900</property>
    <property name="eof">pause</property>
    <property name="resource">/home/jame/Music/lab 02/Street 608 5.m4a</property>
    <property name="mlt_service">avformat-novalidate</property>
    <property name="meta.media.nb_streams">1</property>
    <property name="meta.media.0.stream.type">audio</property>
    <property name="meta.media.0.codec.sample_fmt">fltp</property>
    <property name="meta.media.0.codec.sample_rate">48000</property>
    <property name="meta.media.0.codec.channels">1</property>
    <property name="meta.media.0.codec.layout">mono</property>
    <property name="meta.media.0.codec.name">aac</property>
    <property name="meta.media.0.codec.long_name">AAC (Advanced Audio Coding)</property>
    <property name="meta.media.0.codec.bit_rate">62726</property>
    <property name="meta.attr.0.stream.creation_time.markup">2025-09-05T10:23:46.000000Z</property>
    <property name="meta.attr.0.stream.handler_name.markup">Core Media Audio</property>
    <property name="meta.attr.0.stream.vendor_id.markup">[0][0][0][0]</property>
    <property name="meta.attr.major_brand.markup">M4A </property>
    <property name="meta.attr.minor_version.markup">0</property>
    <property name="meta.attr.compatible_brands.markup">M4A isommp42</property>
    <property name="meta.attr.creation_time.markup">2025-09-05T10:23:46.000000Z</property>
    <property name="meta.attr.title.markup">Street 608 5</property>
    <property name="meta.attr.voice-memo-uuid.markup">E5404E6B-24DE-423E-818D-CCD59FCAF2CE</property>
    <property name="meta.attr.encoder.markup">com.apple.VoiceMemos (iPhone (null))</property>
    <property name="seekable">1</property>
    <property name="audio_index">0</property>
    <property name="video_index">-1</property>
    <property name="creation_time">2025-09-05T10:23:46</property>
    <property name="astream">0</property>
    <property name="shotcut:skipConvert">1</property>
    <property name="shotcut:hash">3e41a0a0e36eb0853b350cec23616297</property>
    <property name="shotcut:caption">Street 608 5.m4a</property>
    <property name="xml">was here</property>
  </chain>
  <chain id="chain58" out="00:08:26.883">
    <property name="length">00:08:26.900</property>
    <property name="eof">pause</property>
    <property name="resource">/home/jame/Music/lab 02/Street 608 5.m4a</property>
    <property name="mlt_service">avformat-novalidate</property>
    <property name="meta.media.nb_streams">1</property>
    <property name="meta.media.0.stream.type">audio</property>
    <property name="meta.media.0.codec.sample_fmt">fltp</property>
    <property name="meta.media.0.codec.sample_rate">48000</property>
    <property name="meta.media.0.codec.channels">1</property>
    <property name="meta.media.0.codec.layout">mono</property>
    <property name="meta.media.0.codec.name">aac</property>
    <property name="meta.media.0.codec.long_name">AAC (Advanced Audio Coding)</property>
    <property name="meta.media.0.codec.bit_rate">62726</property>
    <property name="meta.attr.0.stream.creation_time.markup">2025-09-05T10:23:46.000000Z</property>
    <property name="meta.attr.0.stream.handler_name.markup">Core Media Audio</property>
    <property name="meta.attr.0.stream.vendor_id.markup">[0][0][0][0]</property>
    <property name="meta.attr.major_brand.markup">M4A </property>
    <property name="meta.attr.minor_version.markup">0</property>
    <property name="meta.attr.compatible_brands.markup">M4A isommp42</property>
    <property name="meta.attr.creation_time.markup">2025-09-05T10:23:46.000000Z</property>
    <property name="meta.attr.title.markup">Street 608 5</property>
    <property name="meta.attr.voice-memo-uuid.markup">E5404E6B-24DE-423E-818D-CCD59FCAF2CE</property>
    <property name="meta.attr.encoder.markup">com.apple.VoiceMemos (iPhone (null))</property>
    <property name="seekable">1</property>
    <property name="audio_index">0</property>
    <property name="video_index">-1</property>
    <property name="creation_time">2025-09-05T10:23:46</property>
    <property name="astream">0</property>
    <property name="shotcut:skipConvert">1</property>
    <property name="shotcut:hash">3e41a0a0e36eb0853b350cec23616297</property>
    <property name="shotcut:caption">Street 608 5.m4a</property>
    <property name="xml">was here</property>
  </chain>
  <playlist id="playlist1">
    <property name="shotcut:audio">1</property>
    <property name="shotcut:name">A1</property>
    <entry producer="chain19" in="00:00:00.000" out="00:00:16.533"/>
    <entry producer="chain20" in="00:00:20.350" out="00:00:32.150"/>
    <blank length="00:00:03.450"/>
    <entry producer="chain21" in="00:00:32.167" out="00:00:40.633"/>
    <blank length="00:00:38.750"/>
    <entry producer="chain22" in="00:00:58.250" out="00:01:03.383"/>
    <blank length="00:00:15.033"/>
    <entry producer="chain23" in="00:01:24.667" out="00:01:29.733"/>
    <blank length="00:00:13.067"/>
    <entry producer="chain24" in="00:01:36.100" out="00:02:27.867"/>
    <blank length="00:00:10.050"/>
    <entry producer="chain25" in="00:02:41.933" out="00:03:02.767"/>
    <entry producer="chain26" in="00:03:07.167" out="00:03:48.867"/>
    <blank length="00:00:04.317"/>
    <entry producer="chain27" in="00:03:48.883" out="00:03:59.767"/>
    <blank length="00:00:27.783"/>
    <entry producer="chain28" in="00:04:29.317" out="00:04:33.567"/>
    <blank length="00:00:18.417"/>
    <entry producer="chain29" in="00:04:50.050" out="00:05:02.383"/>
    <blank length="00:01:05.533"/>
    <entry producer="chain30" in="00:05:31.950" out="00:05:41.817"/>
    <blank length="00:01:57.800"/>
    <entry producer="chain31" in="00:06:17.183" out="00:06:30.700"/>
    <blank length="00:00:42.417"/>
    <entry producer="chain32" in="00:07:00.400" out="00:07:16.050"/>
    <blank length="00:00:51.383"/>
    <entry producer="chain33" in="00:07:24.183" out="00:07:30.767"/>
    <blank length="00:00:12.083"/>
    <entry producer="chain34" in="00:07:46.417" out="00:08:40.950"/>
    <entry producer="chain35" in="00:08:59.350" out="00:09:04.000"/>
    <blank length="00:00:05.733"/>
    <entry producer="chain36" in="00:09:09.750" out="00:09:31.617"/>
    <blank length="00:00:24.033"/>
    <entry producer="chain37" in="00:10:01.667" out="00:10:21.600"/>
    <blank length="00:00:05.667"/>
    <entry producer="chain38" in="00:10:27.283" out="00:10:35.300"/>
    <blank length="00:00:11.200"/>
    <entry producer="chain39" in="00:10:54.483" out="00:11:09.800"/>
    <blank length="00:00:10.350"/>
    <entry producer="chain40" in="00:11:20.167" out="00:11:25.433"/>
    <blank length="00:00:08.650"/>
    <entry producer="chain41" in="00:00:08.483" out="00:01:32.233"/>
    <blank length="00:00:40.067"/>
    <entry producer="chain42" in="00:01:32.250" out="00:01:38.017"/>
    <entry producer="chain43" in="00:01:48.383" out="00:01:59.750"/>
    <blank length="00:00:04.850"/>
    <entry producer="chain44" in="00:01:59.767" out="00:02:22.000"/>
    <blank length="00:00:04.483"/>
    <entry producer="chain45" in="00:02:22.017" out="00:02:28.067"/>
    <entry producer="chain46" in="00:02:28.983" out="00:02:50.250"/>
    <blank length="00:00:05.500"/>
    <entry producer="chain47" in="00:03:00.850" out="00:03:08.450"/>
    <blank length="00:00:04.883"/>
    <entry producer="chain48" in="00:03:08.467" out="00:03:29.933"/>
    <entry producer="chain49" in="00:03:31.167" out="00:05:32.100"/>
    <blank length="00:00:27.950"/>
    <entry producer="chain50" in="00:05:58.217" out="00:06:08.400"/>
    <blank length="00:01:37.550"/>
    <entry producer="chain51" in="00:06:28.067" out="00:06:58.733"/>
    <blank length="00:00:20.000"/>
    <entry producer="chain52" in="00:07:03.233" out="00:07:07.500"/>
    <entry producer="chain53" in="00:07:10.433" out="00:07:13.267"/>
    <entry producer="chain54" in="00:07:13.283" out="00:07:39.150"/>
    <entry producer="chain55" in="00:07:47.150" out="00:07:58.733"/>
    <entry producer="chain56" in="00:08:04.033" out="00:08:05.700"/>
    <entry producer="chain57" in="00:08:09.450" out="00:08:10.850"/>
    <entry producer="chain58" in="00:08:18.117" out="00:08:23.683"/>
  </playlist>
  <producer id="producer0" in="00:00:00.000" out="03:59:59.983">
    <property name="length">04:00:00.000</property>
    <property name="eof">pause</property>
    <property name="resource">#FF70393A</property>
    <property name="aspect_ratio">1</property>
    <property name="mlt_service">color</property>
    <property name="mlt_image_format">rgba</property>
    <property name="shotcut:caption">#FF70393A</property>
    <property name="shotcut:detail">#FF70393A</property>
    <property name="xml">was here</property>
    <property name="seekable">1</property>
  </producer>
  <playlist id="playlist2">
    <property name="shotcut:video">1</property>
    <property name="shotcut:name">V2</property>
    <entry producer="producer0" in="00:00:00.000" out="00:00:16.533"/>
  </playlist>
  <producer id="producer1" in="00:00:00.000" out="03:59:59.983">
    <property name="length">04:00:00.000</property>
    <property name="eof">pause</property>
    <property name="resource">#00000000</property>
    <property name="aspect_ratio">1</property>
    <property name="mlt_service">color</property>
    <property name="mlt_image_format">rgba</property>
    <property name="shotcut:caption">transparent</property>
    <property name="shotcut:detail">transparent</property>
    <property name="xml">was here</property>
    <property name="seekable">1</property>
    <property name="meta.shotcut.vui">1</property>
    <filter id="filter6" out="00:00:16.533">
      <property name="argument">        Sou Chanrojame 
Lab 2 - AD DS, DC Promote, and Join Domain</property>
      <property name="geometry">46 295 1157 192 1</property>
      <property name="family">Sans</property>
      <property name="size">360</property>
      <property name="weight">1000</property>
      <property name="style">normal</property>
      <property name="fgcolour">#ffffffff</property>
      <property name="bgcolour">#00000000</property>
      <property name="olcolour">#aa000000</property>
      <property name="pad">0</property>
      <property name="halign">center</property>
      <property name="valign">top</property>
      <property name="outline">3</property>
      <property name="opacity">1</property>
      <property name="mlt_service">dynamictext</property>
      <property name="shotcut:filter">dynamicText</property>
      <property name="shotcut:usePointSize">0</property>
      <property name="shotcut:pointSize">60</property>
      <property name="disable">0</property>
      <property name="shotcut:animIn">0</property>
      <property name="shotcut:animOut">0</property>
    </filter>
  </producer>
  <playlist id="playlist3">
    <property name="shotcut:video">1</property>
    <property name="shotcut:name">V3</property>
    <entry producer="producer1" in="00:00:00.000" out="00:00:16.533"/>
  </playlist>
  <playlist id="playlist4">
    <property name="shotcut:video">1</property>
    <property name="shotcut:name">V4</property>
    <blank length="00:00:00.017"/>
  </playlist>
  <tractor id="tractor0" title="Shotcut version 25.08.16" in="00:00:00.000" out="00:24:10.083">
    <property name="shotcut">1</property>
    <property name="shotcut:projectAudioChannels">2</property>
    <property name="shotcut:projectFolder">0</property>
    <property name="shotcut:trackHeaderWidth">150</property>
    <property name="shotcut:scaleFactor">0.334951</property>
    <property name="shotcut:skipConvert">0</property>
    <track producer="background"/>
    <track producer="playlist0"/>
    <track producer="playlist1" hide="video"/>
    <track producer="playlist2"/>
    <track producer="playlist3"/>
    <track producer="playlist4"/>
    <transition id="transition0">
      <property name="a_track">0</property>
      <property name="b_track">1</property>
      <property name="mlt_service">mix</property>
      <property name="always_active">1</property>
      <property name="sum">1</property>
    </transition>
    <transition id="transition1">
      <property name="a_track">0</property>
      <property name="b_track">1</property>
      <property name="version">0.1</property>
      <property name="mlt_service">frei0r.cairoblend</property>
      <property name="threads">0</property>
      <property name="disable">1</property>
    </transition>
    <transition id="transition2">
      <property name="a_track">0</property>
      <property name="b_track">2</property>
      <property name="mlt_service">mix</property>
      <property name="always_active">1</property>
      <property name="sum">1</property>
    </transition>
    <transition id="transition3">
      <property name="a_track">0</property>
      <property name="b_track">3</property>
      <property name="mlt_service">mix</property>
      <property name="always_active">1</property>
      <property name="sum">1</property>
    </transition>
    <transition id="transition4">
      <property name="a_track">1</property>
      <property name="b_track">3</property>
      <property name="version">0.1</property>
      <property name="mlt_service">frei0r.cairoblend</property>
      <property name="threads">0</property>
      <property name="disable">0</property>
    </transition>
    <transition id="transition5">
      <property name="a_track">0</property>
      <property name="b_track">4</property>
      <property name="mlt_service">mix</property>
      <property name="always_active">1</property>
      <property name="sum">1</property>
    </transition>
    <transition id="transition6">
      <property name="a_track">1</property>
      <property name="b_track">4</property>
      <property name="version">0.1</property>
      <property name="mlt_service">frei0r.cairoblend</property>
      <property name="threads">0</property>
      <property name="disable">0</property>
    </transition>
    <transition id="transition7">
      <property name="a_track">0</property>
      <property name="b_track">5</property>
      <property name="mlt_service">mix</property>
      <property name="always_active">1</property>
      <property name="sum">1</property>
    </transition>
    <transition id="transition8">
      <property name="a_track">1</property>
      <property name="b_track">5</property>
      <property name="version">0.1</property>
      <property name="mlt_service">frei0r.cairoblend</property>
      <property name="threads">0</property>
      <property name="disable">0</property>
    </transition>
  </tractor>
</mlt>
