<?xml version="1.0" standalone="no"?>
<mlt LC_NUMERIC="C" version="7.32.0" title="Shotcut version 25.08.16" producer="main_bin">
  <profile description="PAL 4:3 DV or DVD" width="1280" height="720" progressive="1" sample_aspect_num="1" sample_aspect_den="1" display_aspect_num="16" display_aspect_den="9" frame_rate_num="60" frame_rate_den="1" colorspace="709"/>
  <playlist id="main_bin">
    <property name="xml_retain">1</property>
  </playlist>
  <producer id="black" in="00:00:00.000" out="00:15:13.333">
    <property name="length">00:15:13.350</property>
    <property name="eof">pause</property>
    <property name="resource">0</property>
    <property name="aspect_ratio">1</property>
    <property name="mlt_service">color</property>
    <property name="mlt_image_format">rgba</property>
    <property name="set.test_audio">0</property>
  </producer>
  <playlist id="background">
    <entry producer="black" in="00:00:00.000" out="00:15:13.333"/>
  </playlist>
  <chain id="chain0" out="00:04:50.517">
    <property name="length">00:04:50.533</property>
    <property name="eof">pause</property>
    <property name="resource">/home/jame/Videos/lab 5 - Disk quota/2025-09-28 08-19-01.mkv</property>
    <property name="mlt_service">avformat-novalidate</property>
    <property name="meta.media.nb_streams">2</property>
    <property name="meta.media.0.stream.type">video</property>
    <property name="meta.media.0.stream.frame_rate">30</property>
    <property name="meta.media.0.stream.sample_aspect_ratio">0</property>
    <property name="meta.media.0.codec.width">1920</property>
    <property name="meta.media.0.codec.height">1080</property>
    <property name="meta.media.0.codec.rotate">0</property>
    <property name="meta.media.0.codec.pix_fmt">yuv420p</property>
    <property name="meta.media.0.codec.sample_aspect_ratio">1</property>
    <property name="meta.media.0.codec.colorspace">709</property>
    <property name="meta.media.0.codec.color_trc">1</property>
    <property name="meta.media.0.codec.name">h264</property>
    <property name="meta.media.0.codec.long_name">H.264 / AVC / MPEG-4 AVC / MPEG-4 part 10</property>
    <property name="meta.media.0.codec.bit_rate">0</property>
    <property name="meta.attr.0.stream.DURATION.markup">00:04:50.533000000</property>
    <property name="meta.media.1.stream.type">audio</property>
    <property name="meta.media.1.codec.sample_fmt">fltp</property>
    <property name="meta.media.1.codec.sample_rate">48000</property>
    <property name="meta.media.1.codec.channels">2</property>
    <property name="meta.media.1.codec.layout">stereo</property>
    <property name="meta.media.1.codec.name">aac</property>
    <property name="meta.media.1.codec.long_name">AAC (Advanced Audio Coding)</property>
    <property name="meta.media.1.codec.bit_rate">0</property>
    <property name="meta.attr.1.stream.title.markup">simple_aac</property>
    <property name="meta.attr.1.stream.DURATION.markup">00:04:50.453000000</property>
    <property name="meta.attr.ENCODER.markup">Lavf61.7.100</property>
    <property name="seekable">1</property>
    <property name="meta.media.sample_aspect_num">1</property>
    <property name="meta.media.sample_aspect_den">1</property>
    <property name="format">3</property>
    <property name="audio_index">-1</property>
    <property name="video_index">0</property>
    <property name="creation_time">2025-09-28T01:23:53</property>
    <property name="vstream">0</property>
    <property name="meta.media.frame_rate_num">30</property>
    <property name="meta.media.frame_rate_den">1</property>
    <property name="meta.media.colorspace">709</property>
    <property name="meta.media.color_trc">1</property>
    <property name="meta.media.has_b_frames">2</property>
    <property name="meta.media.width">1920</property>
    <property name="meta.media.height">1080</property>
    <property name="meta.media.aspect_ratio">1</property>
    <property name="meta.media.color_range">mpeg</property>
    <property name="astream">-1</property>
    <property name="shotcut:skipConvert">1</property>
    <property name="shotcut:hash">c260b0466084d837c2ef8861dda887be</property>
    <property name="meta.media.top_field_first">0</property>
    <property name="meta.media.progressive">1</property>
    <property name="shotcut:caption">2025-09-28 08-19-01.mkv</property>
    <property name="shotcut:defaultAudioIndex">1</property>
    <property name="xml">was here</property>
  </chain>
  <chain id="chain1" out="00:04:50.517">
    <property name="length">00:04:50.533</property>
    <property name="eof">pause</property>
    <property name="resource">/home/jame/Videos/lab 5 - Disk quota/2025-09-28 08-19-01.mkv</property>
    <property name="mlt_service">avformat-novalidate</property>
    <property name="meta.media.nb_streams">2</property>
    <property name="meta.media.0.stream.type">video</property>
    <property name="meta.media.0.stream.frame_rate">30</property>
    <property name="meta.media.0.stream.sample_aspect_ratio">0</property>
    <property name="meta.media.0.codec.width">1920</property>
    <property name="meta.media.0.codec.height">1080</property>
    <property name="meta.media.0.codec.rotate">0</property>
    <property name="meta.media.0.codec.pix_fmt">yuv420p</property>
    <property name="meta.media.0.codec.sample_aspect_ratio">1</property>
    <property name="meta.media.0.codec.colorspace">709</property>
    <property name="meta.media.0.codec.color_trc">1</property>
    <property name="meta.media.0.codec.name">h264</property>
    <property name="meta.media.0.codec.long_name">H.264 / AVC / MPEG-4 AVC / MPEG-4 part 10</property>
    <property name="meta.media.0.codec.bit_rate">0</property>
    <property name="meta.attr.0.stream.DURATION.markup">00:04:50.533000000</property>
    <property name="meta.media.1.stream.type">audio</property>
    <property name="meta.media.1.codec.sample_fmt">fltp</property>
    <property name="meta.media.1.codec.sample_rate">48000</property>
    <property name="meta.media.1.codec.channels">2</property>
    <property name="meta.media.1.codec.layout">stereo</property>
    <property name="meta.media.1.codec.name">aac</property>
    <property name="meta.media.1.codec.long_name">AAC (Advanced Audio Coding)</property>
    <property name="meta.media.1.codec.bit_rate">0</property>
    <property name="meta.attr.1.stream.title.markup">simple_aac</property>
    <property name="meta.attr.1.stream.DURATION.markup">00:04:50.453000000</property>
    <property name="meta.attr.ENCODER.markup">Lavf61.7.100</property>
    <property name="seekable">1</property>
    <property name="meta.media.sample_aspect_num">1</property>
    <property name="meta.media.sample_aspect_den">1</property>
    <property name="format">3</property>
    <property name="audio_index">-1</property>
    <property name="video_index">0</property>
    <property name="creation_time">2025-09-28T01:23:53</property>
    <property name="vstream">0</property>
    <property name="meta.media.frame_rate_num">30</property>
    <property name="meta.media.frame_rate_den">1</property>
    <property name="meta.media.colorspace">709</property>
    <property name="meta.media.color_trc">1</property>
    <property name="meta.media.has_b_frames">2</property>
    <property name="meta.media.width">1920</property>
    <property name="meta.media.height">1080</property>
    <property name="meta.media.aspect_ratio">1</property>
    <property name="meta.media.color_range">mpeg</property>
    <property name="astream">-1</property>
    <property name="shotcut:skipConvert">1</property>
    <property name="shotcut:hash">c260b0466084d837c2ef8861dda887be</property>
    <property name="meta.media.top_field_first">0</property>
    <property name="meta.media.progressive">1</property>
    <property name="shotcut:caption">2025-09-28 08-19-01.mkv</property>
    <property name="shotcut:defaultAudioIndex">1</property>
    <property name="xml">was here</property>
  </chain>
  <chain id="chain2" out="00:04:50.517">
    <property name="length">00:04:50.533</property>
    <property name="eof">pause</property>
    <property name="resource">/home/jame/Videos/lab 5 - Disk quota/2025-09-28 08-19-01.mkv</property>
    <property name="mlt_service">avformat-novalidate</property>
    <property name="meta.media.nb_streams">2</property>
    <property name="meta.media.0.stream.type">video</property>
    <property name="meta.media.0.stream.frame_rate">30</property>
    <property name="meta.media.0.stream.sample_aspect_ratio">0</property>
    <property name="meta.media.0.codec.width">1920</property>
    <property name="meta.media.0.codec.height">1080</property>
    <property name="meta.media.0.codec.rotate">0</property>
    <property name="meta.media.0.codec.pix_fmt">yuv420p</property>
    <property name="meta.media.0.codec.sample_aspect_ratio">1</property>
    <property name="meta.media.0.codec.colorspace">709</property>
    <property name="meta.media.0.codec.color_trc">1</property>
    <property name="meta.media.0.codec.name">h264</property>
    <property name="meta.media.0.codec.long_name">H.264 / AVC / MPEG-4 AVC / MPEG-4 part 10</property>
    <property name="meta.media.0.codec.bit_rate">0</property>
    <property name="meta.attr.0.stream.DURATION.markup">00:04:50.533000000</property>
    <property name="meta.media.1.stream.type">audio</property>
    <property name="meta.media.1.codec.sample_fmt">fltp</property>
    <property name="meta.media.1.codec.sample_rate">48000</property>
    <property name="meta.media.1.codec.channels">2</property>
    <property name="meta.media.1.codec.layout">stereo</property>
    <property name="meta.media.1.codec.name">aac</property>
    <property name="meta.media.1.codec.long_name">AAC (Advanced Audio Coding)</property>
    <property name="meta.media.1.codec.bit_rate">0</property>
    <property name="meta.attr.1.stream.title.markup">simple_aac</property>
    <property name="meta.attr.1.stream.DURATION.markup">00:04:50.453000000</property>
    <property name="meta.attr.ENCODER.markup">Lavf61.7.100</property>
    <property name="seekable">1</property>
    <property name="meta.media.sample_aspect_num">1</property>
    <property name="meta.media.sample_aspect_den">1</property>
    <property name="format">3</property>
    <property name="audio_index">-1</property>
    <property name="video_index">0</property>
    <property name="creation_time">2025-09-28T01:23:53</property>
    <property name="vstream">0</property>
    <property name="meta.media.frame_rate_num">30</property>
    <property name="meta.media.frame_rate_den">1</property>
    <property name="meta.media.colorspace">709</property>
    <property name="meta.media.color_trc">1</property>
    <property name="meta.media.has_b_frames">2</property>
    <property name="meta.media.width">1920</property>
    <property name="meta.media.height">1080</property>
    <property name="meta.media.aspect_ratio">1</property>
    <property name="meta.media.color_range">mpeg</property>
    <property name="astream">-1</property>
    <property name="shotcut:skipConvert">1</property>
    <property name="shotcut:hash">c260b0466084d837c2ef8861dda887be</property>
    <property name="meta.media.top_field_first">0</property>
    <property name="meta.media.progressive">1</property>
    <property name="shotcut:caption">2025-09-28 08-19-01.mkv</property>
    <property name="shotcut:defaultAudioIndex">1</property>
    <property name="xml">was here</property>
  </chain>
  <chain id="chain3" out="00:04:50.517">
    <property name="length">00:04:50.533</property>
    <property name="eof">pause</property>
    <property name="resource">/home/jame/Videos/lab 5 - Disk quota/2025-09-28 08-19-01.mkv</property>
    <property name="mlt_service">avformat-novalidate</property>
    <property name="meta.media.nb_streams">2</property>
    <property name="meta.media.0.stream.type">video</property>
    <property name="meta.media.0.stream.frame_rate">30</property>
    <property name="meta.media.0.stream.sample_aspect_ratio">0</property>
    <property name="meta.media.0.codec.width">1920</property>
    <property name="meta.media.0.codec.height">1080</property>
    <property name="meta.media.0.codec.rotate">0</property>
    <property name="meta.media.0.codec.pix_fmt">yuv420p</property>
    <property name="meta.media.0.codec.sample_aspect_ratio">1</property>
    <property name="meta.media.0.codec.colorspace">709</property>
    <property name="meta.media.0.codec.color_trc">1</property>
    <property name="meta.media.0.codec.name">h264</property>
    <property name="meta.media.0.codec.long_name">H.264 / AVC / MPEG-4 AVC / MPEG-4 part 10</property>
    <property name="meta.media.0.codec.bit_rate">0</property>
    <property name="meta.attr.0.stream.DURATION.markup">00:04:50.533000000</property>
    <property name="meta.media.1.stream.type">audio</property>
    <property name="meta.media.1.codec.sample_fmt">fltp</property>
    <property name="meta.media.1.codec.sample_rate">48000</property>
    <property name="meta.media.1.codec.channels">2</property>
    <property name="meta.media.1.codec.layout">stereo</property>
    <property name="meta.media.1.codec.name">aac</property>
    <property name="meta.media.1.codec.long_name">AAC (Advanced Audio Coding)</property>
    <property name="meta.media.1.codec.bit_rate">0</property>
    <property name="meta.attr.1.stream.title.markup">simple_aac</property>
    <property name="meta.attr.1.stream.DURATION.markup">00:04:50.453000000</property>
    <property name="meta.attr.ENCODER.markup">Lavf61.7.100</property>
    <property name="seekable">1</property>
    <property name="meta.media.sample_aspect_num">1</property>
    <property name="meta.media.sample_aspect_den">1</property>
    <property name="format">3</property>
    <property name="audio_index">-1</property>
    <property name="video_index">0</property>
    <property name="creation_time">2025-09-28T01:23:53</property>
    <property name="vstream">0</property>
    <property name="meta.media.frame_rate_num">30</property>
    <property name="meta.media.frame_rate_den">1</property>
    <property name="meta.media.colorspace">709</property>
    <property name="meta.media.color_trc">1</property>
    <property name="meta.media.has_b_frames">2</property>
    <property name="meta.media.width">1920</property>
    <property name="meta.media.height">1080</property>
    <property name="meta.media.aspect_ratio">1</property>
    <property name="meta.media.color_range">mpeg</property>
    <property name="astream">-1</property>
    <property name="shotcut:skipConvert">1</property>
    <property name="shotcut:hash">c260b0466084d837c2ef8861dda887be</property>
    <property name="meta.media.top_field_first">0</property>
    <property name="meta.media.progressive">1</property>
    <property name="shotcut:caption">2025-09-28 08-19-01.mkv</property>
    <property name="shotcut:defaultAudioIndex">1</property>
    <property name="xml">was here</property>
  </chain>
  <chain id="chain4" out="00:04:50.517">
    <property name="length">00:04:50.533</property>
    <property name="eof">pause</property>
    <property name="resource">/home/jame/Videos/lab 5 - Disk quota/2025-09-28 08-19-01.mkv</property>
    <property name="mlt_service">avformat-novalidate</property>
    <property name="meta.media.nb_streams">2</property>
    <property name="meta.media.0.stream.type">video</property>
    <property name="meta.media.0.stream.frame_rate">30</property>
    <property name="meta.media.0.stream.sample_aspect_ratio">0</property>
    <property name="meta.media.0.codec.width">1920</property>
    <property name="meta.media.0.codec.height">1080</property>
    <property name="meta.media.0.codec.rotate">0</property>
    <property name="meta.media.0.codec.pix_fmt">yuv420p</property>
    <property name="meta.media.0.codec.sample_aspect_ratio">1</property>
    <property name="meta.media.0.codec.colorspace">709</property>
    <property name="meta.media.0.codec.color_trc">1</property>
    <property name="meta.media.0.codec.name">h264</property>
    <property name="meta.media.0.codec.long_name">H.264 / AVC / MPEG-4 AVC / MPEG-4 part 10</property>
    <property name="meta.media.0.codec.bit_rate">0</property>
    <property name="meta.attr.0.stream.DURATION.markup">00:04:50.533000000</property>
    <property name="meta.media.1.stream.type">audio</property>
    <property name="meta.media.1.codec.sample_fmt">fltp</property>
    <property name="meta.media.1.codec.sample_rate">48000</property>
    <property name="meta.media.1.codec.channels">2</property>
    <property name="meta.media.1.codec.layout">stereo</property>
    <property name="meta.media.1.codec.name">aac</property>
    <property name="meta.media.1.codec.long_name">AAC (Advanced Audio Coding)</property>
    <property name="meta.media.1.codec.bit_rate">0</property>
    <property name="meta.attr.1.stream.title.markup">simple_aac</property>
    <property name="meta.attr.1.stream.DURATION.markup">00:04:50.453000000</property>
    <property name="meta.attr.ENCODER.markup">Lavf61.7.100</property>
    <property name="seekable">1</property>
    <property name="meta.media.sample_aspect_num">1</property>
    <property name="meta.media.sample_aspect_den">1</property>
    <property name="format">3</property>
    <property name="audio_index">-1</property>
    <property name="video_index">0</property>
    <property name="creation_time">2025-09-28T01:23:53</property>
    <property name="vstream">0</property>
    <property name="meta.media.frame_rate_num">30</property>
    <property name="meta.media.frame_rate_den">1</property>
    <property name="meta.media.colorspace">709</property>
    <property name="meta.media.color_trc">1</property>
    <property name="meta.media.has_b_frames">2</property>
    <property name="meta.media.width">1920</property>
    <property name="meta.media.height">1080</property>
    <property name="meta.media.aspect_ratio">1</property>
    <property name="meta.media.color_range">mpeg</property>
    <property name="astream">-1</property>
    <property name="shotcut:skipConvert">1</property>
    <property name="shotcut:hash">c260b0466084d837c2ef8861dda887be</property>
    <property name="meta.media.top_field_first">0</property>
    <property name="meta.media.progressive">1</property>
    <property name="shotcut:caption">2025-09-28 08-19-01.mkv</property>
    <property name="shotcut:defaultAudioIndex">1</property>
    <property name="xml">was here</property>
  </chain>
  <chain id="chain5" out="00:05:53.883">
    <property name="length">00:05:53.900</property>
    <property name="eof">pause</property>
    <property name="resource">/home/jame/Videos/lab 5 - Disk quota/2025-09-28 08-32-42.mkv</property>
    <property name="mlt_service">avformat-novalidate</property>
    <property name="meta.media.nb_streams">2</property>
    <property name="meta.media.0.stream.type">video</property>
    <property name="meta.media.0.stream.frame_rate">30</property>
    <property name="meta.media.0.stream.sample_aspect_ratio">0</property>
    <property name="meta.media.0.codec.width">1920</property>
    <property name="meta.media.0.codec.height">1080</property>
    <property name="meta.media.0.codec.rotate">0</property>
    <property name="meta.media.0.codec.pix_fmt">yuv420p</property>
    <property name="meta.media.0.codec.sample_aspect_ratio">1</property>
    <property name="meta.media.0.codec.colorspace">709</property>
    <property name="meta.media.0.codec.color_trc">1</property>
    <property name="meta.media.0.codec.name">h264</property>
    <property name="meta.media.0.codec.long_name">H.264 / AVC / MPEG-4 AVC / MPEG-4 part 10</property>
    <property name="meta.media.0.codec.bit_rate">0</property>
    <property name="meta.attr.0.stream.DURATION.markup">00:05:53.900000000</property>
    <property name="meta.media.1.stream.type">audio</property>
    <property name="meta.media.1.codec.sample_fmt">fltp</property>
    <property name="meta.media.1.codec.sample_rate">48000</property>
    <property name="meta.media.1.codec.channels">2</property>
    <property name="meta.media.1.codec.layout">stereo</property>
    <property name="meta.media.1.codec.name">aac</property>
    <property name="meta.media.1.codec.long_name">AAC (Advanced Audio Coding)</property>
    <property name="meta.media.1.codec.bit_rate">0</property>
    <property name="meta.attr.1.stream.title.markup">simple_aac</property>
    <property name="meta.attr.1.stream.DURATION.markup">00:05:53.813000000</property>
    <property name="meta.attr.ENCODER.markup">Lavf61.7.100</property>
    <property name="seekable">1</property>
    <property name="meta.media.sample_aspect_num">1</property>
    <property name="meta.media.sample_aspect_den">1</property>
    <property name="format">3</property>
    <property name="audio_index">-1</property>
    <property name="video_index">0</property>
    <property name="creation_time">2025-09-28T01:38:39</property>
    <property name="vstream">0</property>
    <property name="meta.media.frame_rate_num">30</property>
    <property name="meta.media.frame_rate_den">1</property>
    <property name="meta.media.colorspace">709</property>
    <property name="meta.media.color_trc">1</property>
    <property name="meta.media.has_b_frames">2</property>
    <property name="meta.media.width">1920</property>
    <property name="meta.media.height">1080</property>
    <property name="meta.media.aspect_ratio">1</property>
    <property name="meta.media.color_range">mpeg</property>
    <property name="astream">-1</property>
    <property name="shotcut:skipConvert">1</property>
    <property name="shotcut:hash">5e8572bfe2902657ed5d348a87abb660</property>
    <property name="meta.media.top_field_first">0</property>
    <property name="meta.media.progressive">1</property>
    <property name="shotcut:caption">2025-09-28 08-32-42.mkv</property>
    <property name="shotcut:defaultAudioIndex">1</property>
    <property name="xml">was here</property>
  </chain>
  <chain id="chain6" out="00:05:53.883">
    <property name="length">00:05:53.900</property>
    <property name="eof">pause</property>
    <property name="resource">/home/jame/Videos/lab 5 - Disk quota/2025-09-28 08-32-42.mkv</property>
    <property name="mlt_service">avformat-novalidate</property>
    <property name="meta.media.nb_streams">2</property>
    <property name="meta.media.0.stream.type">video</property>
    <property name="meta.media.0.stream.frame_rate">30</property>
    <property name="meta.media.0.stream.sample_aspect_ratio">0</property>
    <property name="meta.media.0.codec.width">1920</property>
    <property name="meta.media.0.codec.height">1080</property>
    <property name="meta.media.0.codec.rotate">0</property>
    <property name="meta.media.0.codec.pix_fmt">yuv420p</property>
    <property name="meta.media.0.codec.sample_aspect_ratio">1</property>
    <property name="meta.media.0.codec.colorspace">709</property>
    <property name="meta.media.0.codec.color_trc">1</property>
    <property name="meta.media.0.codec.name">h264</property>
    <property name="meta.media.0.codec.long_name">H.264 / AVC / MPEG-4 AVC / MPEG-4 part 10</property>
    <property name="meta.media.0.codec.bit_rate">0</property>
    <property name="meta.attr.0.stream.DURATION.markup">00:05:53.900000000</property>
    <property name="meta.media.1.stream.type">audio</property>
    <property name="meta.media.1.codec.sample_fmt">fltp</property>
    <property name="meta.media.1.codec.sample_rate">48000</property>
    <property name="meta.media.1.codec.channels">2</property>
    <property name="meta.media.1.codec.layout">stereo</property>
    <property name="meta.media.1.codec.name">aac</property>
    <property name="meta.media.1.codec.long_name">AAC (Advanced Audio Coding)</property>
    <property name="meta.media.1.codec.bit_rate">0</property>
    <property name="meta.attr.1.stream.title.markup">simple_aac</property>
    <property name="meta.attr.1.stream.DURATION.markup">00:05:53.813000000</property>
    <property name="meta.attr.ENCODER.markup">Lavf61.7.100</property>
    <property name="seekable">1</property>
    <property name="meta.media.sample_aspect_num">1</property>
    <property name="meta.media.sample_aspect_den">1</property>
    <property name="format">3</property>
    <property name="audio_index">-1</property>
    <property name="video_index">0</property>
    <property name="creation_time">2025-09-28T01:38:39</property>
    <property name="vstream">0</property>
    <property name="meta.media.frame_rate_num">30</property>
    <property name="meta.media.frame_rate_den">1</property>
    <property name="meta.media.colorspace">709</property>
    <property name="meta.media.color_trc">1</property>
    <property name="meta.media.has_b_frames">2</property>
    <property name="meta.media.width">1920</property>
    <property name="meta.media.height">1080</property>
    <property name="meta.media.aspect_ratio">1</property>
    <property name="meta.media.color_range">mpeg</property>
    <property name="astream">-1</property>
    <property name="shotcut:skipConvert">1</property>
    <property name="shotcut:hash">5e8572bfe2902657ed5d348a87abb660</property>
    <property name="meta.media.top_field_first">0</property>
    <property name="meta.media.progressive">1</property>
    <property name="shotcut:caption">2025-09-28 08-32-42.mkv</property>
    <property name="shotcut:defaultAudioIndex">1</property>
    <property name="xml">was here</property>
  </chain>
  <chain id="chain7" out="00:05:53.883">
    <property name="length">00:05:53.900</property>
    <property name="eof">pause</property>
    <property name="resource">/home/jame/Videos/lab 5 - Disk quota/2025-09-28 08-32-42.mkv</property>
    <property name="mlt_service">avformat-novalidate</property>
    <property name="meta.media.nb_streams">2</property>
    <property name="meta.media.0.stream.type">video</property>
    <property name="meta.media.0.stream.frame_rate">30</property>
    <property name="meta.media.0.stream.sample_aspect_ratio">0</property>
    <property name="meta.media.0.codec.width">1920</property>
    <property name="meta.media.0.codec.height">1080</property>
    <property name="meta.media.0.codec.rotate">0</property>
    <property name="meta.media.0.codec.pix_fmt">yuv420p</property>
    <property name="meta.media.0.codec.sample_aspect_ratio">1</property>
    <property name="meta.media.0.codec.colorspace">709</property>
    <property name="meta.media.0.codec.color_trc">1</property>
    <property name="meta.media.0.codec.name">h264</property>
    <property name="meta.media.0.codec.long_name">H.264 / AVC / MPEG-4 AVC / MPEG-4 part 10</property>
    <property name="meta.media.0.codec.bit_rate">0</property>
    <property name="meta.attr.0.stream.DURATION.markup">00:05:53.900000000</property>
    <property name="meta.media.1.stream.type">audio</property>
    <property name="meta.media.1.codec.sample_fmt">fltp</property>
    <property name="meta.media.1.codec.sample_rate">48000</property>
    <property name="meta.media.1.codec.channels">2</property>
    <property name="meta.media.1.codec.layout">stereo</property>
    <property name="meta.media.1.codec.name">aac</property>
    <property name="meta.media.1.codec.long_name">AAC (Advanced Audio Coding)</property>
    <property name="meta.media.1.codec.bit_rate">0</property>
    <property name="meta.attr.1.stream.title.markup">simple_aac</property>
    <property name="meta.attr.1.stream.DURATION.markup">00:05:53.813000000</property>
    <property name="meta.attr.ENCODER.markup">Lavf61.7.100</property>
    <property name="seekable">1</property>
    <property name="meta.media.sample_aspect_num">1</property>
    <property name="meta.media.sample_aspect_den">1</property>
    <property name="format">3</property>
    <property name="audio_index">-1</property>
    <property name="video_index">0</property>
    <property name="creation_time">2025-09-28T01:38:39</property>
    <property name="vstream">0</property>
    <property name="meta.media.frame_rate_num">30</property>
    <property name="meta.media.frame_rate_den">1</property>
    <property name="meta.media.colorspace">709</property>
    <property name="meta.media.color_trc">1</property>
    <property name="meta.media.has_b_frames">2</property>
    <property name="meta.media.width">1920</property>
    <property name="meta.media.height">1080</property>
    <property name="meta.media.aspect_ratio">1</property>
    <property name="meta.media.color_range">mpeg</property>
    <property name="astream">-1</property>
    <property name="shotcut:skipConvert">1</property>
    <property name="shotcut:hash">5e8572bfe2902657ed5d348a87abb660</property>
    <property name="meta.media.top_field_first">0</property>
    <property name="meta.media.progressive">1</property>
    <property name="shotcut:caption">2025-09-28 08-32-42.mkv</property>
    <property name="shotcut:defaultAudioIndex">1</property>
    <property name="xml">was here</property>
  </chain>
  <chain id="chain8" out="00:05:53.883">
    <property name="length">00:05:53.900</property>
    <property name="eof">pause</property>
    <property name="resource">/home/jame/Videos/lab 5 - Disk quota/2025-09-28 08-32-42.mkv</property>
    <property name="mlt_service">avformat-novalidate</property>
    <property name="meta.media.nb_streams">2</property>
    <property name="meta.media.0.stream.type">video</property>
    <property name="meta.media.0.stream.frame_rate">30</property>
    <property name="meta.media.0.stream.sample_aspect_ratio">0</property>
    <property name="meta.media.0.codec.width">1920</property>
    <property name="meta.media.0.codec.height">1080</property>
    <property name="meta.media.0.codec.rotate">0</property>
    <property name="meta.media.0.codec.pix_fmt">yuv420p</property>
    <property name="meta.media.0.codec.sample_aspect_ratio">1</property>
    <property name="meta.media.0.codec.colorspace">709</property>
    <property name="meta.media.0.codec.color_trc">1</property>
    <property name="meta.media.0.codec.name">h264</property>
    <property name="meta.media.0.codec.long_name">H.264 / AVC / MPEG-4 AVC / MPEG-4 part 10</property>
    <property name="meta.media.0.codec.bit_rate">0</property>
    <property name="meta.attr.0.stream.DURATION.markup">00:05:53.900000000</property>
    <property name="meta.media.1.stream.type">audio</property>
    <property name="meta.media.1.codec.sample_fmt">fltp</property>
    <property name="meta.media.1.codec.sample_rate">48000</property>
    <property name="meta.media.1.codec.channels">2</property>
    <property name="meta.media.1.codec.layout">stereo</property>
    <property name="meta.media.1.codec.name">aac</property>
    <property name="meta.media.1.codec.long_name">AAC (Advanced Audio Coding)</property>
    <property name="meta.media.1.codec.bit_rate">0</property>
    <property name="meta.attr.1.stream.title.markup">simple_aac</property>
    <property name="meta.attr.1.stream.DURATION.markup">00:05:53.813000000</property>
    <property name="meta.attr.ENCODER.markup">Lavf61.7.100</property>
    <property name="seekable">1</property>
    <property name="meta.media.sample_aspect_num">1</property>
    <property name="meta.media.sample_aspect_den">1</property>
    <property name="format">3</property>
    <property name="audio_index">-1</property>
    <property name="video_index">0</property>
    <property name="creation_time">2025-09-28T01:38:39</property>
    <property name="vstream">0</property>
    <property name="meta.media.frame_rate_num">30</property>
    <property name="meta.media.frame_rate_den">1</property>
    <property name="meta.media.colorspace">709</property>
    <property name="meta.media.color_trc">1</property>
    <property name="meta.media.has_b_frames">2</property>
    <property name="meta.media.width">1920</property>
    <property name="meta.media.height">1080</property>
    <property name="meta.media.aspect_ratio">1</property>
    <property name="meta.media.color_range">mpeg</property>
    <property name="astream">-1</property>
    <property name="shotcut:skipConvert">1</property>
    <property name="shotcut:hash">5e8572bfe2902657ed5d348a87abb660</property>
    <property name="meta.media.top_field_first">0</property>
    <property name="meta.media.progressive">1</property>
    <property name="shotcut:caption">2025-09-28 08-32-42.mkv</property>
    <property name="shotcut:defaultAudioIndex">1</property>
    <property name="xml">was here</property>
  </chain>
  <chain id="chain9" out="00:05:53.883">
    <property name="length">00:05:53.900</property>
    <property name="eof">pause</property>
    <property name="resource">/home/jame/Videos/lab 5 - Disk quota/2025-09-28 08-32-42.mkv</property>
    <property name="mlt_service">avformat-novalidate</property>
    <property name="meta.media.nb_streams">2</property>
    <property name="meta.media.0.stream.type">video</property>
    <property name="meta.media.0.stream.frame_rate">30</property>
    <property name="meta.media.0.stream.sample_aspect_ratio">0</property>
    <property name="meta.media.0.codec.width">1920</property>
    <property name="meta.media.0.codec.height">1080</property>
    <property name="meta.media.0.codec.rotate">0</property>
    <property name="meta.media.0.codec.pix_fmt">yuv420p</property>
    <property name="meta.media.0.codec.sample_aspect_ratio">1</property>
    <property name="meta.media.0.codec.colorspace">709</property>
    <property name="meta.media.0.codec.color_trc">1</property>
    <property name="meta.media.0.codec.name">h264</property>
    <property name="meta.media.0.codec.long_name">H.264 / AVC / MPEG-4 AVC / MPEG-4 part 10</property>
    <property name="meta.media.0.codec.bit_rate">0</property>
    <property name="meta.attr.0.stream.DURATION.markup">00:05:53.900000000</property>
    <property name="meta.media.1.stream.type">audio</property>
    <property name="meta.media.1.codec.sample_fmt">fltp</property>
    <property name="meta.media.1.codec.sample_rate">48000</property>
    <property name="meta.media.1.codec.channels">2</property>
    <property name="meta.media.1.codec.layout">stereo</property>
    <property name="meta.media.1.codec.name">aac</property>
    <property name="meta.media.1.codec.long_name">AAC (Advanced Audio Coding)</property>
    <property name="meta.media.1.codec.bit_rate">0</property>
    <property name="meta.attr.1.stream.title.markup">simple_aac</property>
    <property name="meta.attr.1.stream.DURATION.markup">00:05:53.813000000</property>
    <property name="meta.attr.ENCODER.markup">Lavf61.7.100</property>
    <property name="seekable">1</property>
    <property name="meta.media.sample_aspect_num">1</property>
    <property name="meta.media.sample_aspect_den">1</property>
    <property name="format">3</property>
    <property name="audio_index">-1</property>
    <property name="video_index">0</property>
    <property name="creation_time">2025-09-28T01:38:39</property>
    <property name="vstream">0</property>
    <property name="meta.media.frame_rate_num">30</property>
    <property name="meta.media.frame_rate_den">1</property>
    <property name="meta.media.colorspace">709</property>
    <property name="meta.media.color_trc">1</property>
    <property name="meta.media.has_b_frames">2</property>
    <property name="meta.media.width">1920</property>
    <property name="meta.media.height">1080</property>
    <property name="meta.media.aspect_ratio">1</property>
    <property name="meta.media.color_range">mpeg</property>
    <property name="astream">-1</property>
    <property name="shotcut:skipConvert">1</property>
    <property name="shotcut:hash">5e8572bfe2902657ed5d348a87abb660</property>
    <property name="meta.media.top_field_first">0</property>
    <property name="meta.media.progressive">1</property>
    <property name="shotcut:caption">2025-09-28 08-32-42.mkv</property>
    <property name="shotcut:defaultAudioIndex">1</property>
    <property name="xml">was here</property>
  </chain>
  <chain id="chain10" out="00:05:53.883">
    <property name="length">00:05:53.900</property>
    <property name="eof">pause</property>
    <property name="resource">/home/jame/Videos/lab 5 - Disk quota/2025-09-28 08-32-42.mkv</property>
    <property name="mlt_service">avformat-novalidate</property>
    <property name="meta.media.nb_streams">2</property>
    <property name="meta.media.0.stream.type">video</property>
    <property name="meta.media.0.stream.frame_rate">30</property>
    <property name="meta.media.0.stream.sample_aspect_ratio">0</property>
    <property name="meta.media.0.codec.width">1920</property>
    <property name="meta.media.0.codec.height">1080</property>
    <property name="meta.media.0.codec.rotate">0</property>
    <property name="meta.media.0.codec.pix_fmt">yuv420p</property>
    <property name="meta.media.0.codec.sample_aspect_ratio">1</property>
    <property name="meta.media.0.codec.colorspace">709</property>
    <property name="meta.media.0.codec.color_trc">1</property>
    <property name="meta.media.0.codec.name">h264</property>
    <property name="meta.media.0.codec.long_name">H.264 / AVC / MPEG-4 AVC / MPEG-4 part 10</property>
    <property name="meta.media.0.codec.bit_rate">0</property>
    <property name="meta.attr.0.stream.DURATION.markup">00:05:53.900000000</property>
    <property name="meta.media.1.stream.type">audio</property>
    <property name="meta.media.1.codec.sample_fmt">fltp</property>
    <property name="meta.media.1.codec.sample_rate">48000</property>
    <property name="meta.media.1.codec.channels">2</property>
    <property name="meta.media.1.codec.layout">stereo</property>
    <property name="meta.media.1.codec.name">aac</property>
    <property name="meta.media.1.codec.long_name">AAC (Advanced Audio Coding)</property>
    <property name="meta.media.1.codec.bit_rate">0</property>
    <property name="meta.attr.1.stream.title.markup">simple_aac</property>
    <property name="meta.attr.1.stream.DURATION.markup">00:05:53.813000000</property>
    <property name="meta.attr.ENCODER.markup">Lavf61.7.100</property>
    <property name="seekable">1</property>
    <property name="meta.media.sample_aspect_num">1</property>
    <property name="meta.media.sample_aspect_den">1</property>
    <property name="format">3</property>
    <property name="audio_index">-1</property>
    <property name="video_index">0</property>
    <property name="creation_time">2025-09-28T01:38:39</property>
    <property name="vstream">0</property>
    <property name="meta.media.frame_rate_num">30</property>
    <property name="meta.media.frame_rate_den">1</property>
    <property name="meta.media.colorspace">709</property>
    <property name="meta.media.color_trc">1</property>
    <property name="meta.media.has_b_frames">2</property>
    <property name="meta.media.width">1920</property>
    <property name="meta.media.height">1080</property>
    <property name="meta.media.aspect_ratio">1</property>
    <property name="meta.media.color_range">mpeg</property>
    <property name="astream">-1</property>
    <property name="shotcut:skipConvert">1</property>
    <property name="shotcut:hash">5e8572bfe2902657ed5d348a87abb660</property>
    <property name="meta.media.top_field_first">0</property>
    <property name="meta.media.progressive">1</property>
    <property name="shotcut:caption">2025-09-28 08-32-42.mkv</property>
    <property name="shotcut:defaultAudioIndex">1</property>
    <property name="xml">was here</property>
  </chain>
  <chain id="chain11" out="00:05:53.883">
    <property name="length">00:05:53.900</property>
    <property name="eof">pause</property>
    <property name="resource">/home/jame/Videos/lab 5 - Disk quota/2025-09-28 08-32-42.mkv</property>
    <property name="mlt_service">avformat-novalidate</property>
    <property name="meta.media.nb_streams">2</property>
    <property name="meta.media.0.stream.type">video</property>
    <property name="meta.media.0.stream.frame_rate">30</property>
    <property name="meta.media.0.stream.sample_aspect_ratio">0</property>
    <property name="meta.media.0.codec.width">1920</property>
    <property name="meta.media.0.codec.height">1080</property>
    <property name="meta.media.0.codec.rotate">0</property>
    <property name="meta.media.0.codec.pix_fmt">yuv420p</property>
    <property name="meta.media.0.codec.sample_aspect_ratio">1</property>
    <property name="meta.media.0.codec.colorspace">709</property>
    <property name="meta.media.0.codec.color_trc">1</property>
    <property name="meta.media.0.codec.name">h264</property>
    <property name="meta.media.0.codec.long_name">H.264 / AVC / MPEG-4 AVC / MPEG-4 part 10</property>
    <property name="meta.media.0.codec.bit_rate">0</property>
    <property name="meta.attr.0.stream.DURATION.markup">00:05:53.900000000</property>
    <property name="meta.media.1.stream.type">audio</property>
    <property name="meta.media.1.codec.sample_fmt">fltp</property>
    <property name="meta.media.1.codec.sample_rate">48000</property>
    <property name="meta.media.1.codec.channels">2</property>
    <property name="meta.media.1.codec.layout">stereo</property>
    <property name="meta.media.1.codec.name">aac</property>
    <property name="meta.media.1.codec.long_name">AAC (Advanced Audio Coding)</property>
    <property name="meta.media.1.codec.bit_rate">0</property>
    <property name="meta.attr.1.stream.title.markup">simple_aac</property>
    <property name="meta.attr.1.stream.DURATION.markup">00:05:53.813000000</property>
    <property name="meta.attr.ENCODER.markup">Lavf61.7.100</property>
    <property name="seekable">1</property>
    <property name="meta.media.sample_aspect_num">1</property>
    <property name="meta.media.sample_aspect_den">1</property>
    <property name="format">3</property>
    <property name="audio_index">-1</property>
    <property name="video_index">0</property>
    <property name="creation_time">2025-09-28T01:38:39</property>
    <property name="vstream">0</property>
    <property name="meta.media.frame_rate_num">30</property>
    <property name="meta.media.frame_rate_den">1</property>
    <property name="meta.media.colorspace">709</property>
    <property name="meta.media.color_trc">1</property>
    <property name="meta.media.has_b_frames">2</property>
    <property name="meta.media.width">1920</property>
    <property name="meta.media.height">1080</property>
    <property name="meta.media.aspect_ratio">1</property>
    <property name="meta.media.color_range">mpeg</property>
    <property name="astream">-1</property>
    <property name="shotcut:skipConvert">1</property>
    <property name="shotcut:hash">5e8572bfe2902657ed5d348a87abb660</property>
    <property name="meta.media.top_field_first">0</property>
    <property name="meta.media.progressive">1</property>
    <property name="shotcut:caption">2025-09-28 08-32-42.mkv</property>
    <property name="shotcut:defaultAudioIndex">1</property>
    <property name="xml">was here</property>
  </chain>
  <chain id="chain12" out="00:12:11.583">
    <property name="length">00:12:11.600</property>
    <property name="eof">pause</property>
    <property name="resource">/home/jame/Videos/lab 5 - Disk quota/2025-09-28 08-38-46.mkv</property>
    <property name="mlt_service">avformat-novalidate</property>
    <property name="meta.media.nb_streams">2</property>
    <property name="meta.media.0.stream.type">video</property>
    <property name="meta.media.0.stream.frame_rate">30</property>
    <property name="meta.media.0.stream.sample_aspect_ratio">0</property>
    <property name="meta.media.0.codec.width">1920</property>
    <property name="meta.media.0.codec.height">1080</property>
    <property name="meta.media.0.codec.rotate">0</property>
    <property name="meta.media.0.codec.pix_fmt">yuv420p</property>
    <property name="meta.media.0.codec.sample_aspect_ratio">1</property>
    <property name="meta.media.0.codec.colorspace">709</property>
    <property name="meta.media.0.codec.color_trc">1</property>
    <property name="meta.media.0.codec.name">h264</property>
    <property name="meta.media.0.codec.long_name">H.264 / AVC / MPEG-4 AVC / MPEG-4 part 10</property>
    <property name="meta.media.0.codec.bit_rate">0</property>
    <property name="meta.attr.0.stream.DURATION.markup">00:12:11.600000000</property>
    <property name="meta.media.1.stream.type">audio</property>
    <property name="meta.media.1.codec.sample_fmt">fltp</property>
    <property name="meta.media.1.codec.sample_rate">48000</property>
    <property name="meta.media.1.codec.channels">2</property>
    <property name="meta.media.1.codec.layout">stereo</property>
    <property name="meta.media.1.codec.name">aac</property>
    <property name="meta.media.1.codec.long_name">AAC (Advanced Audio Coding)</property>
    <property name="meta.media.1.codec.bit_rate">0</property>
    <property name="meta.attr.1.stream.title.markup">simple_aac</property>
    <property name="meta.attr.1.stream.DURATION.markup">00:12:11.434000000</property>
    <property name="meta.attr.ENCODER.markup">Lavf61.7.100</property>
    <property name="seekable">1</property>
    <property name="meta.media.sample_aspect_num">1</property>
    <property name="meta.media.sample_aspect_den">1</property>
    <property name="format">3</property>
    <property name="audio_index">1</property>
    <property name="video_index">0</property>
    <property name="creation_time">2025-09-28T01:50:59</property>
    <property name="vstream">0</property>
    <property name="meta.media.frame_rate_num">30</property>
    <property name="meta.media.frame_rate_den">1</property>
    <property name="meta.media.colorspace">709</property>
    <property name="meta.media.color_trc">1</property>
    <property name="meta.media.has_b_frames">2</property>
    <property name="meta.media.width">1920</property>
    <property name="meta.media.height">1080</property>
    <property name="meta.media.aspect_ratio">1</property>
    <property name="meta.media.color_range">mpeg</property>
    <property name="astream">0</property>
    <property name="shotcut:skipConvert">1</property>
    <property name="shotcut:hash">fe203a33333a21dde8837f888d897954</property>
    <property name="meta.media.top_field_first">0</property>
    <property name="meta.media.progressive">1</property>
    <property name="shotcut:caption">2025-09-28 08-38-46.mkv</property>
    <property name="xml">was here</property>
    <filter id="filter0" in="00:00:02.950" out="00:00:41.317">
      <property name="window">75</property>
      <property name="max_gain">20dB</property>
      <property name="level">2</property>
      <property name="mlt_service">volume</property>
      <property name="shotcut:filter">audioGain</property>
    </filter>
  </chain>
  <chain id="chain13" out="00:12:11.583">
    <property name="length">00:12:11.600</property>
    <property name="eof">pause</property>
    <property name="resource">/home/jame/Videos/lab 5 - Disk quota/2025-09-28 08-38-46.mkv</property>
    <property name="mlt_service">avformat-novalidate</property>
    <property name="meta.media.nb_streams">2</property>
    <property name="meta.media.0.stream.type">video</property>
    <property name="meta.media.0.stream.frame_rate">30</property>
    <property name="meta.media.0.stream.sample_aspect_ratio">0</property>
    <property name="meta.media.0.codec.width">1920</property>
    <property name="meta.media.0.codec.height">1080</property>
    <property name="meta.media.0.codec.rotate">0</property>
    <property name="meta.media.0.codec.pix_fmt">yuv420p</property>
    <property name="meta.media.0.codec.sample_aspect_ratio">1</property>
    <property name="meta.media.0.codec.colorspace">709</property>
    <property name="meta.media.0.codec.color_trc">1</property>
    <property name="meta.media.0.codec.name">h264</property>
    <property name="meta.media.0.codec.long_name">H.264 / AVC / MPEG-4 AVC / MPEG-4 part 10</property>
    <property name="meta.media.0.codec.bit_rate">0</property>
    <property name="meta.attr.0.stream.DURATION.markup">00:12:11.600000000</property>
    <property name="meta.media.1.stream.type">audio</property>
    <property name="meta.media.1.codec.sample_fmt">fltp</property>
    <property name="meta.media.1.codec.sample_rate">48000</property>
    <property name="meta.media.1.codec.channels">2</property>
    <property name="meta.media.1.codec.layout">stereo</property>
    <property name="meta.media.1.codec.name">aac</property>
    <property name="meta.media.1.codec.long_name">AAC (Advanced Audio Coding)</property>
    <property name="meta.media.1.codec.bit_rate">0</property>
    <property name="meta.attr.1.stream.title.markup">simple_aac</property>
    <property name="meta.attr.1.stream.DURATION.markup">00:12:11.434000000</property>
    <property name="meta.attr.ENCODER.markup">Lavf61.7.100</property>
    <property name="seekable">1</property>
    <property name="meta.media.sample_aspect_num">1</property>
    <property name="meta.media.sample_aspect_den">1</property>
    <property name="format">3</property>
    <property name="audio_index">1</property>
    <property name="video_index">0</property>
    <property name="creation_time">2025-09-28T01:50:59</property>
    <property name="vstream">0</property>
    <property name="meta.media.frame_rate_num">30</property>
    <property name="meta.media.frame_rate_den">1</property>
    <property name="meta.media.colorspace">709</property>
    <property name="meta.media.color_trc">1</property>
    <property name="meta.media.has_b_frames">2</property>
    <property name="meta.media.width">1920</property>
    <property name="meta.media.height">1080</property>
    <property name="meta.media.aspect_ratio">1</property>
    <property name="meta.media.color_range">mpeg</property>
    <property name="astream">0</property>
    <property name="shotcut:skipConvert">1</property>
    <property name="shotcut:hash">fe203a33333a21dde8837f888d897954</property>
    <property name="meta.media.top_field_first">0</property>
    <property name="meta.media.progressive">1</property>
    <property name="shotcut:caption">2025-09-28 08-38-46.mkv</property>
    <property name="xml">was here</property>
    <filter id="filter1" in="00:00:50.200" out="00:02:01.250">
      <property name="window">75</property>
      <property name="max_gain">20dB</property>
      <property name="level">2</property>
      <property name="mlt_service">volume</property>
      <property name="shotcut:filter">audioGain</property>
    </filter>
  </chain>
  <chain id="chain14" out="00:12:11.583">
    <property name="length">00:12:11.600</property>
    <property name="eof">pause</property>
    <property name="resource">/home/jame/Videos/lab 5 - Disk quota/2025-09-28 08-38-46.mkv</property>
    <property name="mlt_service">avformat-novalidate</property>
    <property name="meta.media.nb_streams">2</property>
    <property name="meta.media.0.stream.type">video</property>
    <property name="meta.media.0.stream.frame_rate">30</property>
    <property name="meta.media.0.stream.sample_aspect_ratio">0</property>
    <property name="meta.media.0.codec.width">1920</property>
    <property name="meta.media.0.codec.height">1080</property>
    <property name="meta.media.0.codec.rotate">0</property>
    <property name="meta.media.0.codec.pix_fmt">yuv420p</property>
    <property name="meta.media.0.codec.sample_aspect_ratio">1</property>
    <property name="meta.media.0.codec.colorspace">709</property>
    <property name="meta.media.0.codec.color_trc">1</property>
    <property name="meta.media.0.codec.name">h264</property>
    <property name="meta.media.0.codec.long_name">H.264 / AVC / MPEG-4 AVC / MPEG-4 part 10</property>
    <property name="meta.media.0.codec.bit_rate">0</property>
    <property name="meta.attr.0.stream.DURATION.markup">00:12:11.600000000</property>
    <property name="meta.media.1.stream.type">audio</property>
    <property name="meta.media.1.codec.sample_fmt">fltp</property>
    <property name="meta.media.1.codec.sample_rate">48000</property>
    <property name="meta.media.1.codec.channels">2</property>
    <property name="meta.media.1.codec.layout">stereo</property>
    <property name="meta.media.1.codec.name">aac</property>
    <property name="meta.media.1.codec.long_name">AAC (Advanced Audio Coding)</property>
    <property name="meta.media.1.codec.bit_rate">0</property>
    <property name="meta.attr.1.stream.title.markup">simple_aac</property>
    <property name="meta.attr.1.stream.DURATION.markup">00:12:11.434000000</property>
    <property name="meta.attr.ENCODER.markup">Lavf61.7.100</property>
    <property name="seekable">1</property>
    <property name="meta.media.sample_aspect_num">1</property>
    <property name="meta.media.sample_aspect_den">1</property>
    <property name="format">3</property>
    <property name="audio_index">1</property>
    <property name="video_index">0</property>
    <property name="creation_time">2025-09-28T01:50:59</property>
    <property name="vstream">0</property>
    <property name="meta.media.frame_rate_num">30</property>
    <property name="meta.media.frame_rate_den">1</property>
    <property name="meta.media.colorspace">709</property>
    <property name="meta.media.color_trc">1</property>
    <property name="meta.media.has_b_frames">2</property>
    <property name="meta.media.width">1920</property>
    <property name="meta.media.height">1080</property>
    <property name="meta.media.aspect_ratio">1</property>
    <property name="meta.media.color_range">mpeg</property>
    <property name="astream">0</property>
    <property name="shotcut:skipConvert">1</property>
    <property name="shotcut:hash">fe203a33333a21dde8837f888d897954</property>
    <property name="meta.media.top_field_first">0</property>
    <property name="meta.media.progressive">1</property>
    <property name="shotcut:caption">2025-09-28 08-38-46.mkv</property>
    <property name="xml">was here</property>
    <filter id="filter2" in="00:02:08.783" out="00:05:28.350">
      <property name="window">75</property>
      <property name="max_gain">20dB</property>
      <property name="level">2</property>
      <property name="mlt_service">volume</property>
      <property name="shotcut:filter">audioGain</property>
    </filter>
  </chain>
  <chain id="chain15" out="00:12:11.583">
    <property name="length">00:12:11.600</property>
    <property name="eof">pause</property>
    <property name="resource">/home/jame/Videos/lab 5 - Disk quota/2025-09-28 08-38-46.mkv</property>
    <property name="mlt_service">avformat-novalidate</property>
    <property name="meta.media.nb_streams">2</property>
    <property name="meta.media.0.stream.type">video</property>
    <property name="meta.media.0.stream.frame_rate">30</property>
    <property name="meta.media.0.stream.sample_aspect_ratio">0</property>
    <property name="meta.media.0.codec.width">1920</property>
    <property name="meta.media.0.codec.height">1080</property>
    <property name="meta.media.0.codec.rotate">0</property>
    <property name="meta.media.0.codec.pix_fmt">yuv420p</property>
    <property name="meta.media.0.codec.sample_aspect_ratio">1</property>
    <property name="meta.media.0.codec.colorspace">709</property>
    <property name="meta.media.0.codec.color_trc">1</property>
    <property name="meta.media.0.codec.name">h264</property>
    <property name="meta.media.0.codec.long_name">H.264 / AVC / MPEG-4 AVC / MPEG-4 part 10</property>
    <property name="meta.media.0.codec.bit_rate">0</property>
    <property name="meta.attr.0.stream.DURATION.markup">00:12:11.600000000</property>
    <property name="meta.media.1.stream.type">audio</property>
    <property name="meta.media.1.codec.sample_fmt">fltp</property>
    <property name="meta.media.1.codec.sample_rate">48000</property>
    <property name="meta.media.1.codec.channels">2</property>
    <property name="meta.media.1.codec.layout">stereo</property>
    <property name="meta.media.1.codec.name">aac</property>
    <property name="meta.media.1.codec.long_name">AAC (Advanced Audio Coding)</property>
    <property name="meta.media.1.codec.bit_rate">0</property>
    <property name="meta.attr.1.stream.title.markup">simple_aac</property>
    <property name="meta.attr.1.stream.DURATION.markup">00:12:11.434000000</property>
    <property name="meta.attr.ENCODER.markup">Lavf61.7.100</property>
    <property name="seekable">1</property>
    <property name="meta.media.sample_aspect_num">1</property>
    <property name="meta.media.sample_aspect_den">1</property>
    <property name="format">3</property>
    <property name="audio_index">1</property>
    <property name="video_index">0</property>
    <property name="creation_time">2025-09-28T01:50:59</property>
    <property name="vstream">0</property>
    <property name="meta.media.frame_rate_num">30</property>
    <property name="meta.media.frame_rate_den">1</property>
    <property name="meta.media.colorspace">709</property>
    <property name="meta.media.color_trc">1</property>
    <property name="meta.media.has_b_frames">2</property>
    <property name="meta.media.width">1920</property>
    <property name="meta.media.height">1080</property>
    <property name="meta.media.aspect_ratio">1</property>
    <property name="meta.media.color_range">mpeg</property>
    <property name="astream">0</property>
    <property name="shotcut:skipConvert">1</property>
    <property name="shotcut:hash">fe203a33333a21dde8837f888d897954</property>
    <property name="meta.media.top_field_first">0</property>
    <property name="meta.media.progressive">1</property>
    <property name="shotcut:caption">2025-09-28 08-38-46.mkv</property>
    <property name="xml">was here</property>
    <filter id="filter3" in="00:05:51.833" out="00:06:12.083">
      <property name="window">75</property>
      <property name="max_gain">20dB</property>
      <property name="level">2</property>
      <property name="mlt_service">volume</property>
      <property name="shotcut:filter">audioGain</property>
    </filter>
  </chain>
  <chain id="chain16" out="00:12:11.583">
    <property name="length">00:12:11.600</property>
    <property name="eof">pause</property>
    <property name="resource">/home/jame/Videos/lab 5 - Disk quota/2025-09-28 08-38-46.mkv</property>
    <property name="mlt_service">avformat-novalidate</property>
    <property name="meta.media.nb_streams">2</property>
    <property name="meta.media.0.stream.type">video</property>
    <property name="meta.media.0.stream.frame_rate">30</property>
    <property name="meta.media.0.stream.sample_aspect_ratio">0</property>
    <property name="meta.media.0.codec.width">1920</property>
    <property name="meta.media.0.codec.height">1080</property>
    <property name="meta.media.0.codec.rotate">0</property>
    <property name="meta.media.0.codec.pix_fmt">yuv420p</property>
    <property name="meta.media.0.codec.sample_aspect_ratio">1</property>
    <property name="meta.media.0.codec.colorspace">709</property>
    <property name="meta.media.0.codec.color_trc">1</property>
    <property name="meta.media.0.codec.name">h264</property>
    <property name="meta.media.0.codec.long_name">H.264 / AVC / MPEG-4 AVC / MPEG-4 part 10</property>
    <property name="meta.media.0.codec.bit_rate">0</property>
    <property name="meta.attr.0.stream.DURATION.markup">00:12:11.600000000</property>
    <property name="meta.media.1.stream.type">audio</property>
    <property name="meta.media.1.codec.sample_fmt">fltp</property>
    <property name="meta.media.1.codec.sample_rate">48000</property>
    <property name="meta.media.1.codec.channels">2</property>
    <property name="meta.media.1.codec.layout">stereo</property>
    <property name="meta.media.1.codec.name">aac</property>
    <property name="meta.media.1.codec.long_name">AAC (Advanced Audio Coding)</property>
    <property name="meta.media.1.codec.bit_rate">0</property>
    <property name="meta.attr.1.stream.title.markup">simple_aac</property>
    <property name="meta.attr.1.stream.DURATION.markup">00:12:11.434000000</property>
    <property name="meta.attr.ENCODER.markup">Lavf61.7.100</property>
    <property name="seekable">1</property>
    <property name="meta.media.sample_aspect_num">1</property>
    <property name="meta.media.sample_aspect_den">1</property>
    <property name="format">3</property>
    <property name="audio_index">1</property>
    <property name="video_index">0</property>
    <property name="creation_time">2025-09-28T01:50:59</property>
    <property name="vstream">0</property>
    <property name="meta.media.frame_rate_num">30</property>
    <property name="meta.media.frame_rate_den">1</property>
    <property name="meta.media.colorspace">709</property>
    <property name="meta.media.color_trc">1</property>
    <property name="meta.media.has_b_frames">2</property>
    <property name="meta.media.width">1920</property>
    <property name="meta.media.height">1080</property>
    <property name="meta.media.aspect_ratio">1</property>
    <property name="meta.media.color_range">mpeg</property>
    <property name="astream">0</property>
    <property name="shotcut:skipConvert">1</property>
    <property name="shotcut:hash">fe203a33333a21dde8837f888d897954</property>
    <property name="meta.media.top_field_first">0</property>
    <property name="meta.media.progressive">1</property>
    <property name="shotcut:caption">2025-09-28 08-38-46.mkv</property>
    <property name="xml">was here</property>
    <filter id="filter4" in="00:06:43.017" out="00:07:31.550">
      <property name="window">75</property>
      <property name="max_gain">20dB</property>
      <property name="level">2</property>
      <property name="mlt_service">volume</property>
      <property name="shotcut:filter">audioGain</property>
    </filter>
  </chain>
  <chain id="chain17" out="00:12:11.583">
    <property name="length">00:12:11.600</property>
    <property name="eof">pause</property>
    <property name="resource">/home/jame/Videos/lab 5 - Disk quota/2025-09-28 08-38-46.mkv</property>
    <property name="mlt_service">avformat-novalidate</property>
    <property name="meta.media.nb_streams">2</property>
    <property name="meta.media.0.stream.type">video</property>
    <property name="meta.media.0.stream.frame_rate">30</property>
    <property name="meta.media.0.stream.sample_aspect_ratio">0</property>
    <property name="meta.media.0.codec.width">1920</property>
    <property name="meta.media.0.codec.height">1080</property>
    <property name="meta.media.0.codec.rotate">0</property>
    <property name="meta.media.0.codec.pix_fmt">yuv420p</property>
    <property name="meta.media.0.codec.sample_aspect_ratio">1</property>
    <property name="meta.media.0.codec.colorspace">709</property>
    <property name="meta.media.0.codec.color_trc">1</property>
    <property name="meta.media.0.codec.name">h264</property>
    <property name="meta.media.0.codec.long_name">H.264 / AVC / MPEG-4 AVC / MPEG-4 part 10</property>
    <property name="meta.media.0.codec.bit_rate">0</property>
    <property name="meta.attr.0.stream.DURATION.markup">00:12:11.600000000</property>
    <property name="meta.media.1.stream.type">audio</property>
    <property name="meta.media.1.codec.sample_fmt">fltp</property>
    <property name="meta.media.1.codec.sample_rate">48000</property>
    <property name="meta.media.1.codec.channels">2</property>
    <property name="meta.media.1.codec.layout">stereo</property>
    <property name="meta.media.1.codec.name">aac</property>
    <property name="meta.media.1.codec.long_name">AAC (Advanced Audio Coding)</property>
    <property name="meta.media.1.codec.bit_rate">0</property>
    <property name="meta.attr.1.stream.title.markup">simple_aac</property>
    <property name="meta.attr.1.stream.DURATION.markup">00:12:11.434000000</property>
    <property name="meta.attr.ENCODER.markup">Lavf61.7.100</property>
    <property name="seekable">1</property>
    <property name="meta.media.sample_aspect_num">1</property>
    <property name="meta.media.sample_aspect_den">1</property>
    <property name="format">3</property>
    <property name="audio_index">1</property>
    <property name="video_index">0</property>
    <property name="creation_time">2025-09-28T01:50:59</property>
    <property name="vstream">0</property>
    <property name="meta.media.frame_rate_num">30</property>
    <property name="meta.media.frame_rate_den">1</property>
    <property name="meta.media.colorspace">709</property>
    <property name="meta.media.color_trc">1</property>
    <property name="meta.media.has_b_frames">2</property>
    <property name="meta.media.width">1920</property>
    <property name="meta.media.height">1080</property>
    <property name="meta.media.aspect_ratio">1</property>
    <property name="meta.media.color_range">mpeg</property>
    <property name="astream">0</property>
    <property name="shotcut:skipConvert">1</property>
    <property name="shotcut:hash">fe203a33333a21dde8837f888d897954</property>
    <property name="meta.media.top_field_first">0</property>
    <property name="meta.media.progressive">1</property>
    <property name="shotcut:caption">2025-09-28 08-38-46.mkv</property>
    <property name="xml">was here</property>
    <filter id="filter5" in="00:08:24.417" out="00:09:12.117">
      <property name="window">75</property>
      <property name="max_gain">20dB</property>
      <property name="level">2</property>
      <property name="mlt_service">volume</property>
      <property name="shotcut:filter">audioGain</property>
    </filter>
  </chain>
  <chain id="chain18" out="00:12:11.583">
    <property name="length">00:12:11.600</property>
    <property name="eof">pause</property>
    <property name="resource">/home/jame/Videos/lab 5 - Disk quota/2025-09-28 08-38-46.mkv</property>
    <property name="mlt_service">avformat-novalidate</property>
    <property name="meta.media.nb_streams">2</property>
    <property name="meta.media.0.stream.type">video</property>
    <property name="meta.media.0.stream.frame_rate">30</property>
    <property name="meta.media.0.stream.sample_aspect_ratio">0</property>
    <property name="meta.media.0.codec.width">1920</property>
    <property name="meta.media.0.codec.height">1080</property>
    <property name="meta.media.0.codec.rotate">0</property>
    <property name="meta.media.0.codec.pix_fmt">yuv420p</property>
    <property name="meta.media.0.codec.sample_aspect_ratio">1</property>
    <property name="meta.media.0.codec.colorspace">709</property>
    <property name="meta.media.0.codec.color_trc">1</property>
    <property name="meta.media.0.codec.name">h264</property>
    <property name="meta.media.0.codec.long_name">H.264 / AVC / MPEG-4 AVC / MPEG-4 part 10</property>
    <property name="meta.media.0.codec.bit_rate">0</property>
    <property name="meta.attr.0.stream.DURATION.markup">00:12:11.600000000</property>
    <property name="meta.media.1.stream.type">audio</property>
    <property name="meta.media.1.codec.sample_fmt">fltp</property>
    <property name="meta.media.1.codec.sample_rate">48000</property>
    <property name="meta.media.1.codec.channels">2</property>
    <property name="meta.media.1.codec.layout">stereo</property>
    <property name="meta.media.1.codec.name">aac</property>
    <property name="meta.media.1.codec.long_name">AAC (Advanced Audio Coding)</property>
    <property name="meta.media.1.codec.bit_rate">0</property>
    <property name="meta.attr.1.stream.title.markup">simple_aac</property>
    <property name="meta.attr.1.stream.DURATION.markup">00:12:11.434000000</property>
    <property name="meta.attr.ENCODER.markup">Lavf61.7.100</property>
    <property name="seekable">1</property>
    <property name="meta.media.sample_aspect_num">1</property>
    <property name="meta.media.sample_aspect_den">1</property>
    <property name="format">3</property>
    <property name="audio_index">1</property>
    <property name="video_index">0</property>
    <property name="creation_time">2025-09-28T01:50:59</property>
    <property name="vstream">0</property>
    <property name="meta.media.frame_rate_num">30</property>
    <property name="meta.media.frame_rate_den">1</property>
    <property name="meta.media.colorspace">709</property>
    <property name="meta.media.color_trc">1</property>
    <property name="meta.media.has_b_frames">2</property>
    <property name="meta.media.width">1920</property>
    <property name="meta.media.height">1080</property>
    <property name="meta.media.aspect_ratio">1</property>
    <property name="meta.media.color_range">mpeg</property>
    <property name="astream">0</property>
    <property name="shotcut:skipConvert">1</property>
    <property name="shotcut:hash">fe203a33333a21dde8837f888d897954</property>
    <property name="meta.media.top_field_first">0</property>
    <property name="meta.media.progressive">1</property>
    <property name="shotcut:caption">2025-09-28 08-38-46.mkv</property>
    <property name="xml">was here</property>
    <filter id="filter6" in="00:09:22.617" out="00:12:07.117">
      <property name="window">75</property>
      <property name="max_gain">20dB</property>
      <property name="level">2</property>
      <property name="mlt_service">volume</property>
      <property name="shotcut:filter">audioGain</property>
    </filter>
  </chain>
  <playlist id="playlist0">
    <property name="shotcut:video">1</property>
    <property name="shotcut:name">V1</property>
    <blank length="00:00:05.883"/>
    <entry producer="chain0" in="00:00:03.183" out="00:00:03.883"/>
    <entry producer="chain1" in="00:00:03.183" out="00:00:14.650"/>
    <entry producer="chain2" in="00:00:07.400" out="00:00:11.533"/>
    <entry producer="chain3" in="00:00:11.550" out="00:00:14.650"/>
    <entry producer="chain4" in="00:00:14.667" out="00:03:10.350"/>
    <entry producer="chain5" in="00:00:18.267" out="00:01:08.717"/>
    <entry producer="chain6" in="00:04:52.167" out="00:05:17.783"/>
    <entry producer="chain7" in="00:05:17.800" out="00:05:21.817"/>
    <entry producer="chain8" in="00:05:17.800" out="00:05:21.817"/>
    <entry producer="chain9" in="00:05:17.800" out="00:05:21.817"/>
    <entry producer="chain10" in="00:05:17.800" out="00:05:21.817"/>
    <entry producer="chain11" in="00:05:21.833" out="00:05:51.800"/>
    <entry producer="chain12" in="00:00:02.950" out="00:00:41.317"/>
    <entry producer="chain13" in="00:00:50.200" out="00:02:01.250"/>
    <entry producer="chain14" in="00:02:08.783" out="00:05:28.350"/>
    <entry producer="chain15" in="00:05:51.833" out="00:06:12.083"/>
    <entry producer="chain16" in="00:06:43.017" out="00:07:31.550"/>
    <entry producer="chain17" in="00:08:24.417" out="00:09:12.117"/>
    <entry producer="chain18" in="00:09:22.617" out="00:12:07.117"/>
  </playlist>
  <chain id="chain19" out="00:09:56.317">
    <property name="length">00:09:56.333</property>
    <property name="eof">pause</property>
    <property name="resource">/home/jame/Videos/lab 5 - Disk quota/vh5nq7x6vquxg2o3/Street 608 7.m4a</property>
    <property name="mlt_service">avformat-novalidate</property>
    <property name="meta.media.nb_streams">1</property>
    <property name="meta.media.0.stream.type">audio</property>
    <property name="meta.media.0.codec.sample_fmt">fltp</property>
    <property name="meta.media.0.codec.sample_rate">48000</property>
    <property name="meta.media.0.codec.channels">1</property>
    <property name="meta.media.0.codec.layout">mono</property>
    <property name="meta.media.0.codec.name">aac</property>
    <property name="meta.media.0.codec.long_name">AAC (Advanced Audio Coding)</property>
    <property name="meta.media.0.codec.bit_rate">62721</property>
    <property name="meta.attr.0.stream.creation_time.markup">2025-09-29T07:09:38.000000Z</property>
    <property name="meta.attr.0.stream.handler_name.markup">Core Media Audio</property>
    <property name="meta.attr.0.stream.vendor_id.markup">[0][0][0][0]</property>
    <property name="meta.attr.major_brand.markup">M4A </property>
    <property name="meta.attr.minor_version.markup">0</property>
    <property name="meta.attr.compatible_brands.markup">M4A isommp42</property>
    <property name="meta.attr.creation_time.markup">2025-09-29T07:09:38.000000Z</property>
    <property name="meta.attr.title.markup">Street 608 7</property>
    <property name="meta.attr.voice-memo-uuid.markup">6D0C02BA-0BD6-4C18-9D11-E8F659C84E89</property>
    <property name="meta.attr.encoder.markup">com.apple.VoiceMemos (iPhone (null))</property>
    <property name="seekable">1</property>
    <property name="audio_index">0</property>
    <property name="video_index">-1</property>
    <property name="creation_time">2025-09-29T07:09:38</property>
    <property name="astream">0</property>
    <property name="shotcut:skipConvert">1</property>
    <property name="shotcut:hash">e13f11492dd88db574d40245c89de3a9</property>
    <property name="shotcut:caption">Street 608 7.m4a</property>
    <property name="xml">was here</property>
  </chain>
  <chain id="chain20" out="00:09:56.317">
    <property name="length">00:09:56.333</property>
    <property name="eof">pause</property>
    <property name="resource">/home/jame/Videos/lab 5 - Disk quota/vh5nq7x6vquxg2o3/Street 608 7.m4a</property>
    <property name="mlt_service">avformat-novalidate</property>
    <property name="meta.media.nb_streams">1</property>
    <property name="meta.media.0.stream.type">audio</property>
    <property name="meta.media.0.codec.sample_fmt">fltp</property>
    <property name="meta.media.0.codec.sample_rate">48000</property>
    <property name="meta.media.0.codec.channels">1</property>
    <property name="meta.media.0.codec.layout">mono</property>
    <property name="meta.media.0.codec.name">aac</property>
    <property name="meta.media.0.codec.long_name">AAC (Advanced Audio Coding)</property>
    <property name="meta.media.0.codec.bit_rate">62721</property>
    <property name="meta.attr.0.stream.creation_time.markup">2025-09-29T07:09:38.000000Z</property>
    <property name="meta.attr.0.stream.handler_name.markup">Core Media Audio</property>
    <property name="meta.attr.0.stream.vendor_id.markup">[0][0][0][0]</property>
    <property name="meta.attr.major_brand.markup">M4A </property>
    <property name="meta.attr.minor_version.markup">0</property>
    <property name="meta.attr.compatible_brands.markup">M4A isommp42</property>
    <property name="meta.attr.creation_time.markup">2025-09-29T07:09:38.000000Z</property>
    <property name="meta.attr.title.markup">Street 608 7</property>
    <property name="meta.attr.voice-memo-uuid.markup">6D0C02BA-0BD6-4C18-9D11-E8F659C84E89</property>
    <property name="meta.attr.encoder.markup">com.apple.VoiceMemos (iPhone (null))</property>
    <property name="seekable">1</property>
    <property name="audio_index">0</property>
    <property name="video_index">-1</property>
    <property name="creation_time">2025-09-29T07:09:38</property>
    <property name="astream">0</property>
    <property name="shotcut:skipConvert">1</property>
    <property name="shotcut:hash">e13f11492dd88db574d40245c89de3a9</property>
    <property name="shotcut:caption">Street 608 7.m4a</property>
    <property name="xml">was here</property>
  </chain>
  <chain id="chain21" out="00:09:56.317">
    <property name="length">00:09:56.333</property>
    <property name="eof">pause</property>
    <property name="resource">/home/jame/Videos/lab 5 - Disk quota/vh5nq7x6vquxg2o3/Street 608 7.m4a</property>
    <property name="mlt_service">avformat-novalidate</property>
    <property name="meta.media.nb_streams">1</property>
    <property name="meta.media.0.stream.type">audio</property>
    <property name="meta.media.0.codec.sample_fmt">fltp</property>
    <property name="meta.media.0.codec.sample_rate">48000</property>
    <property name="meta.media.0.codec.channels">1</property>
    <property name="meta.media.0.codec.layout">mono</property>
    <property name="meta.media.0.codec.name">aac</property>
    <property name="meta.media.0.codec.long_name">AAC (Advanced Audio Coding)</property>
    <property name="meta.media.0.codec.bit_rate">62721</property>
    <property name="meta.attr.0.stream.creation_time.markup">2025-09-29T07:09:38.000000Z</property>
    <property name="meta.attr.0.stream.handler_name.markup">Core Media Audio</property>
    <property name="meta.attr.0.stream.vendor_id.markup">[0][0][0][0]</property>
    <property name="meta.attr.major_brand.markup">M4A </property>
    <property name="meta.attr.minor_version.markup">0</property>
    <property name="meta.attr.compatible_brands.markup">M4A isommp42</property>
    <property name="meta.attr.creation_time.markup">2025-09-29T07:09:38.000000Z</property>
    <property name="meta.attr.title.markup">Street 608 7</property>
    <property name="meta.attr.voice-memo-uuid.markup">6D0C02BA-0BD6-4C18-9D11-E8F659C84E89</property>
    <property name="meta.attr.encoder.markup">com.apple.VoiceMemos (iPhone (null))</property>
    <property name="seekable">1</property>
    <property name="audio_index">0</property>
    <property name="video_index">-1</property>
    <property name="creation_time">2025-09-29T07:09:38</property>
    <property name="astream">0</property>
    <property name="shotcut:skipConvert">1</property>
    <property name="shotcut:hash">e13f11492dd88db574d40245c89de3a9</property>
    <property name="shotcut:caption">Street 608 7.m4a</property>
    <property name="xml">was here</property>
  </chain>
  <chain id="chain22" out="00:09:56.317">
    <property name="length">00:09:56.333</property>
    <property name="eof">pause</property>
    <property name="resource">/home/jame/Videos/lab 5 - Disk quota/vh5nq7x6vquxg2o3/Street 608 7.m4a</property>
    <property name="mlt_service">avformat-novalidate</property>
    <property name="meta.media.nb_streams">1</property>
    <property name="meta.media.0.stream.type">audio</property>
    <property name="meta.media.0.codec.sample_fmt">fltp</property>
    <property name="meta.media.0.codec.sample_rate">48000</property>
    <property name="meta.media.0.codec.channels">1</property>
    <property name="meta.media.0.codec.layout">mono</property>
    <property name="meta.media.0.codec.name">aac</property>
    <property name="meta.media.0.codec.long_name">AAC (Advanced Audio Coding)</property>
    <property name="meta.media.0.codec.bit_rate">62721</property>
    <property name="meta.attr.0.stream.creation_time.markup">2025-09-29T07:09:38.000000Z</property>
    <property name="meta.attr.0.stream.handler_name.markup">Core Media Audio</property>
    <property name="meta.attr.0.stream.vendor_id.markup">[0][0][0][0]</property>
    <property name="meta.attr.major_brand.markup">M4A </property>
    <property name="meta.attr.minor_version.markup">0</property>
    <property name="meta.attr.compatible_brands.markup">M4A isommp42</property>
    <property name="meta.attr.creation_time.markup">2025-09-29T07:09:38.000000Z</property>
    <property name="meta.attr.title.markup">Street 608 7</property>
    <property name="meta.attr.voice-memo-uuid.markup">6D0C02BA-0BD6-4C18-9D11-E8F659C84E89</property>
    <property name="meta.attr.encoder.markup">com.apple.VoiceMemos (iPhone (null))</property>
    <property name="seekable">1</property>
    <property name="audio_index">0</property>
    <property name="video_index">-1</property>
    <property name="creation_time">2025-09-29T07:09:38</property>
    <property name="astream">0</property>
    <property name="shotcut:skipConvert">1</property>
    <property name="shotcut:hash">e13f11492dd88db574d40245c89de3a9</property>
    <property name="shotcut:caption">Street 608 7.m4a</property>
    <property name="xml">was here</property>
  </chain>
  <chain id="chain23" out="00:09:56.317">
    <property name="length">00:09:56.333</property>
    <property name="eof">pause</property>
    <property name="resource">/home/jame/Videos/lab 5 - Disk quota/vh5nq7x6vquxg2o3/Street 608 7.m4a</property>
    <property name="mlt_service">avformat-novalidate</property>
    <property name="meta.media.nb_streams">1</property>
    <property name="meta.media.0.stream.type">audio</property>
    <property name="meta.media.0.codec.sample_fmt">fltp</property>
    <property name="meta.media.0.codec.sample_rate">48000</property>
    <property name="meta.media.0.codec.channels">1</property>
    <property name="meta.media.0.codec.layout">mono</property>
    <property name="meta.media.0.codec.name">aac</property>
    <property name="meta.media.0.codec.long_name">AAC (Advanced Audio Coding)</property>
    <property name="meta.media.0.codec.bit_rate">62721</property>
    <property name="meta.attr.0.stream.creation_time.markup">2025-09-29T07:09:38.000000Z</property>
    <property name="meta.attr.0.stream.handler_name.markup">Core Media Audio</property>
    <property name="meta.attr.0.stream.vendor_id.markup">[0][0][0][0]</property>
    <property name="meta.attr.major_brand.markup">M4A </property>
    <property name="meta.attr.minor_version.markup">0</property>
    <property name="meta.attr.compatible_brands.markup">M4A isommp42</property>
    <property name="meta.attr.creation_time.markup">2025-09-29T07:09:38.000000Z</property>
    <property name="meta.attr.title.markup">Street 608 7</property>
    <property name="meta.attr.voice-memo-uuid.markup">6D0C02BA-0BD6-4C18-9D11-E8F659C84E89</property>
    <property name="meta.attr.encoder.markup">com.apple.VoiceMemos (iPhone (null))</property>
    <property name="seekable">1</property>
    <property name="audio_index">0</property>
    <property name="video_index">-1</property>
    <property name="creation_time">2025-09-29T07:09:38</property>
    <property name="astream">0</property>
    <property name="shotcut:skipConvert">1</property>
    <property name="shotcut:hash">e13f11492dd88db574d40245c89de3a9</property>
    <property name="shotcut:caption">Street 608 7.m4a</property>
    <property name="xml">was here</property>
  </chain>
  <chain id="chain24" out="00:09:56.317">
    <property name="length">00:09:56.333</property>
    <property name="eof">pause</property>
    <property name="resource">/home/jame/Videos/lab 5 - Disk quota/vh5nq7x6vquxg2o3/Street 608 7.m4a</property>
    <property name="mlt_service">avformat-novalidate</property>
    <property name="meta.media.nb_streams">1</property>
    <property name="meta.media.0.stream.type">audio</property>
    <property name="meta.media.0.codec.sample_fmt">fltp</property>
    <property name="meta.media.0.codec.sample_rate">48000</property>
    <property name="meta.media.0.codec.channels">1</property>
    <property name="meta.media.0.codec.layout">mono</property>
    <property name="meta.media.0.codec.name">aac</property>
    <property name="meta.media.0.codec.long_name">AAC (Advanced Audio Coding)</property>
    <property name="meta.media.0.codec.bit_rate">62721</property>
    <property name="meta.attr.0.stream.creation_time.markup">2025-09-29T07:09:38.000000Z</property>
    <property name="meta.attr.0.stream.handler_name.markup">Core Media Audio</property>
    <property name="meta.attr.0.stream.vendor_id.markup">[0][0][0][0]</property>
    <property name="meta.attr.major_brand.markup">M4A </property>
    <property name="meta.attr.minor_version.markup">0</property>
    <property name="meta.attr.compatible_brands.markup">M4A isommp42</property>
    <property name="meta.attr.creation_time.markup">2025-09-29T07:09:38.000000Z</property>
    <property name="meta.attr.title.markup">Street 608 7</property>
    <property name="meta.attr.voice-memo-uuid.markup">6D0C02BA-0BD6-4C18-9D11-E8F659C84E89</property>
    <property name="meta.attr.encoder.markup">com.apple.VoiceMemos (iPhone (null))</property>
    <property name="seekable">1</property>
    <property name="audio_index">0</property>
    <property name="video_index">-1</property>
    <property name="creation_time">2025-09-29T07:09:38</property>
    <property name="astream">0</property>
    <property name="shotcut:skipConvert">1</property>
    <property name="shotcut:hash">e13f11492dd88db574d40245c89de3a9</property>
    <property name="shotcut:caption">Street 608 7.m4a</property>
    <property name="xml">was here</property>
  </chain>
  <chain id="chain25" out="00:09:56.317">
    <property name="length">00:09:56.333</property>
    <property name="eof">pause</property>
    <property name="resource">/home/jame/Videos/lab 5 - Disk quota/vh5nq7x6vquxg2o3/Street 608 7.m4a</property>
    <property name="mlt_service">avformat-novalidate</property>
    <property name="meta.media.nb_streams">1</property>
    <property name="meta.media.0.stream.type">audio</property>
    <property name="meta.media.0.codec.sample_fmt">fltp</property>
    <property name="meta.media.0.codec.sample_rate">48000</property>
    <property name="meta.media.0.codec.channels">1</property>
    <property name="meta.media.0.codec.layout">mono</property>
    <property name="meta.media.0.codec.name">aac</property>
    <property name="meta.media.0.codec.long_name">AAC (Advanced Audio Coding)</property>
    <property name="meta.media.0.codec.bit_rate">62721</property>
    <property name="meta.attr.0.stream.creation_time.markup">2025-09-29T07:09:38.000000Z</property>
    <property name="meta.attr.0.stream.handler_name.markup">Core Media Audio</property>
    <property name="meta.attr.0.stream.vendor_id.markup">[0][0][0][0]</property>
    <property name="meta.attr.major_brand.markup">M4A </property>
    <property name="meta.attr.minor_version.markup">0</property>
    <property name="meta.attr.compatible_brands.markup">M4A isommp42</property>
    <property name="meta.attr.creation_time.markup">2025-09-29T07:09:38.000000Z</property>
    <property name="meta.attr.title.markup">Street 608 7</property>
    <property name="meta.attr.voice-memo-uuid.markup">6D0C02BA-0BD6-4C18-9D11-E8F659C84E89</property>
    <property name="meta.attr.encoder.markup">com.apple.VoiceMemos (iPhone (null))</property>
    <property name="seekable">1</property>
    <property name="audio_index">0</property>
    <property name="video_index">-1</property>
    <property name="creation_time">2025-09-29T07:09:38</property>
    <property name="astream">0</property>
    <property name="shotcut:skipConvert">1</property>
    <property name="shotcut:hash">e13f11492dd88db574d40245c89de3a9</property>
    <property name="shotcut:caption">Street 608 7.m4a</property>
    <property name="xml">was here</property>
  </chain>
  <chain id="chain26" out="00:09:56.317">
    <property name="length">00:09:56.333</property>
    <property name="eof">pause</property>
    <property name="resource">/home/jame/Videos/lab 5 - Disk quota/vh5nq7x6vquxg2o3/Street 608 7.m4a</property>
    <property name="mlt_service">avformat-novalidate</property>
    <property name="meta.media.nb_streams">1</property>
    <property name="meta.media.0.stream.type">audio</property>
    <property name="meta.media.0.codec.sample_fmt">fltp</property>
    <property name="meta.media.0.codec.sample_rate">48000</property>
    <property name="meta.media.0.codec.channels">1</property>
    <property name="meta.media.0.codec.layout">mono</property>
    <property name="meta.media.0.codec.name">aac</property>
    <property name="meta.media.0.codec.long_name">AAC (Advanced Audio Coding)</property>
    <property name="meta.media.0.codec.bit_rate">62721</property>
    <property name="meta.attr.0.stream.creation_time.markup">2025-09-29T07:09:38.000000Z</property>
    <property name="meta.attr.0.stream.handler_name.markup">Core Media Audio</property>
    <property name="meta.attr.0.stream.vendor_id.markup">[0][0][0][0]</property>
    <property name="meta.attr.major_brand.markup">M4A </property>
    <property name="meta.attr.minor_version.markup">0</property>
    <property name="meta.attr.compatible_brands.markup">M4A isommp42</property>
    <property name="meta.attr.creation_time.markup">2025-09-29T07:09:38.000000Z</property>
    <property name="meta.attr.title.markup">Street 608 7</property>
    <property name="meta.attr.voice-memo-uuid.markup">6D0C02BA-0BD6-4C18-9D11-E8F659C84E89</property>
    <property name="meta.attr.encoder.markup">com.apple.VoiceMemos (iPhone (null))</property>
    <property name="seekable">1</property>
    <property name="audio_index">0</property>
    <property name="video_index">-1</property>
    <property name="creation_time">2025-09-29T07:09:38</property>
    <property name="astream">0</property>
    <property name="shotcut:skipConvert">1</property>
    <property name="shotcut:hash">e13f11492dd88db574d40245c89de3a9</property>
    <property name="shotcut:caption">Street 608 7.m4a</property>
    <property name="xml">was here</property>
  </chain>
  <chain id="chain27" out="00:09:56.317">
    <property name="length">00:09:56.333</property>
    <property name="eof">pause</property>
    <property name="resource">/home/jame/Videos/lab 5 - Disk quota/vh5nq7x6vquxg2o3/Street 608 7.m4a</property>
    <property name="mlt_service">avformat-novalidate</property>
    <property name="meta.media.nb_streams">1</property>
    <property name="meta.media.0.stream.type">audio</property>
    <property name="meta.media.0.codec.sample_fmt">fltp</property>
    <property name="meta.media.0.codec.sample_rate">48000</property>
    <property name="meta.media.0.codec.channels">1</property>
    <property name="meta.media.0.codec.layout">mono</property>
    <property name="meta.media.0.codec.name">aac</property>
    <property name="meta.media.0.codec.long_name">AAC (Advanced Audio Coding)</property>
    <property name="meta.media.0.codec.bit_rate">62721</property>
    <property name="meta.attr.0.stream.creation_time.markup">2025-09-29T07:09:38.000000Z</property>
    <property name="meta.attr.0.stream.handler_name.markup">Core Media Audio</property>
    <property name="meta.attr.0.stream.vendor_id.markup">[0][0][0][0]</property>
    <property name="meta.attr.major_brand.markup">M4A </property>
    <property name="meta.attr.minor_version.markup">0</property>
    <property name="meta.attr.compatible_brands.markup">M4A isommp42</property>
    <property name="meta.attr.creation_time.markup">2025-09-29T07:09:38.000000Z</property>
    <property name="meta.attr.title.markup">Street 608 7</property>
    <property name="meta.attr.voice-memo-uuid.markup">6D0C02BA-0BD6-4C18-9D11-E8F659C84E89</property>
    <property name="meta.attr.encoder.markup">com.apple.VoiceMemos (iPhone (null))</property>
    <property name="seekable">1</property>
    <property name="audio_index">0</property>
    <property name="video_index">-1</property>
    <property name="creation_time">2025-09-29T07:09:38</property>
    <property name="astream">0</property>
    <property name="shotcut:skipConvert">1</property>
    <property name="shotcut:hash">e13f11492dd88db574d40245c89de3a9</property>
    <property name="shotcut:caption">Street 608 7.m4a</property>
    <property name="xml">was here</property>
  </chain>
  <chain id="chain28" out="00:09:56.317">
    <property name="length">00:09:56.333</property>
    <property name="eof">pause</property>
    <property name="resource">/home/jame/Videos/lab 5 - Disk quota/vh5nq7x6vquxg2o3/Street 608 7.m4a</property>
    <property name="mlt_service">avformat-novalidate</property>
    <property name="meta.media.nb_streams">1</property>
    <property name="meta.media.0.stream.type">audio</property>
    <property name="meta.media.0.codec.sample_fmt">fltp</property>
    <property name="meta.media.0.codec.sample_rate">48000</property>
    <property name="meta.media.0.codec.channels">1</property>
    <property name="meta.media.0.codec.layout">mono</property>
    <property name="meta.media.0.codec.name">aac</property>
    <property name="meta.media.0.codec.long_name">AAC (Advanced Audio Coding)</property>
    <property name="meta.media.0.codec.bit_rate">62721</property>
    <property name="meta.attr.0.stream.creation_time.markup">2025-09-29T07:09:38.000000Z</property>
    <property name="meta.attr.0.stream.handler_name.markup">Core Media Audio</property>
    <property name="meta.attr.0.stream.vendor_id.markup">[0][0][0][0]</property>
    <property name="meta.attr.major_brand.markup">M4A </property>
    <property name="meta.attr.minor_version.markup">0</property>
    <property name="meta.attr.compatible_brands.markup">M4A isommp42</property>
    <property name="meta.attr.creation_time.markup">2025-09-29T07:09:38.000000Z</property>
    <property name="meta.attr.title.markup">Street 608 7</property>
    <property name="meta.attr.voice-memo-uuid.markup">6D0C02BA-0BD6-4C18-9D11-E8F659C84E89</property>
    <property name="meta.attr.encoder.markup">com.apple.VoiceMemos (iPhone (null))</property>
    <property name="seekable">1</property>
    <property name="audio_index">0</property>
    <property name="video_index">-1</property>
    <property name="creation_time">2025-09-29T07:09:38</property>
    <property name="astream">0</property>
    <property name="shotcut:skipConvert">1</property>
    <property name="shotcut:hash">e13f11492dd88db574d40245c89de3a9</property>
    <property name="shotcut:caption">Street 608 7.m4a</property>
    <property name="xml">was here</property>
  </chain>
  <chain id="chain29" out="00:09:56.317">
    <property name="length">00:09:56.333</property>
    <property name="eof">pause</property>
    <property name="resource">/home/jame/Videos/lab 5 - Disk quota/vh5nq7x6vquxg2o3/Street 608 7.m4a</property>
    <property name="mlt_service">avformat-novalidate</property>
    <property name="meta.media.nb_streams">1</property>
    <property name="meta.media.0.stream.type">audio</property>
    <property name="meta.media.0.codec.sample_fmt">fltp</property>
    <property name="meta.media.0.codec.sample_rate">48000</property>
    <property name="meta.media.0.codec.channels">1</property>
    <property name="meta.media.0.codec.layout">mono</property>
    <property name="meta.media.0.codec.name">aac</property>
    <property name="meta.media.0.codec.long_name">AAC (Advanced Audio Coding)</property>
    <property name="meta.media.0.codec.bit_rate">62721</property>
    <property name="meta.attr.0.stream.creation_time.markup">2025-09-29T07:09:38.000000Z</property>
    <property name="meta.attr.0.stream.handler_name.markup">Core Media Audio</property>
    <property name="meta.attr.0.stream.vendor_id.markup">[0][0][0][0]</property>
    <property name="meta.attr.major_brand.markup">M4A </property>
    <property name="meta.attr.minor_version.markup">0</property>
    <property name="meta.attr.compatible_brands.markup">M4A isommp42</property>
    <property name="meta.attr.creation_time.markup">2025-09-29T07:09:38.000000Z</property>
    <property name="meta.attr.title.markup">Street 608 7</property>
    <property name="meta.attr.voice-memo-uuid.markup">6D0C02BA-0BD6-4C18-9D11-E8F659C84E89</property>
    <property name="meta.attr.encoder.markup">com.apple.VoiceMemos (iPhone (null))</property>
    <property name="seekable">1</property>
    <property name="audio_index">0</property>
    <property name="video_index">-1</property>
    <property name="creation_time">2025-09-29T07:09:38</property>
    <property name="astream">0</property>
    <property name="shotcut:skipConvert">1</property>
    <property name="shotcut:hash">e13f11492dd88db574d40245c89de3a9</property>
    <property name="shotcut:caption">Street 608 7.m4a</property>
    <property name="xml">was here</property>
  </chain>
  <chain id="chain30" out="00:09:56.317">
    <property name="length">00:09:56.333</property>
    <property name="eof">pause</property>
    <property name="resource">/home/jame/Videos/lab 5 - Disk quota/vh5nq7x6vquxg2o3/Street 608 7.m4a</property>
    <property name="mlt_service">avformat-novalidate</property>
    <property name="meta.media.nb_streams">1</property>
    <property name="meta.media.0.stream.type">audio</property>
    <property name="meta.media.0.codec.sample_fmt">fltp</property>
    <property name="meta.media.0.codec.sample_rate">48000</property>
    <property name="meta.media.0.codec.channels">1</property>
    <property name="meta.media.0.codec.layout">mono</property>
    <property name="meta.media.0.codec.name">aac</property>
    <property name="meta.media.0.codec.long_name">AAC (Advanced Audio Coding)</property>
    <property name="meta.media.0.codec.bit_rate">62721</property>
    <property name="meta.attr.0.stream.creation_time.markup">2025-09-29T07:09:38.000000Z</property>
    <property name="meta.attr.0.stream.handler_name.markup">Core Media Audio</property>
    <property name="meta.attr.0.stream.vendor_id.markup">[0][0][0][0]</property>
    <property name="meta.attr.major_brand.markup">M4A </property>
    <property name="meta.attr.minor_version.markup">0</property>
    <property name="meta.attr.compatible_brands.markup">M4A isommp42</property>
    <property name="meta.attr.creation_time.markup">2025-09-29T07:09:38.000000Z</property>
    <property name="meta.attr.title.markup">Street 608 7</property>
    <property name="meta.attr.voice-memo-uuid.markup">6D0C02BA-0BD6-4C18-9D11-E8F659C84E89</property>
    <property name="meta.attr.encoder.markup">com.apple.VoiceMemos (iPhone (null))</property>
    <property name="seekable">1</property>
    <property name="audio_index">0</property>
    <property name="video_index">-1</property>
    <property name="creation_time">2025-09-29T07:09:38</property>
    <property name="astream">0</property>
    <property name="shotcut:skipConvert">1</property>
    <property name="shotcut:hash">e13f11492dd88db574d40245c89de3a9</property>
    <property name="shotcut:caption">Street 608 7.m4a</property>
    <property name="xml">was here</property>
  </chain>
  <chain id="chain31" out="00:09:56.317">
    <property name="length">00:09:56.333</property>
    <property name="eof">pause</property>
    <property name="resource">/home/jame/Videos/lab 5 - Disk quota/vh5nq7x6vquxg2o3/Street 608 7.m4a</property>
    <property name="mlt_service">avformat-novalidate</property>
    <property name="meta.media.nb_streams">1</property>
    <property name="meta.media.0.stream.type">audio</property>
    <property name="meta.media.0.codec.sample_fmt">fltp</property>
    <property name="meta.media.0.codec.sample_rate">48000</property>
    <property name="meta.media.0.codec.channels">1</property>
    <property name="meta.media.0.codec.layout">mono</property>
    <property name="meta.media.0.codec.name">aac</property>
    <property name="meta.media.0.codec.long_name">AAC (Advanced Audio Coding)</property>
    <property name="meta.media.0.codec.bit_rate">62721</property>
    <property name="meta.attr.0.stream.creation_time.markup">2025-09-29T07:09:38.000000Z</property>
    <property name="meta.attr.0.stream.handler_name.markup">Core Media Audio</property>
    <property name="meta.attr.0.stream.vendor_id.markup">[0][0][0][0]</property>
    <property name="meta.attr.major_brand.markup">M4A </property>
    <property name="meta.attr.minor_version.markup">0</property>
    <property name="meta.attr.compatible_brands.markup">M4A isommp42</property>
    <property name="meta.attr.creation_time.markup">2025-09-29T07:09:38.000000Z</property>
    <property name="meta.attr.title.markup">Street 608 7</property>
    <property name="meta.attr.voice-memo-uuid.markup">6D0C02BA-0BD6-4C18-9D11-E8F659C84E89</property>
    <property name="meta.attr.encoder.markup">com.apple.VoiceMemos (iPhone (null))</property>
    <property name="seekable">1</property>
    <property name="audio_index">0</property>
    <property name="video_index">-1</property>
    <property name="creation_time">2025-09-29T07:09:38</property>
    <property name="astream">0</property>
    <property name="shotcut:skipConvert">1</property>
    <property name="shotcut:hash">e13f11492dd88db574d40245c89de3a9</property>
    <property name="shotcut:caption">Street 608 7.m4a</property>
    <property name="xml">was here</property>
  </chain>
  <chain id="chain32" out="00:09:56.317">
    <property name="length">00:09:56.333</property>
    <property name="eof">pause</property>
    <property name="resource">/home/jame/Videos/lab 5 - Disk quota/vh5nq7x6vquxg2o3/Street 608 7.m4a</property>
    <property name="mlt_service">avformat-novalidate</property>
    <property name="meta.media.nb_streams">1</property>
    <property name="meta.media.0.stream.type">audio</property>
    <property name="meta.media.0.codec.sample_fmt">fltp</property>
    <property name="meta.media.0.codec.sample_rate">48000</property>
    <property name="meta.media.0.codec.channels">1</property>
    <property name="meta.media.0.codec.layout">mono</property>
    <property name="meta.media.0.codec.name">aac</property>
    <property name="meta.media.0.codec.long_name">AAC (Advanced Audio Coding)</property>
    <property name="meta.media.0.codec.bit_rate">62721</property>
    <property name="meta.attr.0.stream.creation_time.markup">2025-09-29T07:09:38.000000Z</property>
    <property name="meta.attr.0.stream.handler_name.markup">Core Media Audio</property>
    <property name="meta.attr.0.stream.vendor_id.markup">[0][0][0][0]</property>
    <property name="meta.attr.major_brand.markup">M4A </property>
    <property name="meta.attr.minor_version.markup">0</property>
    <property name="meta.attr.compatible_brands.markup">M4A isommp42</property>
    <property name="meta.attr.creation_time.markup">2025-09-29T07:09:38.000000Z</property>
    <property name="meta.attr.title.markup">Street 608 7</property>
    <property name="meta.attr.voice-memo-uuid.markup">6D0C02BA-0BD6-4C18-9D11-E8F659C84E89</property>
    <property name="meta.attr.encoder.markup">com.apple.VoiceMemos (iPhone (null))</property>
    <property name="seekable">1</property>
    <property name="audio_index">0</property>
    <property name="video_index">-1</property>
    <property name="creation_time">2025-09-29T07:09:38</property>
    <property name="astream">0</property>
    <property name="shotcut:skipConvert">1</property>
    <property name="shotcut:hash">e13f11492dd88db574d40245c89de3a9</property>
    <property name="shotcut:caption">Street 608 7.m4a</property>
    <property name="xml">was here</property>
  </chain>
  <chain id="chain33" out="00:09:56.317">
    <property name="length">00:09:56.333</property>
    <property name="eof">pause</property>
    <property name="resource">/home/jame/Videos/lab 5 - Disk quota/vh5nq7x6vquxg2o3/Street 608 7.m4a</property>
    <property name="mlt_service">avformat-novalidate</property>
    <property name="meta.media.nb_streams">1</property>
    <property name="meta.media.0.stream.type">audio</property>
    <property name="meta.media.0.codec.sample_fmt">fltp</property>
    <property name="meta.media.0.codec.sample_rate">48000</property>
    <property name="meta.media.0.codec.channels">1</property>
    <property name="meta.media.0.codec.layout">mono</property>
    <property name="meta.media.0.codec.name">aac</property>
    <property name="meta.media.0.codec.long_name">AAC (Advanced Audio Coding)</property>
    <property name="meta.media.0.codec.bit_rate">62721</property>
    <property name="meta.attr.0.stream.creation_time.markup">2025-09-29T07:09:38.000000Z</property>
    <property name="meta.attr.0.stream.handler_name.markup">Core Media Audio</property>
    <property name="meta.attr.0.stream.vendor_id.markup">[0][0][0][0]</property>
    <property name="meta.attr.major_brand.markup">M4A </property>
    <property name="meta.attr.minor_version.markup">0</property>
    <property name="meta.attr.compatible_brands.markup">M4A isommp42</property>
    <property name="meta.attr.creation_time.markup">2025-09-29T07:09:38.000000Z</property>
    <property name="meta.attr.title.markup">Street 608 7</property>
    <property name="meta.attr.voice-memo-uuid.markup">6D0C02BA-0BD6-4C18-9D11-E8F659C84E89</property>
    <property name="meta.attr.encoder.markup">com.apple.VoiceMemos (iPhone (null))</property>
    <property name="seekable">1</property>
    <property name="audio_index">0</property>
    <property name="video_index">-1</property>
    <property name="creation_time">2025-09-29T07:09:38</property>
    <property name="astream">0</property>
    <property name="shotcut:skipConvert">1</property>
    <property name="shotcut:hash">e13f11492dd88db574d40245c89de3a9</property>
    <property name="shotcut:caption">Street 608 7.m4a</property>
    <property name="xml">was here</property>
  </chain>
  <chain id="chain34" out="00:09:56.317">
    <property name="length">00:09:56.333</property>
    <property name="eof">pause</property>
    <property name="resource">/home/jame/Videos/lab 5 - Disk quota/vh5nq7x6vquxg2o3/Street 608 7.m4a</property>
    <property name="mlt_service">avformat-novalidate</property>
    <property name="meta.media.nb_streams">1</property>
    <property name="meta.media.0.stream.type">audio</property>
    <property name="meta.media.0.codec.sample_fmt">fltp</property>
    <property name="meta.media.0.codec.sample_rate">48000</property>
    <property name="meta.media.0.codec.channels">1</property>
    <property name="meta.media.0.codec.layout">mono</property>
    <property name="meta.media.0.codec.name">aac</property>
    <property name="meta.media.0.codec.long_name">AAC (Advanced Audio Coding)</property>
    <property name="meta.media.0.codec.bit_rate">62721</property>
    <property name="meta.attr.0.stream.creation_time.markup">2025-09-29T07:09:38.000000Z</property>
    <property name="meta.attr.0.stream.handler_name.markup">Core Media Audio</property>
    <property name="meta.attr.0.stream.vendor_id.markup">[0][0][0][0]</property>
    <property name="meta.attr.major_brand.markup">M4A </property>
    <property name="meta.attr.minor_version.markup">0</property>
    <property name="meta.attr.compatible_brands.markup">M4A isommp42</property>
    <property name="meta.attr.creation_time.markup">2025-09-29T07:09:38.000000Z</property>
    <property name="meta.attr.title.markup">Street 608 7</property>
    <property name="meta.attr.voice-memo-uuid.markup">6D0C02BA-0BD6-4C18-9D11-E8F659C84E89</property>
    <property name="meta.attr.encoder.markup">com.apple.VoiceMemos (iPhone (null))</property>
    <property name="seekable">1</property>
    <property name="audio_index">0</property>
    <property name="video_index">-1</property>
    <property name="creation_time">2025-09-29T07:09:38</property>
    <property name="astream">0</property>
    <property name="shotcut:skipConvert">1</property>
    <property name="shotcut:hash">e13f11492dd88db574d40245c89de3a9</property>
    <property name="shotcut:caption">Street 608 7.m4a</property>
    <property name="xml">was here</property>
  </chain>
  <chain id="chain35" out="00:01:20.117">
    <property name="length">00:01:20.133</property>
    <property name="eof">pause</property>
    <property name="resource">/home/jame/Videos/lab 5 - Disk quota/vh5nq7x6vquxg2o3/Street 608 8.m4a</property>
    <property name="mlt_service">avformat-novalidate</property>
    <property name="meta.media.nb_streams">1</property>
    <property name="meta.media.0.stream.type">audio</property>
    <property name="meta.media.0.codec.sample_fmt">fltp</property>
    <property name="meta.media.0.codec.sample_rate">48000</property>
    <property name="meta.media.0.codec.channels">1</property>
    <property name="meta.media.0.codec.layout">mono</property>
    <property name="meta.media.0.codec.name">aac</property>
    <property name="meta.media.0.codec.long_name">AAC (Advanced Audio Coding)</property>
    <property name="meta.media.0.codec.bit_rate">62801</property>
    <property name="meta.attr.0.stream.creation_time.markup">2025-09-29T07:19:43.000000Z</property>
    <property name="meta.attr.0.stream.handler_name.markup">Core Media Audio</property>
    <property name="meta.attr.0.stream.vendor_id.markup">[0][0][0][0]</property>
    <property name="meta.attr.major_brand.markup">M4A </property>
    <property name="meta.attr.minor_version.markup">0</property>
    <property name="meta.attr.compatible_brands.markup">M4A isommp42</property>
    <property name="meta.attr.creation_time.markup">2025-09-29T07:19:43.000000Z</property>
    <property name="meta.attr.title.markup">Street 608 8</property>
    <property name="meta.attr.voice-memo-uuid.markup">857CCD94-7601-4802-B782-CBB6943BFFFC</property>
    <property name="meta.attr.encoder.markup">com.apple.VoiceMemos (iPhone (null))</property>
    <property name="seekable">1</property>
    <property name="audio_index">0</property>
    <property name="video_index">-1</property>
    <property name="creation_time">2025-09-29T07:19:43</property>
    <property name="astream">0</property>
    <property name="shotcut:skipConvert">1</property>
    <property name="shotcut:hash">6951fd8f4d4db4a0f4991e9f3652aa9a</property>
    <property name="shotcut:caption">Street 608 8.m4a</property>
    <property name="xml">was here</property>
  </chain>
  <chain id="chain36" out="00:01:20.117">
    <property name="length">00:01:20.133</property>
    <property name="eof">pause</property>
    <property name="resource">/home/jame/Videos/lab 5 - Disk quota/vh5nq7x6vquxg2o3/Street 608 8.m4a</property>
    <property name="mlt_service">avformat-novalidate</property>
    <property name="meta.media.nb_streams">1</property>
    <property name="meta.media.0.stream.type">audio</property>
    <property name="meta.media.0.codec.sample_fmt">fltp</property>
    <property name="meta.media.0.codec.sample_rate">48000</property>
    <property name="meta.media.0.codec.channels">1</property>
    <property name="meta.media.0.codec.layout">mono</property>
    <property name="meta.media.0.codec.name">aac</property>
    <property name="meta.media.0.codec.long_name">AAC (Advanced Audio Coding)</property>
    <property name="meta.media.0.codec.bit_rate">62801</property>
    <property name="meta.attr.0.stream.creation_time.markup">2025-09-29T07:19:43.000000Z</property>
    <property name="meta.attr.0.stream.handler_name.markup">Core Media Audio</property>
    <property name="meta.attr.0.stream.vendor_id.markup">[0][0][0][0]</property>
    <property name="meta.attr.major_brand.markup">M4A </property>
    <property name="meta.attr.minor_version.markup">0</property>
    <property name="meta.attr.compatible_brands.markup">M4A isommp42</property>
    <property name="meta.attr.creation_time.markup">2025-09-29T07:19:43.000000Z</property>
    <property name="meta.attr.title.markup">Street 608 8</property>
    <property name="meta.attr.voice-memo-uuid.markup">857CCD94-7601-4802-B782-CBB6943BFFFC</property>
    <property name="meta.attr.encoder.markup">com.apple.VoiceMemos (iPhone (null))</property>
    <property name="seekable">1</property>
    <property name="audio_index">0</property>
    <property name="video_index">-1</property>
    <property name="creation_time">2025-09-29T07:19:43</property>
    <property name="astream">0</property>
    <property name="shotcut:skipConvert">1</property>
    <property name="shotcut:hash">6951fd8f4d4db4a0f4991e9f3652aa9a</property>
    <property name="shotcut:caption">Street 608 8.m4a</property>
    <property name="xml">was here</property>
  </chain>
  <chain id="chain37" out="00:06:18.783">
    <property name="length">00:06:18.800</property>
    <property name="eof">pause</property>
    <property name="resource">/home/jame/Videos/lab 5 - Disk quota/vh5nq7x6vquxg2o3/Street 608 9.m4a</property>
    <property name="mlt_service">avformat-novalidate</property>
    <property name="meta.media.nb_streams">1</property>
    <property name="meta.media.0.stream.type">audio</property>
    <property name="meta.media.0.codec.sample_fmt">fltp</property>
    <property name="meta.media.0.codec.sample_rate">48000</property>
    <property name="meta.media.0.codec.channels">1</property>
    <property name="meta.media.0.codec.layout">mono</property>
    <property name="meta.media.0.codec.name">aac</property>
    <property name="meta.media.0.codec.long_name">AAC (Advanced Audio Coding)</property>
    <property name="meta.media.0.codec.bit_rate">62789</property>
    <property name="meta.attr.0.stream.creation_time.markup">2025-09-29T07:21:06.000000Z</property>
    <property name="meta.attr.0.stream.handler_name.markup">Core Media Audio</property>
    <property name="meta.attr.0.stream.vendor_id.markup">[0][0][0][0]</property>
    <property name="meta.attr.major_brand.markup">M4A </property>
    <property name="meta.attr.minor_version.markup">0</property>
    <property name="meta.attr.compatible_brands.markup">M4A isommp42</property>
    <property name="meta.attr.creation_time.markup">2025-09-29T07:21:06.000000Z</property>
    <property name="meta.attr.title.markup">Street 608 9</property>
    <property name="meta.attr.voice-memo-uuid.markup">23B5A618-F81F-4C84-B110-4AA104B6E0A8</property>
    <property name="meta.attr.encoder.markup">com.apple.VoiceMemos (iPhone (null))</property>
    <property name="seekable">1</property>
    <property name="audio_index">0</property>
    <property name="video_index">-1</property>
    <property name="creation_time">2025-09-29T07:21:06</property>
    <property name="astream">0</property>
    <property name="shotcut:skipConvert">1</property>
    <property name="shotcut:hash">48e975a36708ccd63ac446c4aa648d10</property>
    <property name="shotcut:caption">Street 608 9.m4a</property>
    <property name="xml">was here</property>
  </chain>
  <chain id="chain38" out="00:06:18.783">
    <property name="length">00:06:18.800</property>
    <property name="eof">pause</property>
    <property name="resource">/home/jame/Videos/lab 5 - Disk quota/vh5nq7x6vquxg2o3/Street 608 9.m4a</property>
    <property name="mlt_service">avformat-novalidate</property>
    <property name="meta.media.nb_streams">1</property>
    <property name="meta.media.0.stream.type">audio</property>
    <property name="meta.media.0.codec.sample_fmt">fltp</property>
    <property name="meta.media.0.codec.sample_rate">48000</property>
    <property name="meta.media.0.codec.channels">1</property>
    <property name="meta.media.0.codec.layout">mono</property>
    <property name="meta.media.0.codec.name">aac</property>
    <property name="meta.media.0.codec.long_name">AAC (Advanced Audio Coding)</property>
    <property name="meta.media.0.codec.bit_rate">62789</property>
    <property name="meta.attr.0.stream.creation_time.markup">2025-09-29T07:21:06.000000Z</property>
    <property name="meta.attr.0.stream.handler_name.markup">Core Media Audio</property>
    <property name="meta.attr.0.stream.vendor_id.markup">[0][0][0][0]</property>
    <property name="meta.attr.major_brand.markup">M4A </property>
    <property name="meta.attr.minor_version.markup">0</property>
    <property name="meta.attr.compatible_brands.markup">M4A isommp42</property>
    <property name="meta.attr.creation_time.markup">2025-09-29T07:21:06.000000Z</property>
    <property name="meta.attr.title.markup">Street 608 9</property>
    <property name="meta.attr.voice-memo-uuid.markup">23B5A618-F81F-4C84-B110-4AA104B6E0A8</property>
    <property name="meta.attr.encoder.markup">com.apple.VoiceMemos (iPhone (null))</property>
    <property name="seekable">1</property>
    <property name="audio_index">0</property>
    <property name="video_index">-1</property>
    <property name="creation_time">2025-09-29T07:21:06</property>
    <property name="astream">0</property>
    <property name="shotcut:skipConvert">1</property>
    <property name="shotcut:hash">48e975a36708ccd63ac446c4aa648d10</property>
    <property name="shotcut:caption">Street 608 9.m4a</property>
    <property name="xml">was here</property>
  </chain>
  <chain id="chain39" out="00:06:18.783">
    <property name="length">00:06:18.800</property>
    <property name="eof">pause</property>
    <property name="resource">/home/jame/Videos/lab 5 - Disk quota/vh5nq7x6vquxg2o3/Street 608 9.m4a</property>
    <property name="mlt_service">avformat-novalidate</property>
    <property name="meta.media.nb_streams">1</property>
    <property name="meta.media.0.stream.type">audio</property>
    <property name="meta.media.0.codec.sample_fmt">fltp</property>
    <property name="meta.media.0.codec.sample_rate">48000</property>
    <property name="meta.media.0.codec.channels">1</property>
    <property name="meta.media.0.codec.layout">mono</property>
    <property name="meta.media.0.codec.name">aac</property>
    <property name="meta.media.0.codec.long_name">AAC (Advanced Audio Coding)</property>
    <property name="meta.media.0.codec.bit_rate">62789</property>
    <property name="meta.attr.0.stream.creation_time.markup">2025-09-29T07:21:06.000000Z</property>
    <property name="meta.attr.0.stream.handler_name.markup">Core Media Audio</property>
    <property name="meta.attr.0.stream.vendor_id.markup">[0][0][0][0]</property>
    <property name="meta.attr.major_brand.markup">M4A </property>
    <property name="meta.attr.minor_version.markup">0</property>
    <property name="meta.attr.compatible_brands.markup">M4A isommp42</property>
    <property name="meta.attr.creation_time.markup">2025-09-29T07:21:06.000000Z</property>
    <property name="meta.attr.title.markup">Street 608 9</property>
    <property name="meta.attr.voice-memo-uuid.markup">23B5A618-F81F-4C84-B110-4AA104B6E0A8</property>
    <property name="meta.attr.encoder.markup">com.apple.VoiceMemos (iPhone (null))</property>
    <property name="seekable">1</property>
    <property name="audio_index">0</property>
    <property name="video_index">-1</property>
    <property name="creation_time">2025-09-29T07:21:06</property>
    <property name="astream">0</property>
    <property name="shotcut:skipConvert">1</property>
    <property name="shotcut:hash">48e975a36708ccd63ac446c4aa648d10</property>
    <property name="shotcut:caption">Street 608 9.m4a</property>
    <property name="xml">was here</property>
  </chain>
  <chain id="chain40" out="00:06:18.783">
    <property name="length">00:06:18.800</property>
    <property name="eof">pause</property>
    <property name="resource">/home/jame/Videos/lab 5 - Disk quota/vh5nq7x6vquxg2o3/Street 608 9.m4a</property>
    <property name="mlt_service">avformat-novalidate</property>
    <property name="meta.media.nb_streams">1</property>
    <property name="meta.media.0.stream.type">audio</property>
    <property name="meta.media.0.codec.sample_fmt">fltp</property>
    <property name="meta.media.0.codec.sample_rate">48000</property>
    <property name="meta.media.0.codec.channels">1</property>
    <property name="meta.media.0.codec.layout">mono</property>
    <property name="meta.media.0.codec.name">aac</property>
    <property name="meta.media.0.codec.long_name">AAC (Advanced Audio Coding)</property>
    <property name="meta.media.0.codec.bit_rate">62789</property>
    <property name="meta.attr.0.stream.creation_time.markup">2025-09-29T07:21:06.000000Z</property>
    <property name="meta.attr.0.stream.handler_name.markup">Core Media Audio</property>
    <property name="meta.attr.0.stream.vendor_id.markup">[0][0][0][0]</property>
    <property name="meta.attr.major_brand.markup">M4A </property>
    <property name="meta.attr.minor_version.markup">0</property>
    <property name="meta.attr.compatible_brands.markup">M4A isommp42</property>
    <property name="meta.attr.creation_time.markup">2025-09-29T07:21:06.000000Z</property>
    <property name="meta.attr.title.markup">Street 608 9</property>
    <property name="meta.attr.voice-memo-uuid.markup">23B5A618-F81F-4C84-B110-4AA104B6E0A8</property>
    <property name="meta.attr.encoder.markup">com.apple.VoiceMemos (iPhone (null))</property>
    <property name="seekable">1</property>
    <property name="audio_index">0</property>
    <property name="video_index">-1</property>
    <property name="creation_time">2025-09-29T07:21:06</property>
    <property name="astream">0</property>
    <property name="shotcut:skipConvert">1</property>
    <property name="shotcut:hash">48e975a36708ccd63ac446c4aa648d10</property>
    <property name="shotcut:caption">Street 608 9.m4a</property>
    <property name="xml">was here</property>
  </chain>
  <chain id="chain41" out="00:06:18.783">
    <property name="length">00:06:18.800</property>
    <property name="eof">pause</property>
    <property name="resource">/home/jame/Videos/lab 5 - Disk quota/vh5nq7x6vquxg2o3/Street 608 9.m4a</property>
    <property name="mlt_service">avformat-novalidate</property>
    <property name="meta.media.nb_streams">1</property>
    <property name="meta.media.0.stream.type">audio</property>
    <property name="meta.media.0.codec.sample_fmt">fltp</property>
    <property name="meta.media.0.codec.sample_rate">48000</property>
    <property name="meta.media.0.codec.channels">1</property>
    <property name="meta.media.0.codec.layout">mono</property>
    <property name="meta.media.0.codec.name">aac</property>
    <property name="meta.media.0.codec.long_name">AAC (Advanced Audio Coding)</property>
    <property name="meta.media.0.codec.bit_rate">62789</property>
    <property name="meta.attr.0.stream.creation_time.markup">2025-09-29T07:21:06.000000Z</property>
    <property name="meta.attr.0.stream.handler_name.markup">Core Media Audio</property>
    <property name="meta.attr.0.stream.vendor_id.markup">[0][0][0][0]</property>
    <property name="meta.attr.major_brand.markup">M4A </property>
    <property name="meta.attr.minor_version.markup">0</property>
    <property name="meta.attr.compatible_brands.markup">M4A isommp42</property>
    <property name="meta.attr.creation_time.markup">2025-09-29T07:21:06.000000Z</property>
    <property name="meta.attr.title.markup">Street 608 9</property>
    <property name="meta.attr.voice-memo-uuid.markup">23B5A618-F81F-4C84-B110-4AA104B6E0A8</property>
    <property name="meta.attr.encoder.markup">com.apple.VoiceMemos (iPhone (null))</property>
    <property name="seekable">1</property>
    <property name="audio_index">0</property>
    <property name="video_index">-1</property>
    <property name="creation_time">2025-09-29T07:21:06</property>
    <property name="astream">0</property>
    <property name="shotcut:skipConvert">1</property>
    <property name="shotcut:hash">48e975a36708ccd63ac446c4aa648d10</property>
    <property name="shotcut:caption">Street 608 9.m4a</property>
    <property name="xml">was here</property>
  </chain>
  <chain id="chain42" out="00:06:18.783">
    <property name="length">00:06:18.800</property>
    <property name="eof">pause</property>
    <property name="resource">/home/jame/Videos/lab 5 - Disk quota/vh5nq7x6vquxg2o3/Street 608 9.m4a</property>
    <property name="mlt_service">avformat-novalidate</property>
    <property name="meta.media.nb_streams">1</property>
    <property name="meta.media.0.stream.type">audio</property>
    <property name="meta.media.0.codec.sample_fmt">fltp</property>
    <property name="meta.media.0.codec.sample_rate">48000</property>
    <property name="meta.media.0.codec.channels">1</property>
    <property name="meta.media.0.codec.layout">mono</property>
    <property name="meta.media.0.codec.name">aac</property>
    <property name="meta.media.0.codec.long_name">AAC (Advanced Audio Coding)</property>
    <property name="meta.media.0.codec.bit_rate">62789</property>
    <property name="meta.attr.0.stream.creation_time.markup">2025-09-29T07:21:06.000000Z</property>
    <property name="meta.attr.0.stream.handler_name.markup">Core Media Audio</property>
    <property name="meta.attr.0.stream.vendor_id.markup">[0][0][0][0]</property>
    <property name="meta.attr.major_brand.markup">M4A </property>
    <property name="meta.attr.minor_version.markup">0</property>
    <property name="meta.attr.compatible_brands.markup">M4A isommp42</property>
    <property name="meta.attr.creation_time.markup">2025-09-29T07:21:06.000000Z</property>
    <property name="meta.attr.title.markup">Street 608 9</property>
    <property name="meta.attr.voice-memo-uuid.markup">23B5A618-F81F-4C84-B110-4AA104B6E0A8</property>
    <property name="meta.attr.encoder.markup">com.apple.VoiceMemos (iPhone (null))</property>
    <property name="seekable">1</property>
    <property name="audio_index">0</property>
    <property name="video_index">-1</property>
    <property name="creation_time">2025-09-29T07:21:06</property>
    <property name="astream">0</property>
    <property name="shotcut:skipConvert">1</property>
    <property name="shotcut:hash">48e975a36708ccd63ac446c4aa648d10</property>
    <property name="shotcut:caption">Street 608 9.m4a</property>
    <property name="xml">was here</property>
  </chain>
  <chain id="chain43" out="00:06:18.783">
    <property name="length">00:06:18.800</property>
    <property name="eof">pause</property>
    <property name="resource">/home/jame/Videos/lab 5 - Disk quota/vh5nq7x6vquxg2o3/Street 608 9.m4a</property>
    <property name="mlt_service">avformat-novalidate</property>
    <property name="meta.media.nb_streams">1</property>
    <property name="meta.media.0.stream.type">audio</property>
    <property name="meta.media.0.codec.sample_fmt">fltp</property>
    <property name="meta.media.0.codec.sample_rate">48000</property>
    <property name="meta.media.0.codec.channels">1</property>
    <property name="meta.media.0.codec.layout">mono</property>
    <property name="meta.media.0.codec.name">aac</property>
    <property name="meta.media.0.codec.long_name">AAC (Advanced Audio Coding)</property>
    <property name="meta.media.0.codec.bit_rate">62789</property>
    <property name="meta.attr.0.stream.creation_time.markup">2025-09-29T07:21:06.000000Z</property>
    <property name="meta.attr.0.stream.handler_name.markup">Core Media Audio</property>
    <property name="meta.attr.0.stream.vendor_id.markup">[0][0][0][0]</property>
    <property name="meta.attr.major_brand.markup">M4A </property>
    <property name="meta.attr.minor_version.markup">0</property>
    <property name="meta.attr.compatible_brands.markup">M4A isommp42</property>
    <property name="meta.attr.creation_time.markup">2025-09-29T07:21:06.000000Z</property>
    <property name="meta.attr.title.markup">Street 608 9</property>
    <property name="meta.attr.voice-memo-uuid.markup">23B5A618-F81F-4C84-B110-4AA104B6E0A8</property>
    <property name="meta.attr.encoder.markup">com.apple.VoiceMemos (iPhone (null))</property>
    <property name="seekable">1</property>
    <property name="audio_index">0</property>
    <property name="video_index">-1</property>
    <property name="creation_time">2025-09-29T07:21:06</property>
    <property name="astream">0</property>
    <property name="shotcut:skipConvert">1</property>
    <property name="shotcut:hash">48e975a36708ccd63ac446c4aa648d10</property>
    <property name="shotcut:caption">Street 608 9.m4a</property>
    <property name="xml">was here</property>
  </chain>
  <chain id="chain44" out="00:06:18.783">
    <property name="length">00:06:18.800</property>
    <property name="eof">pause</property>
    <property name="resource">/home/jame/Videos/lab 5 - Disk quota/vh5nq7x6vquxg2o3/Street 608 9.m4a</property>
    <property name="mlt_service">avformat-novalidate</property>
    <property name="meta.media.nb_streams">1</property>
    <property name="meta.media.0.stream.type">audio</property>
    <property name="meta.media.0.codec.sample_fmt">fltp</property>
    <property name="meta.media.0.codec.sample_rate">48000</property>
    <property name="meta.media.0.codec.channels">1</property>
    <property name="meta.media.0.codec.layout">mono</property>
    <property name="meta.media.0.codec.name">aac</property>
    <property name="meta.media.0.codec.long_name">AAC (Advanced Audio Coding)</property>
    <property name="meta.media.0.codec.bit_rate">62789</property>
    <property name="meta.attr.0.stream.creation_time.markup">2025-09-29T07:21:06.000000Z</property>
    <property name="meta.attr.0.stream.handler_name.markup">Core Media Audio</property>
    <property name="meta.attr.0.stream.vendor_id.markup">[0][0][0][0]</property>
    <property name="meta.attr.major_brand.markup">M4A </property>
    <property name="meta.attr.minor_version.markup">0</property>
    <property name="meta.attr.compatible_brands.markup">M4A isommp42</property>
    <property name="meta.attr.creation_time.markup">2025-09-29T07:21:06.000000Z</property>
    <property name="meta.attr.title.markup">Street 608 9</property>
    <property name="meta.attr.voice-memo-uuid.markup">23B5A618-F81F-4C84-B110-4AA104B6E0A8</property>
    <property name="meta.attr.encoder.markup">com.apple.VoiceMemos (iPhone (null))</property>
    <property name="seekable">1</property>
    <property name="audio_index">0</property>
    <property name="video_index">-1</property>
    <property name="creation_time">2025-09-29T07:21:06</property>
    <property name="astream">0</property>
    <property name="shotcut:skipConvert">1</property>
    <property name="shotcut:hash">48e975a36708ccd63ac446c4aa648d10</property>
    <property name="shotcut:caption">Street 608 9.m4a</property>
    <property name="xml">was here</property>
  </chain>
  <chain id="chain45" out="00:06:18.783">
    <property name="length">00:06:18.800</property>
    <property name="eof">pause</property>
    <property name="resource">/home/jame/Videos/lab 5 - Disk quota/vh5nq7x6vquxg2o3/Street 608 9.m4a</property>
    <property name="mlt_service">avformat-novalidate</property>
    <property name="meta.media.nb_streams">1</property>
    <property name="meta.media.0.stream.type">audio</property>
    <property name="meta.media.0.codec.sample_fmt">fltp</property>
    <property name="meta.media.0.codec.sample_rate">48000</property>
    <property name="meta.media.0.codec.channels">1</property>
    <property name="meta.media.0.codec.layout">mono</property>
    <property name="meta.media.0.codec.name">aac</property>
    <property name="meta.media.0.codec.long_name">AAC (Advanced Audio Coding)</property>
    <property name="meta.media.0.codec.bit_rate">62789</property>
    <property name="meta.attr.0.stream.creation_time.markup">2025-09-29T07:21:06.000000Z</property>
    <property name="meta.attr.0.stream.handler_name.markup">Core Media Audio</property>
    <property name="meta.attr.0.stream.vendor_id.markup">[0][0][0][0]</property>
    <property name="meta.attr.major_brand.markup">M4A </property>
    <property name="meta.attr.minor_version.markup">0</property>
    <property name="meta.attr.compatible_brands.markup">M4A isommp42</property>
    <property name="meta.attr.creation_time.markup">2025-09-29T07:21:06.000000Z</property>
    <property name="meta.attr.title.markup">Street 608 9</property>
    <property name="meta.attr.voice-memo-uuid.markup">23B5A618-F81F-4C84-B110-4AA104B6E0A8</property>
    <property name="meta.attr.encoder.markup">com.apple.VoiceMemos (iPhone (null))</property>
    <property name="seekable">1</property>
    <property name="audio_index">0</property>
    <property name="video_index">-1</property>
    <property name="creation_time">2025-09-29T07:21:06</property>
    <property name="astream">0</property>
    <property name="shotcut:skipConvert">1</property>
    <property name="shotcut:hash">48e975a36708ccd63ac446c4aa648d10</property>
    <property name="shotcut:caption">Street 608 9.m4a</property>
    <property name="xml">was here</property>
  </chain>
  <chain id="chain46" out="00:06:18.783">
    <property name="length">00:06:18.800</property>
    <property name="eof">pause</property>
    <property name="resource">/home/jame/Videos/lab 5 - Disk quota/vh5nq7x6vquxg2o3/Street 608 9.m4a</property>
    <property name="mlt_service">avformat-novalidate</property>
    <property name="meta.media.nb_streams">1</property>
    <property name="meta.media.0.stream.type">audio</property>
    <property name="meta.media.0.codec.sample_fmt">fltp</property>
    <property name="meta.media.0.codec.sample_rate">48000</property>
    <property name="meta.media.0.codec.channels">1</property>
    <property name="meta.media.0.codec.layout">mono</property>
    <property name="meta.media.0.codec.name">aac</property>
    <property name="meta.media.0.codec.long_name">AAC (Advanced Audio Coding)</property>
    <property name="meta.media.0.codec.bit_rate">62789</property>
    <property name="meta.attr.0.stream.creation_time.markup">2025-09-29T07:21:06.000000Z</property>
    <property name="meta.attr.0.stream.handler_name.markup">Core Media Audio</property>
    <property name="meta.attr.0.stream.vendor_id.markup">[0][0][0][0]</property>
    <property name="meta.attr.major_brand.markup">M4A </property>
    <property name="meta.attr.minor_version.markup">0</property>
    <property name="meta.attr.compatible_brands.markup">M4A isommp42</property>
    <property name="meta.attr.creation_time.markup">2025-09-29T07:21:06.000000Z</property>
    <property name="meta.attr.title.markup">Street 608 9</property>
    <property name="meta.attr.voice-memo-uuid.markup">23B5A618-F81F-4C84-B110-4AA104B6E0A8</property>
    <property name="meta.attr.encoder.markup">com.apple.VoiceMemos (iPhone (null))</property>
    <property name="seekable">1</property>
    <property name="audio_index">0</property>
    <property name="video_index">-1</property>
    <property name="creation_time">2025-09-29T07:21:06</property>
    <property name="astream">0</property>
    <property name="shotcut:skipConvert">1</property>
    <property name="shotcut:hash">48e975a36708ccd63ac446c4aa648d10</property>
    <property name="shotcut:caption">Street 608 9.m4a</property>
    <property name="xml">was here</property>
  </chain>
  <chain id="chain47" out="00:06:18.783">
    <property name="length">00:06:18.800</property>
    <property name="eof">pause</property>
    <property name="resource">/home/jame/Videos/lab 5 - Disk quota/vh5nq7x6vquxg2o3/Street 608 9.m4a</property>
    <property name="mlt_service">avformat-novalidate</property>
    <property name="meta.media.nb_streams">1</property>
    <property name="meta.media.0.stream.type">audio</property>
    <property name="meta.media.0.codec.sample_fmt">fltp</property>
    <property name="meta.media.0.codec.sample_rate">48000</property>
    <property name="meta.media.0.codec.channels">1</property>
    <property name="meta.media.0.codec.layout">mono</property>
    <property name="meta.media.0.codec.name">aac</property>
    <property name="meta.media.0.codec.long_name">AAC (Advanced Audio Coding)</property>
    <property name="meta.media.0.codec.bit_rate">62789</property>
    <property name="meta.attr.0.stream.creation_time.markup">2025-09-29T07:21:06.000000Z</property>
    <property name="meta.attr.0.stream.handler_name.markup">Core Media Audio</property>
    <property name="meta.attr.0.stream.vendor_id.markup">[0][0][0][0]</property>
    <property name="meta.attr.major_brand.markup">M4A </property>
    <property name="meta.attr.minor_version.markup">0</property>
    <property name="meta.attr.compatible_brands.markup">M4A isommp42</property>
    <property name="meta.attr.creation_time.markup">2025-09-29T07:21:06.000000Z</property>
    <property name="meta.attr.title.markup">Street 608 9</property>
    <property name="meta.attr.voice-memo-uuid.markup">23B5A618-F81F-4C84-B110-4AA104B6E0A8</property>
    <property name="meta.attr.encoder.markup">com.apple.VoiceMemos (iPhone (null))</property>
    <property name="seekable">1</property>
    <property name="audio_index">0</property>
    <property name="video_index">-1</property>
    <property name="creation_time">2025-09-29T07:21:06</property>
    <property name="astream">0</property>
    <property name="shotcut:skipConvert">1</property>
    <property name="shotcut:hash">48e975a36708ccd63ac446c4aa648d10</property>
    <property name="shotcut:caption">Street 608 9.m4a</property>
    <property name="xml">was here</property>
  </chain>
  <chain id="chain48" out="00:06:18.783">
    <property name="length">00:06:18.800</property>
    <property name="eof">pause</property>
    <property name="resource">/home/jame/Videos/lab 5 - Disk quota/vh5nq7x6vquxg2o3/Street 608 9.m4a</property>
    <property name="mlt_service">avformat-novalidate</property>
    <property name="meta.media.nb_streams">1</property>
    <property name="meta.media.0.stream.type">audio</property>
    <property name="meta.media.0.codec.sample_fmt">fltp</property>
    <property name="meta.media.0.codec.sample_rate">48000</property>
    <property name="meta.media.0.codec.channels">1</property>
    <property name="meta.media.0.codec.layout">mono</property>
    <property name="meta.media.0.codec.name">aac</property>
    <property name="meta.media.0.codec.long_name">AAC (Advanced Audio Coding)</property>
    <property name="meta.media.0.codec.bit_rate">62789</property>
    <property name="meta.attr.0.stream.creation_time.markup">2025-09-29T07:21:06.000000Z</property>
    <property name="meta.attr.0.stream.handler_name.markup">Core Media Audio</property>
    <property name="meta.attr.0.stream.vendor_id.markup">[0][0][0][0]</property>
    <property name="meta.attr.major_brand.markup">M4A </property>
    <property name="meta.attr.minor_version.markup">0</property>
    <property name="meta.attr.compatible_brands.markup">M4A isommp42</property>
    <property name="meta.attr.creation_time.markup">2025-09-29T07:21:06.000000Z</property>
    <property name="meta.attr.title.markup">Street 608 9</property>
    <property name="meta.attr.voice-memo-uuid.markup">23B5A618-F81F-4C84-B110-4AA104B6E0A8</property>
    <property name="meta.attr.encoder.markup">com.apple.VoiceMemos (iPhone (null))</property>
    <property name="seekable">1</property>
    <property name="audio_index">0</property>
    <property name="video_index">-1</property>
    <property name="creation_time">2025-09-29T07:21:06</property>
    <property name="astream">0</property>
    <property name="shotcut:skipConvert">1</property>
    <property name="shotcut:hash">48e975a36708ccd63ac446c4aa648d10</property>
    <property name="shotcut:caption">Street 608 9.m4a</property>
    <property name="xml">was here</property>
  </chain>
  <chain id="chain49" out="00:00:08.950">
    <property name="length">00:00:08.967</property>
    <property name="eof">pause</property>
    <property name="resource">/home/jame/Videos/lab 5 - Disk quota/vh5nq7x6vquxg2o3/Street 608 10.m4a</property>
    <property name="mlt_service">avformat-novalidate</property>
    <property name="meta.media.nb_streams">1</property>
    <property name="meta.media.0.stream.type">audio</property>
    <property name="meta.media.0.codec.sample_fmt">fltp</property>
    <property name="meta.media.0.codec.sample_rate">48000</property>
    <property name="meta.media.0.codec.channels">1</property>
    <property name="meta.media.0.codec.layout">mono</property>
    <property name="meta.media.0.codec.name">aac</property>
    <property name="meta.media.0.codec.long_name">AAC (Advanced Audio Coding)</property>
    <property name="meta.media.0.codec.bit_rate">63083</property>
    <property name="meta.attr.0.stream.creation_time.markup">2025-09-29T07:27:47.000000Z</property>
    <property name="meta.attr.0.stream.handler_name.markup">Core Media Audio</property>
    <property name="meta.attr.0.stream.vendor_id.markup">[0][0][0][0]</property>
    <property name="meta.attr.major_brand.markup">M4A </property>
    <property name="meta.attr.minor_version.markup">0</property>
    <property name="meta.attr.compatible_brands.markup">M4A isommp42</property>
    <property name="meta.attr.creation_time.markup">2025-09-29T07:27:47.000000Z</property>
    <property name="meta.attr.title.markup">Street 608 10</property>
    <property name="meta.attr.voice-memo-uuid.markup">C01D43CE-6728-47EA-837A-B5DA163897E8</property>
    <property name="meta.attr.encoder.markup">com.apple.VoiceMemos (iPhone (null))</property>
    <property name="seekable">1</property>
    <property name="audio_index">0</property>
    <property name="video_index">-1</property>
    <property name="creation_time">2025-09-29T07:27:47</property>
    <property name="astream">0</property>
    <property name="shotcut:skipConvert">1</property>
    <property name="shotcut:hash">2aca91a4c40daba5409d9904c64bd2b7</property>
    <property name="shotcut:caption">Street 608 10.m4a</property>
    <property name="xml">was here</property>
  </chain>
  <chain id="chain50" out="00:06:18.783">
    <property name="length">00:06:18.800</property>
    <property name="eof">pause</property>
    <property name="resource">/home/jame/Videos/lab 5 - Disk quota/vh5nq7x6vquxg2o3/Street 608 9.m4a</property>
    <property name="mlt_service">avformat-novalidate</property>
    <property name="meta.media.nb_streams">1</property>
    <property name="meta.media.0.stream.type">audio</property>
    <property name="meta.media.0.codec.sample_fmt">fltp</property>
    <property name="meta.media.0.codec.sample_rate">48000</property>
    <property name="meta.media.0.codec.channels">1</property>
    <property name="meta.media.0.codec.layout">mono</property>
    <property name="meta.media.0.codec.name">aac</property>
    <property name="meta.media.0.codec.long_name">AAC (Advanced Audio Coding)</property>
    <property name="meta.media.0.codec.bit_rate">62789</property>
    <property name="meta.attr.0.stream.creation_time.markup">2025-09-29T07:21:06.000000Z</property>
    <property name="meta.attr.0.stream.handler_name.markup">Core Media Audio</property>
    <property name="meta.attr.0.stream.vendor_id.markup">[0][0][0][0]</property>
    <property name="meta.attr.major_brand.markup">M4A </property>
    <property name="meta.attr.minor_version.markup">0</property>
    <property name="meta.attr.compatible_brands.markup">M4A isommp42</property>
    <property name="meta.attr.creation_time.markup">2025-09-29T07:21:06.000000Z</property>
    <property name="meta.attr.title.markup">Street 608 9</property>
    <property name="meta.attr.voice-memo-uuid.markup">23B5A618-F81F-4C84-B110-4AA104B6E0A8</property>
    <property name="meta.attr.encoder.markup">com.apple.VoiceMemos (iPhone (null))</property>
    <property name="seekable">1</property>
    <property name="audio_index">0</property>
    <property name="video_index">-1</property>
    <property name="creation_time">2025-09-29T07:21:06</property>
    <property name="astream">0</property>
    <property name="shotcut:skipConvert">1</property>
    <property name="shotcut:hash">48e975a36708ccd63ac446c4aa648d10</property>
    <property name="shotcut:caption">Street 608 9.m4a</property>
    <property name="xml">was here</property>
  </chain>
  <playlist id="playlist1">
    <property name="shotcut:audio">1</property>
    <property name="shotcut:name">A1</property>
    <entry producer="chain19" in="00:00:00.000" out="00:00:10.433"/>
    <entry producer="chain20" in="00:00:18.350" out="00:00:23.250"/>
    <entry producer="chain21" in="00:00:27.583" out="00:00:37.550"/>
    <blank length="00:00:04.000"/>
    <entry producer="chain22" in="00:00:37.567" out="00:00:42.050"/>
    <blank length="00:00:01.450"/>
    <entry producer="chain23" in="00:00:42.067" out="00:01:13.833"/>
    <blank length="00:00:05.750"/>
    <entry producer="chain24" in="00:01:26.700" out="00:01:34.683"/>
    <blank length="00:00:23.017"/>
    <entry producer="chain25" in="00:02:08.700" out="00:02:39.133"/>
    <entry producer="chain26" in="00:02:39.750" out="00:03:44.583"/>
    <blank length="00:00:04.633"/>
    <entry producer="chain27" in="00:03:50.933" out="00:03:57.683"/>
    <blank length="00:00:01.317"/>
    <entry producer="chain28" in="00:04:05.883" out="00:04:09.400"/>
    <entry producer="chain29" in="00:04:12.783" out="00:05:10.867"/>
    <entry producer="chain30" in="00:05:19.067" out="00:05:40.967"/>
    <blank length="00:00:20.017"/>
    <entry producer="chain31" in="00:05:56.983" out="00:06:04.300"/>
    <entry producer="chain32" in="00:06:07.183" out="00:06:37.400"/>
    <entry producer="chain33" in="00:06:44.567" out="00:08:06.650"/>
    <blank length="00:00:12.583"/>
    <entry producer="chain34" in="00:08:39.033" out="00:09:56.317"/>
    <blank length="00:00:05.383"/>
    <entry producer="chain35" in="00:00:09.250" out="00:00:39.600"/>
    <blank length="00:00:05.550"/>
    <entry producer="chain36" in="00:00:42.600" out="00:01:00.483"/>
    <blank length="00:00:06.817"/>
    <entry producer="chain37" in="00:00:00.000" out="00:00:07.050"/>
    <blank length="00:00:07.533"/>
    <entry producer="chain38" in="00:00:14.600" out="00:00:21.133"/>
    <entry producer="chain39" in="00:00:24.567" out="00:00:38.200"/>
    <blank length="00:00:03.700"/>
    <entry producer="chain40" in="00:00:44.050" out="00:00:50.367"/>
    <blank length="00:00:03.283"/>
    <entry producer="chain41" in="00:01:00.133" out="00:01:03.500"/>
    <entry producer="chain42" in="00:01:08.733" out="00:01:14.633"/>
    <blank length="00:00:04.817"/>
    <entry producer="chain43" in="00:01:14.650" out="00:01:28.050"/>
    <entry producer="chain44" in="00:01:28.067" out="00:01:30.633"/>
    <blank length="00:00:01.450"/>
    <entry producer="chain45" in="00:01:38.033" out="00:01:51.917"/>
    <entry producer="chain46" in="00:02:02.383" out="00:02:12.750"/>
    <blank length="00:00:06.150"/>
    <entry producer="chain47" in="00:02:24.033" out="00:05:21.150"/>
    <blank length="00:00:11.483"/>
    <entry producer="chain48" in="00:05:43.650" out="00:05:49.400"/>
    <entry producer="chain49" in="00:00:01.683" out="00:00:08.233"/>
    <blank length="00:00:00.767"/>
    <entry producer="chain50" in="00:06:11.450" out="00:06:16.633"/>
  </playlist>
  <producer id="producer0" in="00:00:00.000" out="03:59:59.983">
    <property name="length">04:00:00.000</property>
    <property name="eof">pause</property>
    <property name="resource">#FF00557F</property>
    <property name="aspect_ratio">1</property>
    <property name="mlt_service">color</property>
    <property name="mlt_image_format">rgba</property>
    <property name="shotcut:caption">#FF00557F</property>
    <property name="shotcut:detail">#FF00557F</property>
    <property name="xml">was here</property>
    <property name="seekable">1</property>
    <property name="meta.shotcut.vui">1</property>
    <filter id="filter7" out="00:00:10.417">
      <property name="argument"> Sou Chanrojame
lab 5 - Disk Quota</property>
      <property name="geometry">-4 201 1280 180 1</property>
      <property name="family">Sans</property>
      <property name="size">80</property>
      <property name="weight">1000</property>
      <property name="style">normal</property>
      <property name="fgcolour">#ffffffff</property>
      <property name="bgcolour">#00000000</property>
      <property name="olcolour">#aa000000</property>
      <property name="pad">0</property>
      <property name="halign">center</property>
      <property name="valign">top</property>
      <property name="outline">3</property>
      <property name="opacity">1</property>
      <property name="mlt_service">dynamictext</property>
      <property name="shotcut:filter">dynamicText</property>
      <property name="shotcut:usePointSize">1</property>
      <property name="shotcut:pointSize">60</property>
    </filter>
  </producer>
  <playlist id="playlist2">
    <property name="shotcut:video">1</property>
    <property name="shotcut:name">V2</property>
    <blank length="00:00:00.017"/>
    <entry producer="producer0" in="00:00:00.000" out="00:00:10.417"/>
  </playlist>
  <tractor id="tractor0" title="Shotcut version 25.08.16" in="00:00:00.000" out="00:15:13.333">
    <property name="shotcut">1</property>
    <property name="shotcut:projectAudioChannels">2</property>
    <property name="shotcut:projectFolder">0</property>
    <property name="shotcut:scaleFactor">0.679921</property>
    <property name="shotcut:skipConvert">0</property>
    <track producer="background"/>
    <track producer="playlist0"/>
    <track producer="playlist1" hide="video"/>
    <track producer="playlist2"/>
    <transition id="transition0">
      <property name="a_track">0</property>
      <property name="b_track">1</property>
      <property name="mlt_service">mix</property>
      <property name="always_active">1</property>
      <property name="sum">1</property>
    </transition>
    <transition id="transition1">
      <property name="a_track">0</property>
      <property name="b_track">1</property>
      <property name="version">0.1</property>
      <property name="mlt_service">frei0r.cairoblend</property>
      <property name="threads">0</property>
      <property name="disable">1</property>
    </transition>
    <transition id="transition2">
      <property name="a_track">0</property>
      <property name="b_track">2</property>
      <property name="mlt_service">mix</property>
      <property name="always_active">1</property>
      <property name="sum">1</property>
    </transition>
    <transition id="transition3">
      <property name="a_track">0</property>
      <property name="b_track">3</property>
      <property name="mlt_service">mix</property>
      <property name="always_active">1</property>
      <property name="sum">1</property>
    </transition>
    <transition id="transition4">
      <property name="a_track">1</property>
      <property name="b_track">3</property>
      <property name="version">0.1</property>
      <property name="mlt_service">frei0r.cairoblend</property>
      <property name="threads">0</property>
      <property name="disable">0</property>
    </transition>
  </tractor>
</mlt>
